<svg width="24" height="24" viewBox="0 0 24 24" fill="none" xmlns="http://www.w3.org/2000/svg">
<path d="M6.43041 2.41283C6.55649 2.26235 6.61854 2.06845 6.60325 1.87273C6.58796 1.67702 6.49654 1.49511 6.34863 1.36604C6.20071 1.23697 6.00809 1.17105 5.81211 1.18241C5.61613 1.19378 5.43242 1.28153 5.30041 1.42683L4.00841 2.90683C3.27579 3.74639 2.86165 4.8168 2.83841 5.93083L2.78141 8.64983C2.77937 8.74832 2.79676 8.84625 2.83257 8.93802C2.86838 9.02979 2.92192 9.11361 2.99012 9.1847C3.05832 9.25578 3.13986 9.31273 3.23008 9.3523C3.32029 9.39188 3.41742 9.41329 3.51591 9.41533C3.6144 9.41736 3.71233 9.39998 3.8041 9.36417C3.89588 9.32836 3.9797 9.27482 4.05078 9.20662C4.12186 9.13841 4.17882 9.05687 4.21839 8.96666C4.25796 8.87644 4.27937 8.77932 4.28141 8.68083L4.33741 5.96283C4.35345 5.20055 4.63699 4.46819 5.13841 3.89383L6.43041 2.41283Z" fill="black"/>
<path fill-rule="evenodd" clip-rule="evenodd" d="M6.23597 7.7C6.30313 6.63014 6.77549 5.62608 7.5569 4.89224C8.3383 4.15839 9.37 3.74993 10.442 3.75H10.999V3C10.999 2.73478 11.1043 2.48043 11.2919 2.29289C11.4794 2.10536 11.7338 2 11.999 2C12.2642 2 12.5185 2.10536 12.7061 2.29289C12.8936 2.48043 12.999 2.73478 12.999 3V3.75H13.556C14.6279 3.74993 15.6596 4.15839 16.4411 4.89224C17.2225 5.62608 17.6948 6.63014 17.762 7.7L17.983 11.234C18.0672 12.5815 18.5196 13.88 19.291 14.988C19.4503 15.2171 19.5477 15.4835 19.5736 15.7613C19.5995 16.0392 19.5531 16.319 19.4389 16.5736C19.3246 16.8281 19.1464 17.0488 18.9216 17.2142C18.6968 17.3795 18.433 17.4838 18.156 17.517L14.749 17.925V19C14.749 19.7293 14.4592 20.4288 13.9435 20.9445C13.4278 21.4603 12.7283 21.75 11.999 21.75C11.2696 21.75 10.5702 21.4603 10.0544 20.9445C9.5387 20.4288 9.24897 19.7293 9.24897 19V17.925L5.84197 17.516C5.56507 17.4827 5.30148 17.3784 5.07682 17.2131C4.85216 17.0478 4.67406 16.8273 4.55983 16.5729C4.44559 16.3184 4.39911 16.0388 4.42489 15.7611C4.45068 15.4834 4.54785 15.2171 4.70697 14.988C5.47827 13.8799 5.9307 12.5814 6.01497 11.234L6.23597 7.701V7.7ZM10.442 5.25C9.75155 5.24992 9.08704 5.51297 8.58375 5.98561C8.08046 6.45825 7.77622 7.10493 7.73297 7.794L7.51297 11.328C7.41132 12.949 6.86689 14.511 5.93897 15.844C5.92744 15.8606 5.92039 15.8798 5.91851 15.8999C5.91663 15.92 5.91997 15.9403 5.92823 15.9587C5.93648 15.9771 5.94936 15.9931 5.96561 16.005C5.98186 16.017 6.00093 16.0246 6.02097 16.027L9.75797 16.476C11.247 16.654 12.751 16.654 14.24 16.476L17.977 16.027C17.997 16.0246 18.0161 16.017 18.0323 16.005C18.0486 15.9931 18.0615 15.9771 18.0697 15.9587C18.078 15.9403 18.0813 15.92 18.0794 15.8999C18.0776 15.8798 18.0705 15.8606 18.059 15.844C17.1314 14.5109 16.5873 12.9489 16.486 11.328L16.265 7.794C16.2217 7.10493 15.9175 6.45825 15.4142 5.98561C14.9109 5.51297 14.2464 5.24992 13.556 5.25H10.442ZM11.999 20.25C11.309 20.25 10.749 19.69 10.749 19V18.25H13.249V19C13.249 19.69 12.689 20.25 11.999 20.25Z" fill="black"/>
<path d="M17.6435 1.3552C17.4937 1.48597 17.402 1.67089 17.3885 1.86929C17.3749 2.06769 17.4408 2.26333 17.5715 2.4132L18.8635 3.8932C19.3648 4.46796 19.648 5.20071 19.6635 5.9632L19.7205 8.6802C19.7246 8.87911 19.8076 9.06824 19.9511 9.20599C20.0947 9.34374 20.2871 9.41881 20.486 9.4147C20.6849 9.41059 20.8741 9.32763 21.0118 9.18407C21.1495 9.04051 21.2246 8.84811 21.2205 8.6492L21.1635 5.9312C21.1403 4.81717 20.7261 3.74677 19.9935 2.9072L18.7015 1.4272C18.5707 1.27739 18.3858 1.18564 18.1874 1.17214C17.989 1.15864 17.7934 1.22449 17.6435 1.3552Z" fill="black"/>
</svg>
