<svg width="18" height="18" viewBox="0 0 18 18" fill="none" xmlns="http://www.w3.org/2000/svg">
<path d="M9 10.5H1.5C1.10218 10.5 0.720644 10.342 0.43934 10.0607C0.158035 9.77936 0 9.39782 0 9V1.5C0 1.10218 0.158035 0.720644 0.43934 0.43934C0.720644 0.158035 1.10218 0 1.5 0H9C9.39782 0 9.77936 0.158035 10.0607 0.43934C10.342 0.720644 10.5 1.10218 10.5 1.5V9C10.5 9.39782 10.342 9.77936 10.0607 10.0607C9.77936 10.342 9.39782 10.5 9 10.5ZM1.5 1.5V9H9V1.5H1.5ZM16.5 6V9H13.5V6H16.5ZM16.5 4.5H13.5C13.1022 4.5 12.7206 4.65804 12.4393 4.93934C12.158 5.22064 12 5.60218 12 6V9C12 9.39782 12.158 9.77936 12.4393 10.0607C12.7206 10.342 13.1022 10.5 13.5 10.5H16.5C16.8978 10.5 17.2794 10.342 17.5607 10.0607C17.842 9.77936 18 9.39782 18 9V6C18 5.60218 17.842 5.22064 17.5607 4.93934C17.2794 4.65804 16.8978 4.5 16.5 4.5ZM16.5 13.5V16.5H13.5V13.5H16.5ZM16.5 12H13.5C13.1022 12 12.7206 12.158 12.4393 12.4393C12.158 12.7206 12 13.1022 12 13.5V16.5C12 16.8978 12.158 17.2794 12.4393 17.5607C12.7206 17.842 13.1022 18 13.5 18H16.5C16.8978 18 17.2794 17.842 17.5607 17.5607C17.842 17.2794 18 16.8978 18 16.5V13.5C18 13.1022 17.842 12.7206 17.5607 12.4393C17.2794 12.158 16.8978 12 16.5 12ZM9 13.5V16.5H6V13.5H9ZM9 12H6C5.60218 12 5.22064 12.158 4.93934 12.4393C4.65804 12.7206 4.5 13.1022 4.5 13.5V16.5C4.5 16.8978 4.65804 17.2794 4.93934 17.5607C5.22064 17.842 5.60218 18 6 18H9C9.39782 18 9.77936 17.842 10.0607 17.5607C10.342 17.2794 10.5 16.8978 10.5 16.5V13.5C10.5 13.1022 10.342 12.7206 10.0607 12.4393C9.77936 12.158 9.39782 12 9 12Z" fill="black"/>
</svg>
