<svg width="48" height="48" viewBox="0 0 48 48" fill="none" xmlns="http://www.w3.org/2000/svg">
<g clip-path="url(#clip0_1_1081)">
<path d="M17.03 23.411C16.8738 23.5673 16.786 23.7792 16.786 24.0002C16.786 24.2211 16.8738 24.433 17.03 24.5893L21.7442 29.3035C21.9013 29.4553 22.1118 29.5393 22.3303 29.5374C22.5488 29.5355 22.7578 29.4478 22.9123 29.2933C23.0669 29.1388 23.1545 28.9298 23.1564 28.7113C23.1583 28.4928 23.0743 28.2823 22.9225 28.1252L19.6308 24.8335L30.6667 24.8335C30.8877 24.8335 31.0996 24.7457 31.2559 24.5894C31.4122 24.4331 31.5 24.2212 31.5 24.0002C31.5 23.7791 31.4122 23.5672 31.2559 23.4109C31.0996 23.2546 30.8877 23.1668 30.6667 23.1668L19.6308 23.1668L22.9225 19.8752C23.0743 19.718 23.1583 19.5075 23.1564 19.289C23.1545 19.0705 23.0669 18.8615 22.9123 18.707C22.7578 18.5525 22.5488 18.4648 22.3303 18.4629C22.1118 18.461 21.9013 18.545 21.7442 18.6968L17.03 23.411Z" fill="white"/>
</g>
<rect x="47.5" y="47.5" width="47" height="47" rx="23.5" transform="rotate(-180 47.5 47.5)" stroke="white" stroke-opacity="0.5"/>
<defs>
<clipPath id="clip0_1_1081">
<rect width="20" height="20" fill="white" transform="translate(14 14)"/>
</clipPath>
</defs>
</svg>
