<svg width="48" height="48" viewBox="0 0 48 48" fill="none" xmlns="http://www.w3.org/2000/svg">
<g clip-path="url(#clip0_1_1076)">
<path d="M30.97 24.589C31.1262 24.4327 31.214 24.2208 31.214 23.9998C31.214 23.7789 31.1262 23.567 30.97 23.4107L26.2558 18.6965C26.0987 18.5447 25.8882 18.4607 25.6697 18.4626C25.4512 18.4645 25.2422 18.5522 25.0877 18.7067C24.9331 18.8612 24.8455 19.0702 24.8436 19.2887C24.8417 19.5072 24.9257 19.7177 25.0775 19.8748L28.3692 23.1665L17.3333 23.1665C17.1123 23.1665 16.9004 23.2543 16.7441 23.4106C16.5878 23.5669 16.5 23.7788 16.5 23.9998C16.5 24.2209 16.5878 24.4328 16.7441 24.5891C16.9004 24.7454 17.1123 24.8332 17.3333 24.8332L28.3692 24.8332L25.0775 28.1248C24.9257 28.282 24.8417 28.4925 24.8436 28.711C24.8455 28.9295 24.9331 29.1385 25.0877 29.293C25.2422 29.4475 25.4512 29.5352 25.6697 29.5371C25.8882 29.539 26.0987 29.455 26.2558 29.3032L30.97 24.589Z" fill="white"/>
</g>
<rect x="0.5" y="0.5" width="47" height="47" rx="23.5" stroke="white" stroke-opacity="0.5"/>
<defs>
<clipPath id="clip0_1_1076">
<rect width="20" height="20" fill="white" transform="translate(34 34) rotate(-180)"/>
</clipPath>
</defs>
</svg>
