<svg width="25" height="24" viewBox="0 0 25 24" fill="none" xmlns="http://www.w3.org/2000/svg">
<path fill-rule="evenodd" clip-rule="evenodd" d="M8.35675 8.50342C7.99579 8.50342 7.66285 8.69794 7.4856 9.01239L4.33621 14.5997C2.15096 18.4766 5.09031 23.1776 9.69957 23.1776H15.2696C19.8789 23.1776 22.8183 18.4766 20.633 14.5997L17.4836 9.01239C17.3064 8.69794 16.9734 8.50342 16.6125 8.50342H8.35675ZM15.5958 14.52C15.8815 14.22 15.8699 13.7453 15.5699 13.4596C15.27 13.174 14.7953 13.1856 14.5096 13.4855L11.7878 16.3434C11.7816 16.3499 11.7778 16.3515 11.7772 16.3518C11.7762 16.3522 11.7757 16.3522 11.7754 16.3522C11.7751 16.3522 11.7746 16.3522 11.7736 16.3518C11.773 16.3515 11.7692 16.3499 11.763 16.3434L10.4854 15.002C10.1998 14.702 9.72503 14.6904 9.42508 14.9761C9.12513 15.2618 9.11356 15.7365 9.39922 16.0364L10.6768 17.3779C11.2791 18.0104 12.2716 18.0104 12.874 17.3779L15.5958 14.52Z" fill="#45B386"/>
<path fill-rule="evenodd" clip-rule="evenodd" d="M14.5298 1.89745C15.7532 1.28574 17.1449 2.34874 16.8766 3.68998L16.3958 6.09427C16.2322 6.91227 15.514 7.50107 14.6798 7.50107H10.2803C9.47733 7.50107 8.77736 6.95455 8.5826 6.17551L8.30168 5.05182C7.92442 3.5428 9.2913 2.17592 10.8003 2.55318C11.8405 2.81323 12.9395 2.6926 13.8985 2.21308L14.5298 1.89745Z" fill="#45B386"/>
<path fill-rule="evenodd" clip-rule="evenodd" d="M14.5298 1.89745C15.7532 1.28574 17.1449 2.34874 16.8766 3.68998L16.3958 6.09427C16.2322 6.91227 15.514 7.50107 14.6798 7.50107H10.2803C9.47733 7.50107 8.77736 6.95455 8.5826 6.17551L8.30168 5.05182C7.92442 3.5428 9.2913 2.17592 10.8003 2.55318C11.8405 2.81323 12.9395 2.6926 13.8985 2.21308L14.5298 1.89745Z" fill="#45B386"/>
</svg>
