<svg width="33" height="32" viewBox="0 0 33 32" fill="none" xmlns="http://www.w3.org/2000/svg">
<path d="M9.83325 9.33333V6.66666C9.83327 5.8945 10.0568 5.13884 10.4768 4.49091C10.8968 3.84298 11.4954 3.33047 12.2003 3.01525C12.9052 2.70002 13.6862 2.59556 14.4492 2.71446C15.2122 2.83336 15.9244 3.17055 16.4999 3.68533C17.0755 3.17055 17.7877 2.83336 18.5506 2.71446C19.3136 2.59556 20.0946 2.70002 20.7995 3.01525C21.5044 3.33047 22.103 3.84298 22.523 4.49091C22.9431 5.13884 23.1666 5.8945 23.1666 6.66666V9.33333H25.1666C25.697 9.33333 26.2057 9.54404 26.5808 9.91911C26.9559 10.2942 27.1666 10.8029 27.1666 11.3333V24.6733C27.1666 25.9092 26.6756 27.0945 25.8017 27.9684C24.9278 28.8424 23.7425 29.3333 22.5066 29.3333H11.1666C9.7521 29.3333 8.39554 28.7714 7.39535 27.7712C6.39515 26.771 5.83325 25.4145 5.83325 24V11.3333C5.83325 10.8029 6.04397 10.2942 6.41904 9.91911C6.79411 9.54404 7.30282 9.33333 7.83325 9.33333H9.83325ZM18.6799 27.3333C18.136 26.5531 17.8451 25.6245 17.8466 24.6733V11.3333H7.83325V24C7.83325 24.4377 7.91947 24.8712 8.08699 25.2756C8.2545 25.68 8.50003 26.0475 8.80956 26.357C9.11909 26.6665 9.48656 26.9121 9.89097 27.0796C10.2954 27.2471 10.7288 27.3333 11.1666 27.3333H18.6799ZM15.8333 9.33333V6.66666C15.8333 6.13623 15.6225 5.62752 15.2475 5.25245C14.8724 4.87737 14.3637 4.66666 13.8333 4.66666C13.3028 4.66666 12.7941 4.87737 12.419 5.25245C12.044 5.62752 11.8333 6.13623 11.8333 6.66666V9.33333H15.8333ZM17.8333 9.33333H21.1666V6.66666C21.1666 6.25497 21.0396 5.8533 20.8029 5.51648C20.5662 5.17965 20.2313 4.92408 19.8439 4.78466C19.4566 4.64523 19.0356 4.62874 18.6385 4.73744C18.2415 4.84613 17.8876 5.07472 17.6253 5.39199C17.7599 5.79199 17.8333 6.22133 17.8333 6.66666V9.33333ZM19.8466 24.6733C19.8466 25.3788 20.1268 26.0554 20.6257 26.5542C21.1245 27.0531 21.8011 27.3333 22.5066 27.3333C23.2121 27.3333 23.8886 27.0531 24.3875 26.5542C24.8863 26.0554 25.1666 25.3788 25.1666 24.6733V11.3333H19.8466V24.6733Z" fill="black"/>
</svg>
