<svg width="20" height="22" viewBox="0 0 20 22" fill="none" xmlns="http://www.w3.org/2000/svg">
<path fill-rule="evenodd" clip-rule="evenodd" d="M0.25 1.5C0.25 1.08579 0.585786 0.75 1 0.75H19C19.4142 0.75 19.75 1.08579 19.75 1.5C19.75 1.91421 19.4142 2.25 19 2.25H1C0.585786 2.25 0.25 1.91421 0.25 1.5Z" fill="#534F59"/>
<path fill-rule="evenodd" clip-rule="evenodd" d="M6.75 15C6.75 14.5858 7.08579 14.25 7.5 14.25H12.5C12.9142 14.25 13.25 14.5858 13.25 15C13.25 15.4142 12.9142 15.75 12.5 15.75H7.5C7.08579 15.75 6.75 15.4142 6.75 15Z" fill="#4B8F8F"/>
<path fill-rule="evenodd" clip-rule="evenodd" d="M5.75 12C5.75 11.5858 6.08579 11.25 6.5 11.25H13.5C13.9142 11.25 14.25 11.5858 14.25 12C14.25 12.4142 13.9142 12.75 13.5 12.75H6.5C6.08579 12.75 5.75 12.4142 5.75 12Z" fill="#4B8F8F"/>
<path fill-rule="evenodd" clip-rule="evenodd" d="M4.75 9C4.75 8.58579 5.08579 8.25 5.5 8.25H14.5C14.9142 8.25 15.25 8.58579 15.25 9C15.25 9.41421 14.9142 9.75 14.5 9.75H5.5C5.08579 9.75 4.75 9.41421 4.75 9Z" fill="#4B8F8F"/>
<path fill-rule="evenodd" clip-rule="evenodd" d="M2 3.75C2.41421 3.75 2.75 4.08579 2.75 4.5V16.5C2.75 18.2949 4.20507 19.75 6 19.75H14C15.7949 19.75 17.25 18.2949 17.25 16.5V4.5C17.25 4.08579 17.5858 3.75 18 3.75C18.4142 3.75 18.75 4.08579 18.75 4.5V16.5C18.75 19.1234 16.6234 21.25 14 21.25H6C3.37665 21.25 1.25 19.1234 1.25 16.5V4.5C1.25 4.08579 1.58579 3.75 2 3.75Z" fill="#534F59"/>
</svg>
