<svg width="40" height="40" viewBox="0 0 40 40" fill="none" xmlns="http://www.w3.org/2000/svg">
<g clip-path="url(#clip0_1_109)">
<path d="M29.375 18.125C29.375 18.3722 29.3017 18.6139 29.1643 18.8195C29.027 19.025 28.8318 19.1852 28.6034 19.2799C28.3749 19.3745 28.1236 19.3992 27.8811 19.351C27.6387 19.3028 27.4159 19.1837 27.2411 19.0089C27.0663 18.8341 26.9473 18.6113 26.899 18.3689C26.8508 18.1264 26.8755 17.8751 26.9701 17.6466C27.0648 17.4182 27.225 17.223 27.4305 17.0857C27.6361 16.9483 27.8778 16.875 28.125 16.875C28.4565 16.875 28.7745 17.0067 29.0089 17.2411C29.2433 17.4755 29.375 17.7935 29.375 18.125ZM23.75 10.625H17.5C17.3342 10.625 17.1753 10.6908 17.0581 10.8081C16.9408 10.9253 16.875 11.0842 16.875 11.25C16.875 11.4158 16.9408 11.5747 17.0581 11.6919C17.1753 11.8092 17.3342 11.875 17.5 11.875H23.75C23.9158 11.875 24.0747 11.8092 24.1919 11.6919C24.3092 11.5747 24.375 11.4158 24.375 11.25C24.375 11.0842 24.3092 10.9253 24.1919 10.8081C24.0747 10.6908 23.9158 10.625 23.75 10.625ZM38.125 17.5V22.5C38.125 22.9104 38.0442 23.3167 37.8871 23.6959C37.7301 24.075 37.4999 24.4195 37.2097 24.7097C36.9195 24.9999 36.575 25.2301 36.1959 25.3871C35.8167 25.5442 35.4104 25.625 35 25.625H34.1906L31.5094 33.125C31.3803 33.4902 31.1412 33.8065 30.825 34.0303C30.5089 34.2541 30.1311 34.3746 29.7437 34.375H27.7563C27.3689 34.3746 26.9911 34.2541 26.675 34.0303C26.3588 33.8065 26.1197 33.4902 25.9906 33.125L25.5422 31.875H15.7078L15.2594 33.125C15.1303 33.4902 14.8912 33.8065 14.575 34.0303C14.2589 34.2541 13.8811 34.3746 13.4937 34.375H11.5063C11.1189 34.3746 10.7411 34.2541 10.425 34.0303C10.1088 33.8065 9.86975 33.4902 9.74063 33.125L7.7375 27.5156C5.72757 25.2836 4.54689 22.4279 4.39375 19.4281C3.68286 19.5687 3.04293 19.952 2.58346 20.5123C2.12399 21.0727 1.87355 21.7753 1.875 22.5C1.875 22.6658 1.80915 22.8247 1.69194 22.9419C1.57473 23.0592 1.41576 23.125 1.25 23.125C1.08424 23.125 0.925268 23.0592 0.808058 22.9419C0.690848 22.8247 0.625 22.6658 0.625 22.5C0.625213 21.4457 1.00616 20.4269 1.69775 19.6311C2.38935 18.8353 3.34506 18.316 4.38906 18.1687C4.54254 14.7932 5.99041 11.6066 8.43195 9.27068C10.8735 6.93477 14.121 5.62915 17.5 5.625H33.75C33.9158 5.625 34.0747 5.69085 34.1919 5.80806C34.3092 5.92527 34.375 6.08424 34.375 6.25C34.375 6.41576 34.3092 6.57473 34.1919 6.69194C34.0747 6.80915 33.9158 6.875 33.75 6.875H28.0938C30.9843 8.23573 33.2793 10.604 34.5484 13.5359C34.6672 13.8109 34.7781 14.0906 34.8781 14.375H35C35.8288 14.375 36.6237 14.7042 37.2097 15.2903C37.7958 15.8763 38.125 16.6712 38.125 17.5ZM36.875 17.5C36.875 17.0027 36.6775 16.5258 36.3258 16.1742C35.9742 15.8225 35.4973 15.625 35 15.625H34.4281C34.295 15.6251 34.1653 15.5828 34.058 15.5041C33.9506 15.4254 33.8712 15.3145 33.8312 15.1875C33.7085 14.7953 33.5651 14.4098 33.4016 14.0328C32.481 11.9062 30.9584 10.0953 29.0213 8.82346C27.0842 7.55159 24.8173 6.87428 22.5 6.875H17.5C15.196 6.87614 12.9422 7.54747 11.0131 8.80718C9.08402 10.0669 7.56305 11.8606 6.63557 13.9696C5.70808 16.0786 5.41415 18.4119 5.78959 20.6851C6.16502 22.9582 7.19362 25.0731 8.75 26.7719C8.80648 26.8334 8.85005 26.9057 8.87813 26.9844L10.9234 32.7109C10.9666 32.8313 11.0456 32.9355 11.1498 33.0095C11.254 33.0836 11.3784 33.1239 11.5063 33.125H13.4937C13.6227 33.1252 13.7484 33.0854 13.8539 33.0113C13.9594 32.9372 14.0393 32.8323 14.0828 32.7109L14.6875 31.0391C14.7305 30.9192 14.809 30.8154 14.9126 30.7414C15.0162 30.6674 15.1399 30.6268 15.2672 30.625H25.9828C26.1114 30.6252 26.2369 30.665 26.342 30.7391C26.4472 30.8132 26.5269 30.918 26.5703 31.0391L27.1672 32.7109C27.2107 32.8323 27.2906 32.9372 27.3961 33.0113C27.5016 33.0854 27.6273 33.1252 27.7563 33.125H29.7437C29.8727 33.1252 29.9984 33.0854 30.1039 33.0113C30.2094 32.9372 30.2893 32.8323 30.3328 32.7109L33.1609 24.7891C33.2044 24.6677 33.2844 24.5628 33.3899 24.4887C33.4953 24.4146 33.6211 24.3748 33.75 24.375H35C35.4973 24.375 35.9742 24.1775 36.3258 23.8258C36.6775 23.4742 36.875 22.9973 36.875 22.5V17.5Z" fill="white" fill-opacity="0.5"/>
</g>
<defs>
<clipPath id="clip0_1_109">
<rect width="40" height="40" fill="white"/>
</clipPath>
</defs>
</svg>
