<svg width="24" height="24" viewBox="0 0 24 24" fill="none" xmlns="http://www.w3.org/2000/svg">
<path d="M19.7132 0.856934H4.2846C3.33782 0.856934 2.57031 1.62445 2.57031 2.57122V18.8569C2.57031 19.8037 3.33782 20.5712 4.2846 20.5712H19.7132C20.6599 20.5712 21.4275 19.8037 21.4275 18.8569V2.57122C21.4275 1.62445 20.6599 0.856934 19.7132 0.856934Z" stroke="black" stroke-linecap="round" stroke-linejoin="round"/>
<path d="M5.99888 20.5714V23.1429M17.9989 20.5714V23.1429M2.57031 12H21.4275" stroke="black" stroke-linecap="round" stroke-linejoin="round"/>
<path d="M6.85714 17.1425C7.33053 17.1425 7.71429 16.7588 7.71429 16.2854C7.71429 15.812 7.33053 15.4282 6.85714 15.4282C6.38376 15.4282 6 15.812 6 16.2854C6 16.7588 6.38376 17.1425 6.85714 17.1425Z" stroke="black" stroke-linecap="round" stroke-linejoin="round"/>
<path d="M17.1423 17.1425C17.6157 17.1425 17.9994 16.7588 17.9994 16.2854C17.9994 15.812 17.6157 15.4282 17.1423 15.4282C16.6689 15.4282 16.2852 15.812 16.2852 16.2854C16.2852 16.7588 16.6689 17.1425 17.1423 17.1425Z" stroke="black" stroke-linecap="round" stroke-linejoin="round"/>
</svg>
