<svg width="24" height="24" viewBox="0 0 24 24" fill="none" xmlns="http://www.w3.org/2000/svg">
<path fill-rule="evenodd" clip-rule="evenodd" d="M15.0729 13.4598C15.3729 13.7455 15.3845 14.2202 15.0988 14.5202L12.377 17.3781C11.7746 18.0105 10.7821 18.0105 10.1798 17.3781L8.90221 16.0366C8.61655 15.7367 8.62812 15.2619 8.92807 14.9763C9.22802 14.6906 9.70275 14.7022 9.98842 15.0021L11.266 16.3436C11.2722 16.3501 11.276 16.3517 11.2766 16.352C11.2776 16.3524 11.2781 16.3524 11.2784 16.3524C11.2787 16.3524 11.2792 16.3524 11.2802 16.352C11.2808 16.3517 11.2846 16.3501 11.2908 16.3436L14.0126 13.4857C14.2983 13.1857 14.773 13.1742 15.0729 13.4598Z" fill="#534F59"/>
<path fill-rule="evenodd" clip-rule="evenodd" d="M14.0034 1.90977C15.2339 1.29454 16.6273 2.38254 16.3289 3.72546L15.7317 6.41292L14.2674 6.08753L14.8646 3.40006C14.8726 3.36435 14.8681 3.34131 14.8617 3.32468C14.8541 3.30496 14.8392 3.28347 14.8164 3.26562C14.7935 3.24777 14.7691 3.23854 14.7481 3.23598C14.7304 3.23383 14.707 3.23505 14.6742 3.25141L14.0343 3.57136C12.7776 4.19973 11.3375 4.35781 9.97443 4.01703C9.5757 3.91734 9.21853 4.28661 9.33145 4.6818L9.7207 6.04418L8.27841 6.45627L7.88916 5.09388C7.45909 3.58862 8.81948 2.18212 10.3382 2.56181C11.354 2.81575 12.427 2.69795 13.3635 2.22972L14.0034 1.90977Z" fill="#534F59"/>
<path fill-rule="evenodd" clip-rule="evenodd" d="M4.65234 7.64312C4.65234 6.44845 5.62082 5.47998 6.81549 5.47998H17.1785C18.3732 5.47998 19.3417 6.44845 19.3417 7.64312C19.3417 8.8378 18.3732 9.80627 17.1785 9.80627H6.81549C5.62082 9.80627 4.65234 8.8378 4.65234 7.64312ZM6.81549 6.97998C6.44924 6.97998 6.15234 7.27688 6.15234 7.64312C6.15234 8.00937 6.44924 8.30627 6.81549 8.30627H17.1785C17.5448 8.30627 17.8417 8.00937 17.8417 7.64312C17.8417 7.27688 17.5448 6.97998 17.1785 6.97998H6.81549Z" fill="#534F59"/>
<path fill-rule="evenodd" clip-rule="evenodd" d="M8.38769 9.58839L5.15829 15.2999C3.56108 18.1247 5.67496 21.6586 9.19553 21.6586H14.797C18.3176 21.6586 20.4315 18.1247 18.8343 15.2999L15.6049 9.58839L16.9106 8.8501L20.14 14.5616C22.3647 18.4961 19.3378 23.1586 14.797 23.1586H9.19553C4.65476 23.1586 1.62788 18.4961 3.85256 14.5616L7.08196 8.8501L8.38769 9.58839Z" fill="#534F59"/>
</svg>
