<svg width="24" height="24" viewBox="0 0 24 24" fill="none" xmlns="http://www.w3.org/2000/svg">
<path d="M15.6439 14.1428C15.4734 14.1428 15.3099 14.2105 15.1893 14.3311C15.0688 14.4516 15.001 14.6151 15.001 14.7856C15.001 14.9561 15.0688 15.1197 15.1893 15.2402C15.3099 15.3608 15.4734 15.4285 15.6439 15.4285H18.6439C18.8144 15.4285 18.9779 15.3608 19.0985 15.2402C19.219 15.1197 19.2868 14.9561 19.2868 14.7856C19.2868 14.6151 19.219 14.4516 19.0985 14.3311C18.9779 14.2105 18.8144 14.1428 18.6439 14.1428H15.6439ZM1.71875 7.49993C1.71875 6.64745 2.0574 5.82988 2.66019 5.22709C3.26299 4.62429 4.08055 4.28564 4.93304 4.28564H19.0725C19.9249 4.28564 20.7425 4.62429 21.3453 5.22709C21.9481 5.82988 22.2868 6.64745 22.2868 7.49993V16.4999C22.2868 17.3524 21.9481 18.17 21.3453 18.7728C20.7425 19.3756 19.9249 19.7142 19.0725 19.7142H4.93389C4.08141 19.7142 3.26385 19.3756 2.66105 18.7728C2.05825 18.17 1.71961 17.3524 1.71961 16.4999V7.49993H1.71875ZM4.93304 5.57136C4.42155 5.57136 3.93101 5.77455 3.56933 6.13622C3.20765 6.4979 3.00446 6.98844 3.00446 7.49993V8.14279H21.001V7.49993C21.001 6.98844 20.7978 6.4979 20.4362 6.13622C20.0745 5.77455 19.584 5.57136 19.0725 5.57136H4.93304ZM3.00446 16.4999C3.00446 17.0114 3.20765 17.502 3.56933 17.8636C3.93101 18.2253 4.42155 18.4285 4.93304 18.4285H19.0725C19.584 18.4285 20.0745 18.2253 20.4362 17.8636C20.7978 17.502 21.001 17.0114 21.001 16.4999V9.4285H3.00532V16.4999H3.00446Z" fill="black"/>
</svg>
