<svg width="24" height="24" viewBox="0 0 24 24" fill="none" xmlns="http://www.w3.org/2000/svg">
<path d="M17.1412 3H2.56975C1.62298 3 0.855469 3.76751 0.855469 4.71429V15C0.855469 15.9468 1.62298 16.7143 2.56975 16.7143H17.1412C18.088 16.7143 18.8555 15.9468 18.8555 15V4.71429C18.8555 3.76751 18.088 3 17.1412 3Z" stroke="black" stroke-linecap="round" stroke-linejoin="round"/>
<path d="M9.85658 12.4285C11.2767 12.4285 12.428 11.2772 12.428 9.85707C12.428 8.43691 11.2767 7.28564 9.85658 7.28564C8.43642 7.28564 7.28516 8.43691 7.28516 9.85707C7.28516 11.2772 8.43642 12.4285 9.85658 12.4285Z" stroke="black" stroke-linecap="round" stroke-linejoin="round"/>
<path d="M6 21.0001H21.4286C21.8832 21.0001 22.3193 20.8195 22.6408 20.498C22.9622 20.1765 23.1429 19.7404 23.1429 19.2858V10.7144" stroke="black" stroke-linecap="round" stroke-linejoin="round"/>
</svg>
