<svg width="24" height="24" viewBox="0 0 24 24" fill="none" xmlns="http://www.w3.org/2000/svg">
<path opacity="0.8" d="M1.25 12C1.25 17.9371 6.06294 22.75 12 22.75C17.9371 22.75 22.75 17.9371 22.75 12C22.75 6.06294 17.9371 1.25 12 1.25C6.06294 1.25 1.25 6.06294 1.25 12Z" fill="#248A8A"/>
<path fill-rule="evenodd" clip-rule="evenodd" d="M16.9686 8.41438C17.2921 8.67313 17.3445 9.1451 17.0858 9.46855L12.7944 14.8327C11.6317 16.2861 9.39126 16.1889 8.35885 14.6402L6.87604 12.416C6.64628 12.0714 6.73941 11.6057 7.08405 11.376C7.4287 11.1462 7.89435 11.2393 8.12412 11.584L9.60692 13.8082C10.0762 14.5121 11.0946 14.5563 11.6231 13.8957L15.9145 8.53151C16.1732 8.20806 16.6452 8.15562 16.9686 8.41438Z" fill="white"/>
</svg>
