<svg width="29" height="24" viewBox="0 0 29 24" fill="none" xmlns="http://www.w3.org/2000/svg">
<path d="M12.1312 8.01736C11.4802 7.61908 10.9967 7.05955 10.75 6.41867C10.5032 5.77779 10.5057 5.08832 10.7572 4.44872C11.0087 3.80911 11.4962 3.25206 12.1502 2.85711C12.8042 2.46217 13.5913 2.24951 14.3989 2.24951C15.2066 2.24951 15.9936 2.46217 16.6476 2.85711C17.3016 3.25206 17.7892 3.80911 18.0407 4.44872C18.2921 5.08832 18.2947 5.77779 18.0479 6.41867C17.8012 7.05955 17.3177 7.61908 16.6666 8.01736L19.3846 9.50886C19.317 9.9631 19.1614 10.4052 18.9238 10.8179H9.87344C9.63587 10.4052 9.48025 9.9631 9.41264 9.50886L12.1306 8.01736M16.516 10.8179C16.516 15.3544 22.1488 16.0179 22.1488 20.4149C21.1018 21.5099 17.3908 21.7499 14.3986 21.7499C11.4064 21.7499 7.69544 21.5099 6.64844 20.4149C6.64844 16.0179 12.2812 15.3549 12.2812 10.8179" stroke="black" stroke-linecap="round" stroke-linejoin="round"/>
</svg>
