<svg width="40" height="40" viewBox="0 0 40 40" fill="none" xmlns="http://www.w3.org/2000/svg">
<g clip-path="url(#clip0_1_149)">
<path d="M20 4.375C16.9097 4.375 13.8887 5.29139 11.3192 7.00829C8.7497 8.72518 6.74701 11.1655 5.56439 14.0206C4.38177 16.8757 4.07234 20.0173 4.67524 23.0483C5.27813 26.0792 6.76627 28.8633 8.95146 31.0485C11.1367 33.2337 13.9208 34.7219 16.9517 35.3248C19.9827 35.9277 23.1243 35.6182 25.9794 34.4356C28.8345 33.253 31.2748 31.2503 32.9917 28.6808C34.7086 26.1113 35.625 23.0903 35.625 20C35.6205 15.8574 33.9728 11.8858 31.0435 8.95648C28.1143 6.02721 24.1426 4.37955 20 4.375ZM20 5.625C22.5834 5.62678 25.1187 6.32413 27.3396 7.64382C29.5605 8.9635 31.3852 10.8568 32.6219 13.125H20C18.2826 13.1271 16.628 13.7712 15.3611 14.9307C14.0943 16.0903 13.3067 17.6816 13.1531 19.3922L8.51719 11.3625C9.85491 9.58091 11.5888 8.13502 13.5818 7.13921C15.5748 6.14341 17.7721 5.625 20 5.625ZM20 25.625C18.8875 25.625 17.8 25.2951 16.8749 24.677C15.9499 24.0589 15.2289 23.1804 14.8032 22.1526C14.3774 21.1248 14.266 19.9938 14.4831 18.9026C14.7001 17.8115 15.2359 16.8092 16.0225 16.0225C16.8092 15.2359 17.8115 14.7001 18.9026 14.4831C19.9938 14.266 21.1248 14.3774 22.1526 14.8032C23.1804 15.2289 24.0589 15.9499 24.677 16.8749C25.2951 17.7999 25.625 18.8875 25.625 20C25.625 21.4918 25.0324 22.9226 23.9775 23.9775C22.9226 25.0324 21.4918 25.625 20 25.625ZM5.62501 20C5.62234 17.3555 6.35306 14.762 7.73594 12.5078L14.0469 23.4375C14.0469 23.4516 14.0641 23.4641 14.0734 23.4781C14.937 24.9536 16.32 26.0538 17.952 26.5633C19.5839 27.0728 21.3473 26.9549 22.8969 26.2328L18.2563 34.2688C14.7734 33.8387 11.5677 32.1513 9.2416 29.5237C6.91554 26.896 5.62941 23.5093 5.62501 20ZM20 34.375H19.6422L25.9531 23.4375C25.9588 23.4275 25.9635 23.4171 25.9672 23.4062C26.8188 21.9203 27.0835 20.1695 26.7094 18.4981C26.3352 16.8268 25.3492 15.356 23.9453 14.375H33.2281C34.1576 16.5609 34.5309 18.9431 34.3147 21.3085C34.0985 23.6739 33.2995 25.9489 31.9891 27.9301C30.6788 29.9113 28.8979 31.5368 26.8057 32.6615C24.7136 33.7862 22.3753 34.3749 20 34.375Z" fill="white" fill-opacity="0.5"/>
</g>
<defs>
<clipPath id="clip0_1_149">
<rect width="40" height="40" fill="white"/>
</clipPath>
</defs>
</svg>
