<svg width="24" height="24" viewBox="0 0 24 24" fill="none" xmlns="http://www.w3.org/2000/svg">
<g clip-path="url(#clip0_117_6978)">
<path d="M12 2.625C10.1458 2.625 8.33324 3.17483 6.79153 4.20497C5.24982 5.23511 4.04821 6.69929 3.33863 8.41234C2.62906 10.1254 2.44341 12.0104 2.80514 13.829C3.16688 15.6475 4.05976 17.318 5.37088 18.6291C6.682 19.9402 8.35246 20.8331 10.171 21.1949C11.9896 21.5566 13.8746 21.3709 15.5877 20.6614C17.3007 19.9518 18.7649 18.7502 19.795 17.2085C20.8252 15.6668 21.375 13.8542 21.375 12C21.3723 9.51443 20.3837 7.13145 18.6261 5.37389C16.8686 3.61633 14.4856 2.62773 12 2.625ZM12 3.375C13.5501 3.37607 15.0712 3.79448 16.4038 4.58629C17.7363 5.3781 18.8311 6.5141 19.5731 7.875H12C10.9696 7.87625 9.97679 8.2627 9.21669 8.95845C8.45658 9.6542 7.98405 10.609 7.89188 11.6353L5.11032 6.8175C5.91294 5.74854 6.9533 4.88101 8.14908 4.28353C9.34486 3.68604 10.6633 3.375 12 3.375ZM12 15.375C11.3325 15.375 10.68 15.1771 10.125 14.8062C9.56994 14.4354 9.13736 13.9083 8.88191 13.2916C8.62646 12.6749 8.55963 11.9963 8.68985 11.3416C8.82008 10.6869 9.14152 10.0855 9.61352 9.61351C10.0855 9.14151 10.6869 8.82007 11.3416 8.68985C11.9963 8.55962 12.6749 8.62646 13.2916 8.88191C13.9083 9.13735 14.4354 9.56993 14.8062 10.125C15.1771 10.68 15.375 11.3325 15.375 12C15.375 12.8951 15.0194 13.7535 14.3865 14.3865C13.7536 15.0194 12.8951 15.375 12 15.375ZM3.375 12C3.3734 10.4133 3.81183 8.85718 4.64157 7.50469L8.42813 14.0625C8.42813 14.0709 8.43844 14.0784 8.44407 14.0869C8.96218 14.9722 9.79202 15.6323 10.7712 15.938C11.7504 16.2437 12.8084 16.173 13.7381 15.7397L10.9538 20.5613C8.86407 20.3032 6.9406 19.2908 5.54496 17.7142C4.14932 16.1376 3.37765 14.1056 3.375 12ZM12 20.625H11.7853L15.5719 14.0625C15.5753 14.0565 15.5781 14.0502 15.5803 14.0438C16.0913 13.1522 16.2501 12.1017 16.0256 11.0989C15.8011 10.0961 15.2095 9.21361 14.3672 8.625H19.9369C20.4946 9.93654 20.7185 11.3658 20.5888 12.7851C20.4591 14.2044 19.9797 15.5694 19.1935 16.7581C18.4073 17.9468 17.3387 18.9221 16.0834 19.5969C14.8281 20.2717 13.4252 20.6249 12 20.625Z" fill="black"/>
</g>
<defs>
<clipPath id="clip0_117_6978">
<rect width="24" height="24" fill="white"/>
</clipPath>
</defs>
</svg>
