<svg width="64" height="64" viewBox="0 0 64 64" fill="none" xmlns="http://www.w3.org/2000/svg">
<circle cx="32" cy="32" r="32" fill="#2E86A1"/>
<path d="M46.9333 29.8602H48V29.5637L47.8485 29.3098L46.9333 29.8602ZM17.0667 29.8602L16.1515 29.3098L16 29.568V29.8624L17.0667 29.8602ZM23.4667 40.5333V39.4666H22.4V40.5333H23.4667ZM40.5333 40.5333H41.6V39.4666H40.5333V40.5333ZM45.8667 29.8602V42.6666H48V29.8602H45.8667ZM17.9819 30.4085L22.5173 22.8565L20.6869 21.7557L16.1515 29.3098L17.9819 30.4085ZM27.0891 20.2666H36.9109V18.1333H27.0891V20.2666ZM41.4827 22.8544L46.0181 30.4085L47.8485 29.3098L43.3131 21.7557L41.4827 22.8544ZM21.3333 43.7333H19.2V45.8666H21.3333V43.7333ZM22.4 40.5333V42.6666H24.5333V40.5333H22.4ZM44.8 43.7333H42.6667V45.8666H44.8V43.7333ZM41.6 42.6666V40.5333H39.4667V42.6666H41.6ZM40.5333 39.4666H23.4667V41.6H40.5333V39.4666ZM18.1333 42.6666V29.8602L16 29.8624V42.6666H18.1333ZM42.6667 43.7333C42.3838 43.7333 42.1125 43.6209 41.9124 43.4209C41.7124 43.2208 41.6 42.9495 41.6 42.6666H39.4667C39.4667 43.5153 39.8038 44.3293 40.4039 44.9294C41.004 45.5295 41.818 45.8666 42.6667 45.8666V43.7333ZM21.3333 45.8666C22.182 45.8666 22.996 45.5295 23.5961 44.9294C24.1962 44.3293 24.5333 43.5153 24.5333 42.6666H22.4C22.4 42.9495 22.2876 43.2208 22.0876 43.4209C21.8875 43.6209 21.6162 43.7333 21.3333 43.7333V45.8666ZM19.2 43.7333C18.9171 43.7333 18.6458 43.6209 18.4458 43.4209C18.2457 43.2208 18.1333 42.9495 18.1333 42.6666H16C16 43.5153 16.3371 44.3293 16.9373 44.9294C17.5374 45.5295 18.3513 45.8666 19.2 45.8666V43.7333ZM36.9109 20.2666C37.8315 20.2667 38.7364 20.5051 39.5375 20.9586C40.3386 21.412 41.0088 22.0652 41.4827 22.8544L43.3131 21.7557C42.6494 20.6506 41.7109 19.7362 40.589 19.1014C39.4671 18.4666 38.2 18.1331 36.9109 18.1333V20.2666ZM22.5173 22.8565C22.9912 22.0673 23.6614 21.412 24.4625 20.9586C25.2636 20.5051 26.1685 20.2667 27.0891 20.2666V18.1333C25.8004 18.1335 24.5337 18.4672 23.4122 19.1019C22.2907 19.7367 21.3504 20.6509 20.6869 21.7557L22.5173 22.8565ZM45.8667 42.6666C45.8667 42.9495 45.7543 43.2208 45.5542 43.4209C45.3542 43.6209 45.0829 43.7333 44.8 43.7333V45.8666C45.6487 45.8666 46.4626 45.5295 47.0627 44.9294C47.6629 44.3293 48 43.5153 48 42.6666H45.8667ZM20.2667 37.3333H26.6667V35.2H20.2667V37.3333ZM43.7333 35.2H37.3333V37.3333H43.7333V35.2ZM22.4 30.9333H41.6V28.8H22.4V30.9333Z" fill="white"/>
</svg>
