<svg width="64" height="64" viewBox="0 0 64 64" fill="none" xmlns="http://www.w3.org/2000/svg">
<circle cx="32" cy="32" r="32" fill="#2E86A1"/>
<path d="M34.0612 17.2237C34.1478 17.0935 34.2653 16.9867 34.4032 16.9128C34.5411 16.8388 34.6951 16.8001 34.8516 16.8H40.5516C40.8035 16.8 41.0452 16.9001 41.2233 17.0783C41.4015 17.2565 41.5016 17.4981 41.5016 17.75V23.45C42.6549 24.3164 43.4016 25.6958 43.4016 27.25V40.55C43.4016 41.8098 42.9011 43.018 42.0103 43.9088C41.1195 44.7996 39.9113 45.3 38.6516 45.3H25.3516C24.0918 45.3 22.8836 44.7996 21.9928 43.9088C21.102 43.018 20.6016 41.8098 20.6016 40.55V27.25C20.6016 25.9903 21.102 24.7821 21.9928 23.8913C22.8836 23.0005 24.0918 22.5 25.3516 22.5H26.1401C25.9435 21.9441 25.5794 21.4629 25.0979 21.1226C24.6164 20.7823 24.0412 20.5997 23.4516 20.6H21.5516C21.2996 20.6 21.058 20.5 20.8798 20.3218C20.7017 20.1436 20.6016 19.902 20.6016 19.65C20.6016 19.3981 20.7017 19.1565 20.8798 18.9783C21.058 18.8001 21.2996 18.7 21.5516 18.7H23.4516C24.5466 18.6998 25.6081 19.0779 26.4563 19.7704C27.3046 20.4629 27.8876 21.4272 28.1066 22.5H30.5424L34.0612 17.2237ZM39.6016 18.7H35.3608L32.8262 22.5H38.6516C38.9765 22.5 39.2938 22.5323 39.6016 22.595V18.7ZM25.3516 24.4C24.5957 24.4 23.8708 24.7003 23.3363 25.2348C22.8018 25.7693 22.5016 26.4942 22.5016 27.25V40.55C22.5016 41.3059 22.8018 42.0308 23.3363 42.5653C23.8708 43.0998 24.5957 43.4 25.3516 43.4H38.6516C39.4074 43.4 40.1323 43.0998 40.6668 42.5653C41.2013 42.0308 41.5016 41.3059 41.5016 40.55V27.25C41.5016 26.4942 41.2013 25.7693 40.6668 25.2348C40.1323 24.7003 39.4074 24.4 38.6516 24.4H25.3516ZM37.4242 28.4774C37.5126 28.5657 37.5828 28.6705 37.6307 28.7859C37.6786 28.9014 37.7033 29.0251 37.7033 29.15C37.7033 29.275 37.6786 29.3987 37.6307 29.5142C37.5828 29.6296 37.5126 29.7344 37.4242 29.8226L33.3449 33.9L37.4242 37.9774C37.6025 38.1558 37.7028 38.3978 37.7028 38.65C37.7028 38.9023 37.6025 39.1443 37.4242 39.3226C37.2458 39.501 37.0038 39.6012 36.7516 39.6012C36.4993 39.6012 36.2573 39.501 36.079 39.3226L32.0016 35.2433L27.9242 39.3226C27.8358 39.411 27.731 39.481 27.6156 39.5288C27.5002 39.5766 27.3765 39.6012 27.2516 39.6012C27.1266 39.6012 27.003 39.5766 26.8876 39.5288C26.7721 39.481 26.6673 39.411 26.579 39.3226C26.4906 39.2343 26.4206 39.1295 26.3728 39.0141C26.325 38.8987 26.3004 38.775 26.3004 38.65C26.3004 38.5251 26.325 38.4014 26.3728 38.286C26.4206 38.1706 26.4906 38.0658 26.579 37.9774L30.6583 33.9L26.579 29.8226C26.4906 29.7343 26.4206 29.6295 26.3728 29.5141C26.325 29.3987 26.3004 29.275 26.3004 29.15C26.3004 29.0251 26.325 28.9014 26.3728 28.786C26.4206 28.6706 26.4906 28.5658 26.579 28.4774C26.7573 28.2991 26.9993 28.1988 27.2516 28.1988C27.3765 28.1988 27.5002 28.2235 27.6156 28.2713C27.731 28.3191 27.8358 28.3891 27.9242 28.4774L32.0016 32.5567L36.079 28.4774C36.1672 28.389 36.272 28.3188 36.3875 28.2709C36.5029 28.223 36.6266 28.1984 36.7516 28.1984C36.8765 28.1984 37.0002 28.223 37.1157 28.2709C37.2311 28.3188 37.3359 28.389 37.4242 28.4774Z" fill="white"/>
</svg>
