<svg width="64" height="64" viewBox="0 0 64 64" fill="none" xmlns="http://www.w3.org/2000/svg">
<circle cx="32" cy="32" r="32" fill="#2E86A1"/>
<path d="M45.4392 31.3743C45.4797 31.7635 45.5 32.1708 45.5 32.6005C45.5 35.5188 44.483 37.4808 43.4975 38.7093C43.0996 39.2081 42.6442 39.6582 42.1408 40.0503C41.9706 40.1814 41.7933 40.3031 41.6097 40.4148L41.5895 40.426C41.4111 40.5226 41.2622 40.6655 41.1584 40.8398C41.0546 41.0141 40.9999 41.2132 41 41.416V44.3748C41 44.6731 40.8815 44.9593 40.6705 45.1703C40.4595 45.3812 40.1734 45.4998 39.875 45.4998H38.75C38.75 44.903 38.5129 44.3307 38.091 43.9088C37.669 43.4868 37.0967 43.2498 36.5 43.2498H32C31.4033 43.2498 30.831 43.4868 30.409 43.9088C29.9871 44.3307 29.75 44.903 29.75 45.4998H28.625C28.3266 45.4998 28.0405 45.3812 27.8295 45.1703C27.6185 44.9593 27.5 44.6731 27.5 44.3748V43.018C27.5003 42.7389 27.3968 42.4697 27.2097 42.2626C27.0226 42.0556 26.7652 41.9254 26.4875 41.8975C26.131 41.8201 25.7817 41.7125 25.4435 41.5758C24.5463 41.2138 23.7325 40.6725 23.0517 39.985C22.055 38.9725 21.4453 37.6405 21.1168 36.7158C20.795 35.7955 20.057 34.963 19.0017 34.666C18.8573 34.6249 18.7303 34.5379 18.6397 34.4182C18.5492 34.2984 18.5001 34.1524 18.5 34.0023V32.2158C18.4999 32.074 18.5459 31.9361 18.6312 31.8228C18.7164 31.7095 18.8362 31.6271 18.9725 31.588C20.0638 31.2753 20.7927 30.3933 21.101 29.4618C21.353 28.6968 21.7985 27.7158 22.523 26.98C23.353 26.1514 24.312 25.4629 25.3625 24.9415C25.4503 24.8965 25.52 24.865 25.565 24.8448L25.61 24.8223L25.619 24.82C25.8215 24.7332 25.9941 24.5889 26.1152 24.4049C26.2364 24.2209 26.3009 24.0053 26.3007 23.785V20.0185C26.8012 20.4454 27.3272 20.8414 27.8757 21.2043C28.589 21.6723 29.4215 22.1155 30.2923 22.3518C30.5487 21.6138 30.8997 20.9118 31.3363 20.2638H31.3228C30.695 20.1985 29.9278 19.8588 29.1065 19.321C28.3539 18.815 27.6463 18.2452 26.9915 17.6178C26.7468 17.3883 26.441 17.2343 26.1109 17.1744C25.7808 17.1146 25.4405 17.1513 25.1307 17.2803C24.8131 17.4062 24.5404 17.6243 24.3479 17.9067C24.1554 18.189 24.0519 18.5226 24.0507 18.8643V23.0875C22.9036 23.7059 21.8505 24.4847 20.9232 25.4005C19.85 26.485 19.2673 27.8395 18.9657 28.7553C18.8398 29.131 18.5877 29.3583 18.3537 29.4235C17.7477 29.597 17.2145 29.9631 16.835 30.4665C16.4554 30.9698 16.2501 31.5831 16.25 32.2135V34.0023C16.25 35.3185 17.1252 36.4728 18.3898 36.8305C18.5336 36.8806 18.6637 36.964 18.7692 37.0739C18.8748 37.1837 18.9529 37.317 18.9972 37.4628C19.3707 38.5248 20.1178 40.2145 21.4498 41.5645C22.5102 42.6364 23.8139 43.4361 25.25 43.8955V44.3748C25.25 45.2699 25.6056 46.1283 26.2385 46.7613C26.8714 47.3942 27.7299 47.7498 28.625 47.7498H29.75C30.3467 47.7498 30.919 47.5127 31.341 47.0908C31.7629 46.6688 32 46.0965 32 45.4998H36.5C36.5 46.0965 36.7371 46.6688 37.159 47.0908C37.581 47.5127 38.1533 47.7498 38.75 47.7498H39.875C40.7701 47.7498 41.6286 47.3942 42.2615 46.7613C42.8944 46.1283 43.25 45.2699 43.25 44.3748V42.028C44 41.4829 44.6735 40.8397 45.2525 40.1155C46.517 38.5405 47.75 36.0925 47.75 32.6005C47.75 31.138 47.543 29.8285 47.1425 28.6585C46.7414 29.6582 46.1646 30.5779 45.4392 31.3743ZM45.0298 22.7185C45.5922 24.0758 45.6966 25.5795 45.3271 27.0015C44.9576 28.4235 44.1343 29.6862 42.9822 30.598C42.044 31.3383 40.7593 31.282 39.6567 30.823L34.2792 28.5978C33.1767 28.141 32.2272 27.2725 32.0877 26.0868C31.9009 24.4695 32.3047 22.8392 33.2248 21.496C34.1448 20.1529 35.5192 19.1874 37.0947 18.7773C38.6703 18.3673 40.3409 18.5403 41.799 19.2645C43.2571 19.9887 44.4045 21.2153 45.0298 22.7185ZM41.5872 28.8318C42.2031 28.3451 42.681 27.706 42.9736 26.9777C43.2662 26.2494 43.3633 25.4572 43.2553 24.6798C43.1473 23.9024 42.838 23.1667 42.3579 22.5457C41.8779 21.9247 41.2439 21.4401 40.5187 21.1397C39.7936 20.8394 39.0025 20.7338 38.224 20.8335C37.4455 20.9332 36.7065 21.2347 36.0805 21.7081C35.4544 22.1815 34.963 22.8103 34.6549 23.5322C34.3468 24.2541 34.2329 25.044 34.3242 25.8235C34.3288 25.8685 34.3468 25.9518 34.4727 26.0845C34.6634 26.2736 34.8908 26.4214 35.141 26.5188L40.5185 28.7463C40.7641 28.8559 41.0303 28.9119 41.2993 28.9105C41.4792 28.906 41.5535 28.8588 41.5872 28.8318ZM26.9375 30.8748C27.3851 30.8748 27.8143 30.697 28.1307 30.3805C28.4472 30.064 28.625 29.6348 28.625 29.1873C28.625 28.7397 28.4472 28.3105 28.1307 27.994C27.8143 27.6776 27.3851 27.4998 26.9375 27.4998C26.4899 27.4998 26.0607 27.6776 25.7443 27.994C25.4278 28.3105 25.25 28.7397 25.25 29.1873C25.25 29.6348 25.4278 30.064 25.7443 30.3805C26.0607 30.697 26.4899 30.8748 26.9375 30.8748Z" fill="white"/>
</svg>
