<svg width="64" height="64" viewBox="0 0 64 64" fill="none" xmlns="http://www.w3.org/2000/svg">
<circle cx="32" cy="32" r="32" fill="#2E86A1"/>
<path fill-rule="evenodd" clip-rule="evenodd" d="M25.3307 24.2254C25.0115 24.2254 24.7091 24.2498 24.4225 24.2971C24.4122 24.2988 24.4019 24.3003 24.3915 24.3017C21.6017 24.6771 19.6641 26.8881 19.6641 30.4266V37.5737C19.6641 39.5358 20.2727 41.0848 21.2472 42.1296C22.2118 43.1637 23.5986 43.7749 25.3307 43.7749H38.6641C40.3962 43.7749 41.783 43.1637 42.7476 42.1296C43.7221 41.0848 44.3307 39.5358 44.3307 37.5737V30.4266C44.3307 26.8642 42.3593 24.641 39.5334 24.2887C39.515 24.2864 39.4967 24.2837 39.4785 24.2804C39.2486 24.2393 38.9872 24.2254 38.6641 24.2254H25.3307ZM24.0945 22.4308C24.4963 22.3654 24.9087 22.3335 25.3307 22.3335H38.6641C39.0257 22.3335 39.4209 22.3474 39.8214 22.4164C43.8597 22.9327 46.3307 26.1651 46.3307 30.4266V37.5737C46.3307 39.9 45.606 41.9246 44.2472 43.3813C42.8785 44.8487 40.9319 45.6668 38.6641 45.6668H25.3307C23.0629 45.6668 21.1163 44.8487 19.7476 43.3813C18.3888 41.9246 17.6641 39.9 17.6641 37.5737V30.4266C17.6641 26.1944 20.0935 22.9764 24.0945 22.4308Z" fill="white"/>
<path fill-rule="evenodd" clip-rule="evenodd" d="M24 38.3335C23.4477 38.3335 23 37.8858 23 37.3335L23 30.6668C23 30.1145 23.4477 29.6668 24 29.6668C24.5523 29.6668 25 30.1145 25 30.6668L25 37.3335C25 37.8858 24.5523 38.3335 24 38.3335Z" fill="white"/>
<path fill-rule="evenodd" clip-rule="evenodd" d="M19.4801 25.417C19.1631 22.5557 21.0918 19.8884 23.9272 19.5742L37.0533 18.12C39.8887 17.8058 42.3545 19.9862 42.6715 22.8475L42.7904 23.9203L40.8025 24.1405L40.6837 23.0677C40.4755 21.1891 38.8992 19.9277 37.2735 20.1078L24.1475 21.5621C22.5217 21.7422 21.2598 23.3181 21.4679 25.1967L19.4801 25.417Z" fill="white"/>
<path fill-rule="evenodd" clip-rule="evenodd" d="M36.332 34.0002C36.332 31.9751 37.9737 30.3335 39.9987 30.3335H44.1892C45.3726 30.3335 46.332 31.2929 46.332 32.4764V35.524C46.332 36.7074 45.3726 37.6668 44.1892 37.6668H39.9987C37.9737 37.6668 36.332 36.0252 36.332 34.0002ZM38.332 34.0002C38.332 34.9206 39.0782 35.6668 39.9987 35.6668H44.1892C44.2681 35.6668 44.332 35.6029 44.332 35.524V32.4764C44.332 32.3975 44.2681 32.3335 44.1892 32.3335H39.9987C39.0782 32.3335 38.332 33.0797 38.332 34.0002Z" fill="white"/>
</svg>
