<svg width="64" height="64" viewBox="0 0 64 64" fill="none" xmlns="http://www.w3.org/2000/svg">
<circle cx="32" cy="32" r="32" fill="#2E86A1"/>
<path d="M45.1184 24.164C45.0539 24.0047 44.9518 23.8634 44.8208 23.7523C44.6897 23.6411 44.5337 23.5634 44.366 23.5258C44.1983 23.4882 44.024 23.4918 43.858 23.5363C43.6921 23.5809 43.5394 23.665 43.4131 23.7815L38.0607 28.7208L35.7724 28.2294L35.281 25.941L40.2203 20.5887C40.3368 20.4624 40.4209 20.3097 40.4654 20.1437C40.51 19.9777 40.5136 19.8034 40.476 19.6358C40.4384 19.4681 40.3607 19.312 40.2495 19.181C40.1383 19.05 39.997 18.9478 39.8378 18.8834C38.386 18.2961 36.8123 18.0744 35.2548 18.2377C33.6973 18.4009 32.2038 18.9442 30.9054 19.8198C29.6071 20.6953 28.5436 21.8763 27.8084 23.2591C27.0733 24.6418 26.689 26.1839 26.6893 27.7499C26.6876 29.0723 26.9589 30.3808 27.4862 31.5935L19.4895 38.5077C19.4696 38.5237 19.451 38.5423 19.4324 38.5595C18.6353 39.3567 18.1875 40.4378 18.1875 41.5651C18.1875 42.1233 18.2974 42.676 18.511 43.1917C18.7247 43.7074 19.0377 44.1759 19.4324 44.5706C19.8271 44.9653 20.2957 45.2784 20.8114 45.492C21.3271 45.7056 21.8798 45.8156 22.438 45.8156C23.5653 45.8156 24.6464 45.3678 25.4435 44.5706C25.4608 44.5534 25.4794 44.5335 25.4953 44.5149L32.4082 36.5156C33.8644 37.1548 35.457 37.4207 37.0419 37.2893C38.6268 37.1579 40.1539 36.6333 41.4849 35.763C42.816 34.8927 43.9089 33.7042 44.6649 32.305C45.4208 30.9059 45.8159 29.3403 45.8143 27.7499C45.8164 26.5209 45.58 25.3031 45.1184 24.164ZM36.2518 35.1874C34.9942 35.1857 33.7574 34.8659 32.6566 34.2577C32.4433 34.1399 32.196 34.099 31.9562 34.1418C31.7163 34.1846 31.4984 34.3085 31.3391 34.4928L23.9149 43.0911C23.5131 43.4728 22.9781 43.6824 22.424 43.6754C21.8699 43.6683 21.3405 43.445 20.9486 43.0531C20.5568 42.6613 20.3335 42.1319 20.3264 41.5777C20.3193 41.0236 20.5289 40.4886 20.9106 40.0869L29.5023 32.664C29.6869 32.5046 29.811 32.2865 29.8539 32.0463C29.8967 31.8061 29.8555 31.5586 29.7374 31.3452C29.0601 30.1202 28.7422 28.7289 28.8203 27.3313C28.8985 25.9337 29.3694 24.5865 30.179 23.4446C30.9887 22.3027 32.1041 21.4125 33.3971 20.8763C34.6901 20.3401 36.1082 20.1796 37.4883 20.4134L33.3445 24.9038C33.2293 25.0288 33.1457 25.1798 33.1008 25.3439C33.056 25.508 33.0512 25.6804 33.0869 25.8467L33.8386 29.3437C33.8816 29.5437 33.9814 29.727 34.1261 29.8717C34.2707 30.0163 34.4541 30.1162 34.6541 30.1592L38.1537 30.9109C38.32 30.9466 38.4925 30.9418 38.6566 30.8969C38.8207 30.8521 38.9716 30.7685 39.0967 30.6532L43.587 26.5095C43.7661 27.576 43.7106 28.6687 43.4245 29.7115C43.1385 30.7544 42.6287 31.7225 41.9305 32.5484C41.2324 33.3743 40.3628 34.0382 39.3821 34.4939C38.4014 34.9497 37.3332 35.1863 36.2518 35.1874Z" fill="white"/>
</svg>
