<svg width="64" height="64" viewBox="0 0 64 64" fill="none" xmlns="http://www.w3.org/2000/svg">
<circle cx="32" cy="32" r="32" fill="#2E86A1"/>
<path d="M40.668 27.3337V40.667M40.668 40.667V45.3337H23.3346V40.667M40.668 40.667H45.3346V27.3337C45.3346 25.3337 44.0013 23.0003 42.0013 21.3337C40.0013 19.667 37.3346 18.667 37.3346 18.667M23.3346 40.667H18.668V27.3337C18.668 25.3337 20.0013 23.0003 22.0013 21.3337C24.0013 19.667 26.668 18.667 26.668 18.667M23.3346 40.667V27.3337M26.668 18.667H37.3346M26.668 18.667L32.0013 27.3337M37.3346 18.667L32.0013 27.3337M32.0013 27.3337V45.3337" stroke="white" stroke-width="2" stroke-linecap="round" stroke-linejoin="round"/>
</svg>
