<svg width="64" height="64" viewBox="0 0 64 64" fill="none" xmlns="http://www.w3.org/2000/svg">
<circle cx="32" cy="32" r="32" fill="#2E86A1"/>
<path d="M15.1232 46.625H48.8732V48.875H15.1232V46.625ZM46.0387 24.6991C44.3943 24.241 42.646 24.2735 41.1163 24.7905L41.0534 24.8116L36.4761 26.987L23.118 21.6765C22.5349 21.4422 21.8977 21.3764 21.279 21.4865C20.6603 21.5967 20.0849 21.8784 19.6185 22.2996L17.8302 23.9026C17.6415 24.0717 17.4934 24.2811 17.3967 24.5154C17.3001 24.7496 17.2574 25.0026 17.2719 25.2555C17.2864 25.5085 17.3577 25.7549 17.4804 25.9766C17.6032 26.1982 17.7743 26.3894 17.981 26.5359L26.2615 32.404L23.0853 34.0678L20.5699 31.7695C20.0889 31.331 19.4915 31.0406 18.8496 30.9333C18.2076 30.8261 17.5483 30.9065 16.9509 31.1649L15.5829 31.7579C15.3691 31.8506 15.1768 31.9865 15.0182 32.1572C14.8595 32.3278 14.7379 32.5294 14.661 32.7494C14.5841 32.9694 14.5535 33.2029 14.5713 33.4352C14.5891 33.6675 14.6549 33.8937 14.7644 34.0993L19.8846 43.72L47.7693 29.9757C49.4389 29.1898 49.6425 27.9335 49.2753 27.0185C48.8683 26.004 47.6885 25.1586 46.0387 24.6991ZM46.8051 27.9428L46.7947 27.9477L20.8462 40.7376L17.0369 33.5797L17.8455 33.2291C18.0447 33.1429 18.2644 33.1161 18.4784 33.1519C18.6924 33.1877 18.8916 33.2845 19.0519 33.4307L22.7317 36.7929L30.5596 32.6925L19.8567 25.1076L21.1203 23.975C21.2758 23.8346 21.4676 23.7407 21.6738 23.704C21.88 23.6673 22.0924 23.6892 22.2868 23.7673L36.5562 29.4402L41.8965 26.9022C42.9832 26.55 44.2775 26.5391 45.4586 26.8732C46.4314 27.1484 46.948 27.5482 47.1231 27.7579C47.0241 27.8309 46.9176 27.8929 46.8053 27.943L46.8051 27.9428Z" fill="white"/>
</svg>
