<svg width="64" height="64" viewBox="0 0 64 64" fill="none" xmlns="http://www.w3.org/2000/svg">
<circle cx="32" cy="32" r="32" fill="#207754"/>
<g clip-path="url(#clip0_134_29040)">
<path d="M35.2187 18.6667C36.5744 18.668 37.8743 19.2071 38.8329 20.1658C39.7916 21.1244 40.3307 22.4243 40.332 23.78C40.332 24.222 40.5076 24.646 40.8202 24.9585C41.1327 25.2711 41.5567 25.4467 41.9987 25.4467C42.4407 25.4467 42.8647 25.2711 43.1772 24.9585C43.4898 24.646 43.6654 24.222 43.6654 23.78V23.6667C43.6654 23.635 43.6654 23.6067 43.6654 23.575C43.6097 21.3712 42.6956 19.2763 41.1178 17.7368C39.5399 16.1972 37.4232 15.3348 35.2187 15.3333H33.6654V13.6667C33.6654 13.2246 33.4898 12.8007 33.1772 12.4882C32.8646 12.1756 32.4407 12 31.9987 12C31.5567 12 31.1327 12.1756 30.8202 12.4882C30.5076 12.8007 30.332 13.2246 30.332 13.6667V15.3333H28.7787C26.7742 15.3355 24.8358 16.0504 23.31 17.3503C21.7842 18.6502 20.7704 20.4504 20.4498 22.429C20.1292 24.4077 20.5227 26.4359 21.56 28.1511C22.5973 29.8663 24.2108 31.1567 26.112 31.7917L30.332 33.2V45.3333H28.7787C27.423 45.332 26.1231 44.7929 25.1645 43.8342C24.2058 42.8756 23.6667 41.5757 23.6654 40.22C23.6654 39.778 23.4898 39.3541 23.1772 39.0415C22.8646 38.7289 22.4407 38.5533 21.9987 38.5533C21.5567 38.5533 21.1327 38.7289 20.8202 39.0415C20.5076 39.3541 20.332 39.778 20.332 40.22V40.3333C20.332 40.365 20.332 40.3933 20.332 40.425C20.3877 42.6288 21.3018 44.7237 22.8796 46.2632C24.4575 47.8028 26.5742 48.6652 28.7787 48.6667H30.332V50.3333C30.332 50.7754 30.5076 51.1993 30.8202 51.5119C31.1327 51.8244 31.5567 52 31.9987 52C32.4407 52 32.8646 51.8244 33.1772 51.5119C33.4898 51.1993 33.6654 50.7754 33.6654 50.3333V48.6667H35.2187C37.2232 48.6645 39.1616 47.9496 40.6874 46.6497C42.2132 45.3498 43.227 43.5496 43.5476 41.571C43.8682 39.5923 43.4747 37.5641 42.4374 35.8489C41.4001 34.1337 39.7866 32.8433 37.8854 32.2083L33.6654 30.8V18.6667H35.2187ZM36.8354 35.3683C37.9877 35.7519 38.966 36.5331 39.5949 37.5721C40.2238 38.6111 40.4624 39.84 40.2679 41.0389C40.0734 42.2377 39.4586 43.3282 38.5334 44.1151C37.6083 44.9019 36.4332 45.3338 35.2187 45.3333H33.6654V34.3117L36.8354 35.3683ZM30.332 29.6883L27.1654 28.6317C26.0133 28.2482 25.0352 27.4673 24.4063 26.4286C23.7773 25.39 23.5385 24.1614 23.7325 22.9628C23.9266 21.7642 24.5409 20.6737 25.4654 19.8866C26.39 19.0994 27.5645 18.667 28.7787 18.6667H30.332V29.6883Z" fill="white"/>
</g>
<defs>
<clipPath id="clip0_134_29040">
<rect width="40" height="40" fill="white" transform="translate(12 12)"/>
</clipPath>
</defs>
</svg>
