<svg width="32" height="32" viewBox="0 0 32 32" fill="none" xmlns="http://www.w3.org/2000/svg">
<path d="M13.9 9.65664C13.9 11.3191 12.7688 12.0066 12.0188 12.4566C11.6813 12.6629 11.3375 12.8691 11.3375 13.0254V13.4691C11.3375 13.7441 11.1125 13.9691 10.8375 13.9691C10.5625 13.9691 10.3375 13.7441 10.3375 13.4691V13.0254C10.3375 12.3004 10.9563 11.9316 11.5063 11.6004C12.225 11.1629 12.9063 10.7566 12.9063 9.65664C12.9063 8.51914 11.9813 7.58789 10.8375 7.58789C9.70005 7.58789 8.7688 8.51289 8.7688 9.65664C8.7688 9.93164 8.5438 10.1566 8.2688 10.1566C7.9938 10.1566 7.7688 9.93164 7.7688 9.65664C7.7688 7.96289 9.1438 6.58789 10.8375 6.58789C12.5188 6.58789 13.9 7.96289 13.9 9.65664Z" fill="black" fill-opacity="0.5"/>
<path d="M11.3625 15.2188C11.3625 15.5125 11.125 15.75 10.8313 15.75C10.5375 15.75 10.3 15.5125 10.3 15.2188C10.3 14.925 10.5375 14.6875 10.8313 14.6875C11.125 14.6875 11.3625 14.9313 11.3625 15.2188Z" fill="black" fill-opacity="0.5"/>
<path d="M25.625 24.6064C25.625 24.8814 25.4 25.1064 25.125 25.1064H16.125C15.85 25.1064 15.625 24.8814 15.625 24.6064C15.625 24.3314 15.85 24.1064 16.125 24.1064H25.125C25.4 24.1064 25.625 24.3252 25.625 24.6064Z" fill="black" fill-opacity="0.5"/>
<path d="M25.625 20.625C25.625 20.9 25.4 21.125 25.125 21.125H16.125C15.85 21.125 15.625 20.9 15.625 20.625C15.625 20.35 15.85 20.125 16.125 20.125H25.125C25.4 20.125 25.625 20.35 25.625 20.625Z" fill="black" fill-opacity="0.5"/>
<path d="M29.4562 25.0438C30.1375 23.6813 30.5 22.1562 30.5 20.625C30.5 18.0125 29.4875 15.5438 27.65 13.6875C25.925 11.9438 23.6625 10.9188 21.2313 10.7688C20.9188 5.60625 16.6188 1.5 11.375 1.5C5.93125 1.5 1.5 5.93125 1.5 11.375C1.5 12.9062 1.8625 14.4312 2.54375 15.7937L1.5125 20.65C1.475 20.8187 1.53125 20.9875 1.65 21.1063C1.74375 21.2 1.875 21.25 2.00625 21.25C2.0375 21.25 2.075 21.2437 2.1125 21.2375L6.96875 20.2062C8.15 20.8 9.45625 21.1438 10.7812 21.2313C10.925 23.6625 11.9562 25.925 13.7 27.65C15.5625 29.4875 18.025 30.5 20.6375 30.5C22.1688 30.5 23.6937 30.1375 25.0562 29.4562L29.9125 30.4875C29.9438 30.4937 29.9812 30.5 30.0187 30.5C30.15 30.5 30.275 30.45 30.375 30.3563C30.4937 30.2375 30.5438 30.0625 30.5125 29.9L29.4562 25.0438ZM7.2625 19.2375C7.1875 19.2 7.1125 19.1812 7.03125 19.1812C7 19.1812 6.9625 19.1875 6.925 19.1938L2.65 20.1L3.55625 15.825C3.58125 15.7125 3.5625 15.5938 3.5125 15.4875C2.85 14.2313 2.5 12.8062 2.5 11.375C2.5 6.48125 6.48125 2.5 11.375 2.5C16.2688 2.5 20.25 6.48125 20.25 11.375C20.25 16.2688 16.2688 20.25 11.375 20.25C9.94375 20.25 8.51875 19.9 7.2625 19.2375ZM25.0938 28.4438C24.975 28.4125 24.85 28.4312 24.7437 28.4875C23.4812 29.15 22.0562 29.5 20.625 29.5C15.9625 29.5 12.0938 25.8375 11.7688 21.2437C14.9 21.1187 17.6563 19.5312 19.3813 17.15H25.125C25.4 17.15 25.625 16.925 25.625 16.65C25.625 16.375 25.4 16.15 25.125 16.15H20.0187C20.7437 14.8437 21.1812 13.3562 21.2437 11.775C25.8437 12.0937 29.5 15.9625 29.5 20.625C29.5 22.0562 29.15 23.4812 28.4875 24.7375C28.4312 24.85 28.4188 24.975 28.4438 25.0875L29.35 29.35L25.0938 28.4438Z" fill="black" fill-opacity="0.5"/>
</svg>
