<svg width="25" height="25" viewBox="0 0 25 25" fill="none" xmlns="http://www.w3.org/2000/svg">
<g id="fi_809522" clip-path="url(#clip0_125_2395)">
<g id="Group">
<g id="Group_2">
<path id="Vector" d="M12.5 0C11.1193 0 10 1.11927 10 2.5C10 3.88073 11.1193 5 12.5 5C13.8802 4.99865 14.9986 3.88016 15 2.5C15 1.11927 13.8807 0 12.5 0ZM12.5 4.16667C11.5795 4.16667 10.8333 3.42047 10.8333 2.5C10.8333 1.57953 11.5795 0.833333 12.5 0.833333C13.4205 0.833333 14.1667 1.57953 14.1667 2.5C14.1667 3.42047 13.4205 4.16667 12.5 4.16667Z" fill="black"/>
</g>
</g>
<g id="Group_3">
<g id="Group_4">
<path id="Vector_2" d="M14.1667 5.41663H14.0683L13.9804 5.46038C13.0481 5.92459 11.9519 5.92459 11.0196 5.46038L10.9317 5.41663H10.8333C9.68333 5.41798 8.75135 6.34996 8.75 7.49996V9.99996C8.75 10.6903 9.30964 11.25 10 11.25H15C15.6904 11.25 16.25 10.6903 16.25 9.99996V7.49996C16.2486 6.34996 15.3167 5.41798 14.1667 5.41663ZM15.4167 9.99996C15.4167 10.2301 15.2301 10.4166 15 10.4166H10C9.7699 10.4166 9.58333 10.2301 9.58333 9.99996V7.49996C9.58344 6.84413 10.0904 6.29986 10.7446 6.25329C11.8579 6.76996 13.1422 6.76996 14.2554 6.25329C14.9096 6.29986 15.4166 6.84413 15.4167 7.49996V9.99996Z" fill="black"/>
</g>
</g>
<g id="Group_5">
<g id="Group_6">
<path id="Vector_3" d="M21.25 13.75C19.8693 13.75 18.75 14.8693 18.75 16.25C18.75 17.6307 19.8693 18.75 21.25 18.75C22.6307 18.75 23.75 17.6307 23.75 16.25C23.7486 14.8698 22.6302 13.7514 21.25 13.75ZM21.25 17.9167C20.3295 17.9167 19.5833 17.1705 19.5833 16.25C19.5833 15.3295 20.3295 14.5833 21.25 14.5833C22.1705 14.5833 22.9167 15.3295 22.9167 16.25C22.9167 17.1705 22.1705 17.9167 21.25 17.9167Z" fill="black"/>
</g>
</g>
<g id="Group_7">
<g id="Group_8">
<path id="Vector_4" d="M22.9167 19.1666H22.8183L22.7304 19.2083C21.7981 19.6725 20.7019 19.6725 19.7696 19.2083L19.6817 19.1666H19.5833C18.4333 19.168 17.5014 20.1 17.5 21.25V23.75C17.5 24.4403 18.0596 25 18.75 25H23.75C24.4404 25 25 24.4403 25 23.75V21.25C24.9986 20.1 24.0667 19.168 22.9167 19.1666ZM24.1667 23.75C24.1667 23.9801 23.9801 24.1666 23.75 24.1666H18.75C18.5199 24.1666 18.3333 23.9801 18.3333 23.75V21.25C18.3334 20.5941 18.8404 20.0499 19.4946 20.0033C20.6079 20.52 21.8921 20.52 23.0054 20.0033C23.6596 20.0499 24.1666 20.5941 24.1667 21.25V23.75Z" fill="black"/>
</g>
</g>
<g id="Group_9">
<g id="Group_10">
<path id="Vector_5" d="M3.75 13.75C2.36927 13.75 1.25 14.8693 1.25 16.25C1.25 17.6307 2.36927 18.75 3.75 18.75C5.13073 18.75 6.25 17.6307 6.25 16.25C6.24865 14.8698 5.13016 13.7514 3.75 13.75ZM3.75 17.9167C2.82953 17.9167 2.08333 17.1705 2.08333 16.25C2.08333 15.3295 2.82953 14.5833 3.75 14.5833C4.67047 14.5833 5.41667 15.3295 5.41667 16.25C5.41667 17.1705 4.67047 17.9167 3.75 17.9167Z" fill="black"/>
</g>
</g>
<g id="Group_11">
<g id="Group_12">
<path id="Vector_6" d="M5.41667 19.1666H5.31833L5.23042 19.2083C4.29807 19.6725 3.20193 19.6725 2.26958 19.2083L2.18167 19.1666H2.08333C0.933333 19.168 0.00135417 20.1 0 21.25V23.75C0 24.4403 0.559635 25 1.25 25H6.25C6.94036 25 7.5 24.4403 7.5 23.75V21.25C7.49865 20.1 6.56667 19.168 5.41667 19.1666ZM6.66667 23.75C6.66667 23.9801 6.4801 24.1666 6.25 24.1666H1.25C1.0199 24.1666 0.833333 23.9801 0.833333 23.75V21.25C0.833437 20.5941 1.34036 20.0499 1.99458 20.0033C3.10786 20.52 4.39214 20.52 5.50542 20.0033C6.15964 20.0499 6.66656 20.5941 6.66667 21.25V23.75Z" fill="black"/>
</g>
</g>
<g id="Group_13">
<g id="Group_14">
<path id="Vector_7" d="M16.6338 21.1602C16.6336 21.1597 16.6333 21.1592 16.6331 21.1587C16.5429 20.947 16.2982 20.8485 16.0865 20.9387C14.205 21.7272 12.1154 21.8711 10.1436 21.3479L10.5336 21.2333C10.7545 21.1686 10.8812 20.9371 10.8165 20.7162C10.7518 20.4953 10.5204 20.3686 10.2994 20.4333L8.63277 20.922C8.62652 20.922 8.62193 20.9291 8.6161 20.9312C8.57751 20.9456 8.54126 20.9657 8.5086 20.9908C8.49412 20.9986 8.48022 21.0073 8.46693 21.017C8.42298 21.0563 8.38813 21.1046 8.36485 21.1587C8.34225 21.2132 8.33147 21.2718 8.33319 21.3308C8.34334 21.3872 8.35725 21.4429 8.37485 21.4975C8.37735 21.5033 8.37485 21.51 8.37944 21.5158L9.21277 23.1104C9.31933 23.3145 9.57115 23.3936 9.77527 23.287C9.97938 23.1805 10.0585 22.9286 9.95193 22.7245L9.61277 22.0762C11.8531 22.7496 14.2583 22.6188 16.4124 21.7062C16.6242 21.6166 16.7234 21.3721 16.6338 21.1602Z" fill="black"/>
</g>
</g>
<g id="Group_15">
<g id="Group_16">
<path id="Vector_8" d="M23.6277 10.9555C23.465 10.7928 23.2013 10.7928 23.0385 10.9555L22.449 11.5451C22.104 7.89557 19.7869 4.72859 16.4131 3.29505C16.2014 3.20484 15.9567 3.30333 15.8665 3.51505C15.7763 3.72677 15.8747 3.97151 16.0865 4.06172C19.113 5.34802 21.2169 8.15906 21.5977 11.4255L21.1277 10.9555C20.9622 10.7956 20.6984 10.8002 20.5385 10.9657C20.3826 11.1271 20.3826 11.3831 20.5385 11.5446L21.7885 12.7946C21.951 12.9576 22.2149 12.9579 22.3778 12.7954C22.3781 12.7951 22.3783 12.7948 22.3785 12.7946L23.6285 11.5446C23.791 11.3817 23.7906 11.118 23.6277 10.9555Z" fill="black"/>
</g>
</g>
<g id="Group_17">
<g id="Group_18">
<path id="Vector_9" d="M9.15459 3.60787C9.15323 3.58355 9.14964 3.55943 9.14375 3.53579C9.14375 3.53204 9.13917 3.52954 9.1375 3.52537C9.13584 3.5212 9.1375 3.51829 9.1375 3.51495C9.12615 3.49469 9.11302 3.47542 9.09834 3.45745C9.08485 3.43303 9.06891 3.41001 9.05084 3.3887C9.0262 3.36688 8.99891 3.34829 8.96959 3.33329C8.95495 3.32084 8.93933 3.30954 8.92292 3.29954L7.25625 2.53829C7.04339 2.45089 6.79995 2.55261 6.71255 2.76547C6.6299 2.96678 6.7161 3.19782 6.91042 3.29579L7.77334 3.69037C4.52474 5.42896 2.49766 8.81537 2.5 12.5C2.5 12.7301 2.68656 12.9166 2.91667 12.9166C3.14677 12.9166 3.33334 12.7301 3.33334 12.5C3.33125 9.25553 5.04693 6.25245 7.84292 4.60662L7.54167 5.2362C7.44235 5.44334 7.52938 5.69178 7.73625 5.79162C7.79245 5.81907 7.85412 5.83334 7.91667 5.83329C8.07667 5.83308 8.2224 5.74126 8.29167 5.59704L9.125 3.85829C9.125 3.85412 9.125 3.84954 9.12834 3.84537C9.13917 3.81688 9.14672 3.78725 9.15084 3.75704C9.15797 3.73459 9.16328 3.71162 9.16667 3.68829C9.16526 3.66115 9.16125 3.63422 9.15459 3.60787Z" fill="black"/>
</g>
</g>
</g>
<defs>
<clipPath id="clip0_125_2395">
<rect width="25" height="25" fill="white"/>
</clipPath>
</defs>
</svg>
