<svg width="45" height="45" viewBox="0 0 45 45" fill="none" xmlns="http://www.w3.org/2000/svg">
<g id="fi_437522">
<g id="Group">
<g id="Group_2">
<path id="Vector" d="M13.878 16.3395C13.5952 16.1102 13.1802 16.1534 12.9508 16.4363C12.6845 16.7646 12.3314 16.9454 11.9565 16.9454C11.5815 16.9454 11.2285 16.7645 10.9622 16.4363C10.7329 16.1535 10.3177 16.1103 10.035 16.3395C9.75226 16.5688 9.70893 16.9839 9.93823 17.2667C10.4521 17.9004 11.1878 18.2638 11.9565 18.2638C12.7252 18.2638 13.4607 17.9004 13.9747 17.2667C14.204 16.9839 14.1607 16.5688 13.878 16.3395Z" fill="#FF6D6D"/>
</g>
</g>
<g id="Group_3">
<g id="Group_4">
<path id="Vector_2" d="M8.94336 12.4266C8.57932 12.4266 8.28418 12.7218 8.28418 13.0858V13.839C8.28418 14.203 8.57932 14.4981 8.94336 14.4981C9.30741 14.4981 9.60255 14.203 9.60255 13.839V13.0858C9.60255 12.7218 9.30741 12.4266 8.94336 12.4266Z" fill="#FF6D6D"/>
</g>
</g>
<g id="Group_5">
<g id="Group_6">
<path id="Vector_3" d="M14.9688 12.4266C14.6047 12.4266 14.3096 12.7218 14.3096 13.0858V13.839C14.3096 14.203 14.6046 14.4981 14.9688 14.4981C15.3328 14.4981 15.6279 14.203 15.6279 13.839V13.0858C15.6279 12.7218 15.3328 12.4266 14.9688 12.4266Z" fill="#FF6D6D"/>
</g>
</g>
<g id="Group_7">
<g id="Group_8">
<path id="Vector_4" d="M35.7187 20.1051C35.436 19.8758 35.0209 19.9191 34.7916 20.2019C34.5252 20.5302 34.1721 20.7111 33.7972 20.7111C33.4223 20.7111 33.0692 20.5302 32.8029 20.2019C32.5737 19.9192 32.1585 19.8758 31.8758 20.1051C31.593 20.3344 31.5498 20.7496 31.7791 21.0323C32.2929 21.6661 33.0286 22.0294 33.7972 22.0294C34.5659 22.0294 35.3015 21.666 35.8154 21.0323C36.0447 20.7496 36.0015 20.3344 35.7187 20.1051Z" fill="#FF6D6D"/>
</g>
</g>
<g id="Group_9">
<g id="Group_10">
<path id="Vector_5" d="M30.7842 16.1923C30.4201 16.1923 30.125 16.4874 30.125 16.8514V17.6046C30.125 17.9686 30.4201 18.2638 30.7842 18.2638C31.1482 18.2638 31.4434 17.9686 31.4434 17.6046V16.8514C31.4434 16.4874 31.1482 16.1923 30.7842 16.1923Z" fill="#FF6D6D"/>
</g>
</g>
<g id="Group_11">
<g id="Group_12">
<path id="Vector_6" d="M36.8096 16.1923C36.4455 16.1923 36.1504 16.4874 36.1504 16.8514V17.6046C36.1504 17.9686 36.4454 18.2638 36.8096 18.2638C37.1736 18.2638 37.4688 17.9686 37.4688 17.6046V16.8514C37.4688 16.4874 37.1736 16.1923 36.8096 16.1923Z" fill="#FF6D6D"/>
</g>
</g>
<g id="Group_13">
<g id="Group_14">
<path id="Vector_7" d="M43.1656 29.2277L38.0014 27.162C37.9735 27.1508 37.9476 27.1366 37.9214 27.1229C41.4883 26.3113 43.1776 24.9541 43.2525 24.8926C43.4309 24.7465 43.5199 24.5178 43.4873 24.2895C43.4798 24.2373 42.7408 19.0042 42.7408 13.8389C42.7408 8.90736 38.7286 4.89521 33.797 4.89521C28.8655 4.89521 24.8534 8.90727 24.8534 13.8389C24.8534 15.1902 24.7921 16.8429 24.6922 18.4074L23.2532 19.127L19.0291 17.015C19.017 17.009 19.0043 17.0046 18.9919 16.9993C19.1928 16.4137 19.3242 15.7962 19.3724 15.1554C20.256 14.8824 20.8998 14.0579 20.8998 13.0858C20.8998 12.4311 20.6073 11.8438 20.1467 11.4464V7.06059C20.1467 5.84901 19.5345 4.71539 18.5306 4.03423C18.1905 2.77036 17.0549 1.88257 15.7218 1.88257H9.69668C6.42625 1.88257 3.76552 4.5433 3.76552 7.81373V11.4463C3.30488 11.8436 3.01238 12.431 3.01238 13.0857C3.01238 14.0578 3.65618 14.8823 4.53975 15.1553C4.70622 17.3683 5.84669 19.3127 7.53122 20.5641V22.3861L2.07986 24.0215C0.835845 24.3947 0 25.5181 0 26.8169V34.1735C0 34.5376 0.295138 34.8327 0.659184 34.8327H0.753139V42.458C0.753139 42.8221 1.04828 43.1172 1.41232 43.1172C1.77637 43.1172 2.07151 42.8221 2.07151 42.458V34.8327H4.51884V42.458C4.51884 42.8221 4.81397 43.1172 5.17802 43.1172C5.54206 43.1172 5.8372 42.8221 5.8372 42.458V31.092C5.8372 30.5138 5.66766 29.9539 5.34703 29.473L4.22027 27.7829C4.01829 27.4799 3.60899 27.3982 3.3062 27.6C3.00324 27.8018 2.92141 28.2111 3.12339 28.5141L4.25015 30.2043C4.42593 30.468 4.51892 30.7749 4.51892 31.092V33.5143H1.41232H1.31837V26.8169C1.31837 26.1047 1.77663 25.4889 2.45884 25.2842L4.72178 24.6053C5.50981 27.9049 8.50259 30.3139 11.9563 30.3139C13.197 30.3139 14.402 30.0079 15.4811 29.4257C15.8754 29.9637 16.5115 30.3139 17.2282 30.3139H17.3221V30.4078C17.3221 32.6177 18.5378 34.5477 20.3347 35.5681V36.6432C20.3347 36.6837 20.3088 36.7195 20.2704 36.7324L17.8115 37.552C16.6178 37.9499 15.8158 39.0626 15.8158 40.3209V42.458C15.8158 42.8221 16.111 43.1172 16.475 43.1172C16.8391 43.1172 17.1342 42.8221 17.1342 42.458V40.3209C17.1342 39.631 17.5739 39.0209 18.2284 38.8028L18.9514 38.5617C19.908 39.9884 21.5169 40.8579 23.2532 40.8579C24.9913 40.8579 26.5987 39.9889 27.5551 38.5618L28.278 38.8028C28.9324 39.021 29.3722 39.631 29.3722 40.3209V42.458C29.3722 42.8221 29.6673 43.1172 30.0313 43.1172C30.3954 43.1172 30.6905 42.8221 30.6905 42.458V40.3209C30.6905 39.0626 29.8885 37.9499 28.6949 37.5521L26.2359 36.7325C26.1975 36.7196 26.1717 36.6839 26.1717 36.6433V35.5682C27.517 34.8042 28.5354 33.5301 28.9625 32.0102C30.2082 33.3137 31.948 34.0797 33.797 34.0797C36.716 34.0797 39.2772 32.1928 40.1595 29.4454L42.6757 30.4518C43.2868 30.6963 43.6816 31.2795 43.6816 31.9376V35.0207H43.5877H41.2343V34.1736C41.2343 33.8096 40.9392 33.5144 40.5751 33.5144C40.2111 33.5144 39.9159 33.8096 39.9159 34.1736V42.4581C39.9159 42.8222 40.2111 43.1173 40.5751 43.1173C40.9392 43.1173 41.2343 42.8222 41.2343 42.4581V36.3391H42.9285V42.4581C42.9285 42.8222 43.2236 43.1173 43.5877 43.1173C43.9517 43.1173 44.2469 42.8222 44.2469 42.4581V36.3391H44.3408C44.5156 36.3391 44.6832 36.2696 44.8069 36.146C44.9306 36.0224 45 35.8548 45 35.6799V31.9376C45.0003 30.7371 44.2802 29.6735 43.1656 29.2277ZM26.1719 13.8388C26.1719 9.63422 29.5926 6.21349 33.7972 6.21349C38.0018 6.21349 41.4225 9.63422 41.4225 13.8388C41.4225 18.2653 41.9555 22.7399 42.1288 24.0763C41.5381 24.4628 40.0256 25.3139 37.469 25.8732V24.8243C37.8191 24.6258 38.1543 24.3993 38.4695 24.1446C39.7666 23.0961 40.6832 21.6278 41.0503 20.01C41.1726 19.471 41.2347 18.9151 41.2347 18.3578C41.2347 14.632 38.5402 14.0971 35.9344 13.5797C34.2763 13.2506 32.5618 12.9102 31.1965 11.818C30.9987 11.6597 30.7276 11.6288 30.4992 11.7386C30.2708 11.8484 30.1256 12.0793 30.1256 12.3327C30.1256 12.3502 30.0968 14.0847 27.6123 14.7058C27.2591 14.7941 27.0444 15.152 27.1327 15.5053C27.2209 15.8585 27.5789 16.073 27.9321 15.9849C30.0116 15.465 30.8599 14.2984 31.2058 13.422C32.6353 14.2691 34.2366 14.5869 35.6776 14.873C38.4628 15.4259 39.9163 15.832 39.9163 18.3579C39.9163 18.8172 39.8652 19.2749 39.7646 19.7184C39.4627 21.0485 38.7085 22.2563 37.6407 23.1194C36.5421 24.0075 35.213 24.4768 33.7972 24.4768C32.5066 24.4768 31.2783 24.081 30.236 23.3329C29.8541 22.2906 29.2407 21.337 28.4313 20.5513V17.6047C28.4313 17.3762 28.313 17.164 28.1187 17.044C27.9243 16.9239 27.6818 16.9129 27.4773 17.0151L26.0541 17.7267C26.1321 16.3539 26.1719 15.0487 26.1719 13.8388ZM27.1129 18.6711V21.0567L24.7272 19.864L27.1129 18.6711ZM19.3936 18.6711L21.7792 19.864L19.3936 21.0567V18.6711ZM15.8158 25.889V26.515C15.3439 26.9226 15.0627 27.519 15.0627 28.1483C14.1238 28.703 13.0573 28.9955 11.9562 28.9955C9.08882 28.9955 6.6081 26.9777 5.9875 24.2256L7.61603 23.7371C8.01778 25.7663 9.81085 27.3013 11.9563 27.3013C13.6599 27.3013 15.1407 26.333 15.8798 24.9184C15.8375 25.2385 15.8158 25.5626 15.8158 25.889ZM8.84976 22.8754V21.3484C9.79564 21.7853 10.8479 22.0293 11.9563 22.0293C13.0646 22.0293 14.1169 21.7852 15.0628 21.3485V22.8763C15.0628 24.5892 13.6693 25.9828 11.9563 25.9828C10.2462 25.9828 8.85459 24.5938 8.84993 22.8848C8.84993 22.8816 8.84976 22.8784 8.84976 22.8754ZM11.9563 20.711C8.58213 20.711 5.8372 17.966 5.8372 14.592C5.8372 14.2279 5.54206 13.9328 5.17802 13.9328C4.71097 13.9328 4.33092 13.5528 4.33092 13.0857C4.33092 12.6186 4.71088 12.2386 5.17802 12.2386H6.6843C6.96801 12.2386 7.21991 12.0571 7.30964 11.7879L7.91469 9.97277C9.42949 9.93858 14.1254 9.72562 16.7698 8.40339C17.0954 8.24053 17.2275 7.84466 17.0646 7.51903C16.9018 7.19339 16.506 7.06138 16.1802 7.22424C13.343 8.6428 7.49597 8.66091 7.43726 8.66091C7.15355 8.661 6.90165 8.84249 6.812 9.1117L6.20916 10.9203H5.17802C5.14655 10.9203 5.11526 10.9214 5.08406 10.9227V7.81373C5.08406 5.27024 7.15337 3.20094 9.69685 3.20094H15.722C16.5091 3.20094 17.1704 3.76827 17.2946 4.5498C17.3262 4.74843 17.4467 4.92176 17.6218 5.02055C18.3661 5.44031 18.8285 6.22193 18.8285 7.0605V10.9225C18.7973 10.9211 18.7661 10.9202 18.7345 10.9202H17.9814C17.6173 10.9202 17.3222 11.2153 17.3222 11.5793C17.3222 11.9434 17.6173 12.2385 17.9814 12.2385H18.7345C19.2016 12.2385 19.5816 12.6185 19.5816 13.0856C19.5816 13.5528 19.2017 13.9327 18.7345 13.9327C18.3705 13.9327 18.0753 14.2278 18.0753 14.5919C18.0753 17.9659 15.3304 20.711 11.9563 20.711ZM16.3811 22.8765V20.5641C17.0368 20.0769 17.61 19.4851 18.0753 18.8126V20.5512C17.3371 21.2678 16.7616 22.124 16.3764 23.0598C16.379 22.9989 16.3811 22.9379 16.3811 22.8765ZM26.2397 38.1232C25.514 39.0098 24.4238 39.5394 23.2533 39.5394C22.0841 39.5394 20.9932 39.0095 20.2673 38.1232L20.6874 37.9831C21.265 37.7907 21.6531 37.2522 21.6531 36.6433V36.1179C22.1625 36.2609 22.6989 36.3391 23.2534 36.3391C23.8079 36.3391 24.3442 36.2609 24.8536 36.1179V36.6433C24.8535 37.2521 25.2415 37.7906 25.8193 37.9831L26.2397 38.1232ZM28.5253 28.9955C28.1613 28.9955 27.8662 29.2906 27.8662 29.6547V30.3101C27.8662 30.3158 27.8661 30.3215 27.8662 30.3272V30.4078C27.8661 32.9513 25.7968 35.0206 23.2533 35.0206C20.7098 35.0206 18.6406 32.9513 18.6406 30.4078V29.6547C18.6406 29.2906 18.3454 28.9955 17.9814 28.9955H17.2282C16.7612 28.9955 16.3812 28.6155 16.3812 28.1484C16.3812 27.8478 16.5402 27.5758 16.8066 27.4207C16.8661 27.3861 16.9179 27.3423 16.9627 27.2927C18.5922 27.2455 23.8744 26.9388 27.346 24.955C27.6621 24.7744 27.7719 24.3718 27.5913 24.0557C27.4107 23.7395 27.0079 23.6297 26.6919 23.8104C23.6507 25.5481 18.8719 25.8961 17.1343 25.9656V25.889C17.1343 24.663 17.5055 23.4757 18.1783 22.4747C18.2309 22.5581 18.3013 22.6305 18.388 22.684C18.4939 22.7494 18.614 22.7825 18.7345 22.7825C18.8352 22.7825 18.9362 22.7593 19.0293 22.7129L23.2534 20.6008L27.4774 22.7129C27.5705 22.7593 27.6715 22.7825 27.7722 22.7825C27.8928 22.7825 28.0129 22.7494 28.1187 22.684C28.2053 22.6305 28.2757 22.558 28.3284 22.4747C29.0011 23.4757 29.3723 24.663 29.3723 25.889V26.851C29.3723 27.0857 29.4971 27.3027 29.7 27.4207C29.9665 27.5759 30.1256 27.8478 30.1256 28.1484C30.1256 28.6154 29.7455 28.9955 29.2785 28.9955H28.5253ZM33.7972 32.7612C31.9722 32.7612 30.2791 31.8321 29.2935 30.3135C30.4806 30.3053 31.4438 29.3374 31.4438 28.1485C31.4438 27.5192 31.1627 26.9227 30.6907 26.5151V25.8891C30.6907 25.6237 30.6764 25.3599 30.6483 25.0985C31.6258 25.5567 32.693 25.795 33.7972 25.795C34.601 25.795 35.3959 25.6619 36.1506 25.4101V26.3755C36.1506 27.2661 36.6849 28.0553 37.5118 28.3861L38.9332 28.9546C38.252 31.2071 36.1716 32.7612 33.7972 32.7612Z" fill="#FF6D6D"/>
</g>
</g>
<g id="Group_15">
<g id="Group_16">
<path id="Vector_8" d="M25.1748 31.4021C24.8921 31.1728 24.477 31.2161 24.2477 31.4989C23.9813 31.8273 23.6282 32.0081 23.2534 32.0081C22.8785 32.0081 22.5254 31.8273 22.259 31.4989C22.0297 31.2162 21.6145 31.1728 21.3319 31.4021C21.0491 31.6314 21.0058 32.0465 21.2351 32.3293C21.7491 32.9629 22.4847 33.3264 23.2534 33.3264C24.0221 33.3264 24.7576 32.963 25.2716 32.3294C25.5008 32.0466 25.4575 31.6314 25.1748 31.4021Z" fill="#FF6D6D"/>
</g>
</g>
<g id="Group_17">
<g id="Group_18">
<path id="Vector_9" d="M21.0059 29.5637C21.3699 29.5637 21.665 29.2686 21.665 28.9045C21.665 28.5405 21.3699 28.2454 21.0059 28.2454C20.6418 28.2454 20.3467 28.5405 20.3467 28.9045C20.3467 29.2686 20.6418 29.5637 21.0059 29.5637Z" fill="#FF6D6D"/>
</g>
</g>
<g id="Group_19">
<g id="Group_20">
<path id="Vector_10" d="M25.4883 29.5637C25.8523 29.5637 26.1475 29.2686 26.1475 28.9045C26.1475 28.5405 25.8523 28.2454 25.4883 28.2454C25.1242 28.2454 24.8291 28.5405 24.8291 28.9045C24.8291 29.2686 25.1242 29.5637 25.4883 29.5637Z" fill="#FF6D6D"/>
</g>
</g>
</g>
</svg>
