<svg width="25" height="25" viewBox="0 0 25 25" fill="none" xmlns="http://www.w3.org/2000/svg">
<path fill-rule="evenodd" clip-rule="evenodd" d="M12.4852 22.2157C7.12182 22.2157 2.76953 17.8341 2.76953 12.4707C2.76953 7.1073 7.13647 2.74036 12.4852 2.74036C17.8487 2.74036 22.2156 7.1073 22.2156 12.4707C22.2156 17.8341 17.8487 22.2157 12.4852 22.2157ZM12.4852 3.45841C7.53213 3.45841 3.48759 7.50296 3.48759 12.4707C3.48759 17.4531 7.53213 21.4977 12.4852 21.4977C17.4677 21.4977 21.5122 17.4531 21.5122 12.4707C21.5122 7.50296 17.4677 3.45841 12.4852 3.45841Z" fill="black"/>
<path fill-rule="evenodd" clip-rule="evenodd" d="M15.6508 15.973C15.5775 15.973 15.4749 15.9291 15.4163 15.8704L12.2364 12.7198C12.1778 12.6612 12.1338 12.5586 12.1338 12.4707V6.66762C12.1338 6.46247 12.295 6.30127 12.5001 6.30127C12.7053 6.30127 12.8665 6.46247 12.8665 6.66762V12.3388L15.9146 15.3868C16.0611 15.5187 16.0611 15.7532 15.9146 15.8851C15.8413 15.9437 15.7387 15.973 15.6508 15.973Z" fill="black"/>
<path fill-rule="evenodd" clip-rule="evenodd" d="M12.5293 24.956C11.0199 24.956 9.53986 24.6923 8.11841 24.1647C7.9279 24.1061 7.82532 23.9009 7.91325 23.6958C7.97186 23.5053 8.17702 23.4027 8.38218 23.4906C9.71571 24.0035 11.1225 24.238 12.544 24.238C19.0358 24.238 24.3113 18.9625 24.3113 12.4707C24.3113 5.99355 19.0064 0.7034 12.5293 0.7034C9.43728 0.7034 6.50645 1.90504 4.27902 4.0592C4.13247 4.20574 3.91266 4.20574 3.76612 4.0592C3.61958 3.91266 3.61958 3.69285 3.76612 3.56096C6.14009 1.26026 9.24678 0 12.5293 0C19.4168 0 25 5.61254 25 12.4707C25 19.3581 19.3875 24.956 12.5293 24.956ZM7.18054 23.7397C7.12192 23.7397 7.07796 23.7104 7.01934 23.6958C6.56506 23.476 6.14009 23.2268 5.71512 22.9631C5.55393 22.8605 5.50996 22.6407 5.61254 22.4795C5.71512 22.3183 5.93494 22.2743 6.09613 22.3769C6.50645 22.6407 6.91676 22.8605 7.32708 23.0657C7.50293 23.1389 7.56155 23.3734 7.48828 23.5346C7.44431 23.6518 7.29777 23.7397 7.18054 23.7397ZM4.82122 22.1864C4.74795 22.1864 4.66002 22.1717 4.60141 22.1131C4.24971 21.82 3.88335 21.483 3.50234 21.0873C3.3558 20.9555 3.38511 20.721 3.517 20.5891C3.66354 20.4426 3.88335 20.4572 4.02989 20.6038C4.39625 20.9848 4.74795 21.2925 5.07034 21.5563C5.23154 21.6882 5.24619 21.908 5.12896 22.0692C5.02638 22.1424 4.9238 22.1864 4.82122 22.1864ZM2.76964 20.0322C2.66706 20.0322 2.56448 19.9883 2.49121 19.9004C2.18347 19.5047 1.97831 19.197 1.71454 18.7134C1.61196 18.5522 1.67057 18.3324 1.86108 18.2298C2.02227 18.1272 2.24209 18.1858 2.34467 18.3763C2.59379 18.8159 2.76964 19.0797 3.04807 19.4461C3.17995 19.6073 3.15064 19.8271 2.98945 19.959C2.91618 20.0176 2.82825 20.0322 2.76964 20.0322ZM1.39215 17.7462C1.2456 17.7462 1.12837 17.6583 1.06975 17.541C0.87925 17.1454 0.7034 16.6764 0.556858 16.1489C0.498241 15.973 0.615475 15.7679 0.791325 15.7093C0.981829 15.6506 1.18699 15.7679 1.2456 15.9437C1.39215 16.442 1.52403 16.8669 1.71454 17.204C1.78781 17.3945 1.72919 17.5996 1.55334 17.6729C1.49472 17.7462 1.45076 17.7462 1.39215 17.7462ZM0.571512 14.9766C0.410317 14.9766 0.249121 14.8593 0.234467 14.6835C0.146542 14.1999 0.087925 13.7896 0.0732708 13.4086C0.0439625 13.2034 0.205158 13.0422 0.395662 13.0275C0.600821 12.9982 0.762016 13.1594 0.776671 13.3499C0.805979 13.7163 0.864596 14.0973 0.937866 14.5516C0.981829 14.7567 0.835287 14.9326 0.659437 14.9619C0.615475 14.9766 0.600821 14.9766 0.571512 14.9766ZM0.366354 12.2362C0.17585 12.2362 0 12.075 0 11.8699C0 11.7233 0 11.6207 0 11.5182C0 11.1958 0 11.0346 0.0732708 10.6243C0.102579 10.4484 0.293083 10.3019 0.468933 10.3458C0.659437 10.3751 0.791325 10.5657 0.762016 10.7415C0.7034 11.0785 0.7034 11.1811 0.7034 11.5035V11.8699C0.732708 12.075 0.571512 12.2362 0.366354 12.2362ZM0.674091 9.8476C0.630129 9.8476 0.615475 9.8476 0.571512 9.83294C0.395662 9.77433 0.263775 9.58382 0.337046 9.39332C0.410317 9.08558 0.468933 8.89508 0.600821 8.58734L0.659437 8.42614C0.718054 8.25029 0.923212 8.14771 1.09906 8.20633C1.28957 8.26495 1.39215 8.47011 1.33353 8.66061L1.26026 8.82181C1.15768 9.12954 1.09906 9.29074 1.02579 9.58382C0.981829 9.74502 0.835287 9.8476 0.674091 9.8476Z" fill="black"/>
<path fill-rule="evenodd" clip-rule="evenodd" d="M6.16992 4.22026L4.03041 4.1763C3.82525 4.1763 3.67871 4.0151 3.67871 3.8246C3.67871 3.61944 3.85456 3.4729 4.04506 3.4729L6.18457 3.51686C6.38973 3.51686 6.53627 3.67806 6.53627 3.88322C6.53627 4.05907 6.36042 4.22026 6.16992 4.22026Z" fill="black"/>
<path fill-rule="evenodd" clip-rule="evenodd" d="M4.03042 4.16163C3.82526 4.16163 3.66406 4.00044 3.66406 3.79528L3.70802 1.67043C3.70802 1.46527 3.86922 1.31873 4.07438 1.31873C4.27954 1.31873 4.41142 1.47992 4.41142 1.68508L4.38212 3.82459C4.39677 4.01509 4.23557 4.16163 4.03042 4.16163Z" fill="black"/>
</svg>
