<svg width="45" height="45" viewBox="0 0 45 45" fill="none" xmlns="http://www.w3.org/2000/svg">
<g id="fi_10235319">
<path id="Vector" d="M3.03281 43.65H41.9668C42.2055 43.65 42.4344 43.5552 42.6032 43.3864C42.772 43.2176 42.8668 42.9887 42.8668 42.75V38.3085C42.8635 37.1686 42.5927 36.0455 42.076 35.0294C41.5594 34.0133 40.8114 33.1327 39.8923 32.4585C36.3643 29.88 33.4708 28.377 31.0903 27.9C31.0364 27.7741 30.9531 27.663 30.8473 27.576L28.7098 25.821C28.5424 25.6835 28.331 25.6109 28.1144 25.6167C27.8979 25.6225 27.6906 25.7062 27.5308 25.8525L22.4998 30.4425L17.4688 25.839C17.309 25.6927 17.1018 25.609 16.8852 25.6032C16.6686 25.5974 16.4572 25.67 16.2898 25.8075L14.1523 27.5625C14.0465 27.6495 13.9632 27.7606 13.9093 27.8865C11.5288 28.377 8.63531 29.88 5.11181 32.463C4.19134 33.1362 3.4421 34.0165 2.92461 35.0327C2.40712 36.0489 2.13589 37.1726 2.13281 38.313V42.75C2.13281 42.9887 2.22763 43.2176 2.39642 43.3864C2.5652 43.5552 2.79412 43.65 3.03281 43.65ZM22.4998 32.823L24.9343 34.821L23.6338 36.45H21.3838L20.0833 34.812L22.4998 32.823ZM21.5638 38.25H23.4358L24.7498 41.85H20.2498L21.5638 38.25ZM41.0668 38.2995V41.85H26.6668L25.0918 37.521L26.3293 35.9595L26.8333 36.3735C26.994 36.5067 27.1961 36.5799 27.4048 36.5805C27.4823 36.5789 27.5593 36.5683 27.6343 36.549C27.7718 36.5121 27.8985 36.443 28.0041 36.3476C28.1097 36.2522 28.1912 36.133 28.2418 36L30.7033 29.6415C32.8093 30.0915 35.5363 31.5045 38.8033 33.912C39.4998 34.4152 40.0677 35.0756 40.461 35.8395C40.8543 36.6034 41.0618 37.4493 41.0668 38.3085V38.2995ZM28.1698 27.693L29.2048 28.539L26.9998 34.2L23.8498 31.626L28.1698 27.693ZM16.8298 27.693L21.1498 31.6215L17.9998 34.2L15.7948 28.539L16.8298 27.693ZM3.93281 38.3085C3.93694 37.4512 4.14276 36.607 4.53364 35.844C4.92451 35.081 5.48947 34.4207 6.18281 33.9165C9.47231 31.509 12.1993 30.078 14.2828 29.646L16.7578 36C16.8095 36.1327 16.8919 36.2513 16.9983 36.3459C17.1047 36.4406 17.232 36.5086 17.3698 36.5445C17.4448 36.5638 17.5219 36.5744 17.5993 36.576C17.8081 36.5754 18.0101 36.5022 18.1708 36.369L18.6748 35.955L19.9123 37.5165L18.3373 41.85H3.93731L3.93281 38.3085Z" fill="#2E86A1"/>
<path id="Vector_2" d="M13.1894 11.889C13.1131 13.5383 13.3797 15.1855 13.9724 16.7265C13.8853 18.3158 14.1211 19.9063 14.6654 21.402C15.6734 24.102 19.7144 27.081 21.9914 27.351H23.0399C25.2899 27.081 29.3399 24.093 30.3704 21.402C30.9348 19.8506 31.1664 18.1978 31.0499 16.551V15.777C31.5899 14.5395 32.2244 11.277 31.8104 9.4005C31.7069 8.6355 30.6584 2.3535 23.3324 1.4625C17.7029 0.778503 15.9299 3.4425 14.7824 5.2065C14.5164 5.65247 14.1959 6.06362 13.8284 6.4305C12.1184 7.8705 10.8899 9.099 10.8404 9.1305C10.7518 9.21844 10.6824 9.32386 10.6367 9.44007C10.591 9.55628 10.5699 9.68073 10.5749 9.8055C10.5805 9.93084 10.6122 10.0536 10.668 10.166C10.7238 10.2784 10.8024 10.3778 10.8989 10.458C11.6045 11.0221 12.3731 11.5023 13.1894 11.889ZM28.6874 20.7675C27.9404 22.7385 24.5654 25.317 22.8734 25.5555H22.1579C20.4659 25.317 17.0999 22.7385 16.3484 20.7675C15.8786 19.461 15.6855 18.0711 15.7814 16.686V16.65C15.784 16.6381 15.784 16.6259 15.7814 16.614C15.7814 16.614 15.9344 14.085 17.4689 13.1085C18.3661 13.2102 19.2718 13.2102 20.1689 13.1085C23.6699 12.6585 25.6004 11.4615 26.4419 10.7775C27.5849 11.4435 28.4669 13.0005 29.2589 15.7005V16.6005C29.2567 16.638 29.2567 16.6755 29.2589 16.713C29.3482 18.0894 29.1537 19.4694 28.6874 20.7675ZM14.9759 7.8075C15.4776 7.33502 15.9122 6.796 16.2674 6.2055C17.3564 4.5585 18.5939 2.7 23.1254 3.249C29.4254 4.014 30.0104 9.4095 30.0329 9.639C30.0308 9.67947 30.0308 9.72003 30.0329 9.7605C30.1743 10.6648 30.1652 11.5862 30.0059 12.4875C29.2589 10.8405 28.2059 9.4365 26.5634 8.847C26.3917 8.78884 26.2066 8.78258 26.0314 8.829C25.8561 8.87542 25.6984 8.97246 25.5779 9.108C25.5779 9.108 24.0659 10.8 19.9484 11.3085C19.1029 11.4164 18.247 11.4164 17.4014 11.3085C17.2238 11.2864 17.0437 11.3177 16.8839 11.3985C16.1005 11.7982 15.449 12.4153 15.0074 13.176C14.963 12.5888 14.963 11.9992 15.0074 11.412C15.0222 11.2233 14.9771 11.0348 14.8785 10.8732C14.7799 10.7116 14.633 10.5852 14.4584 10.512C13.9081 10.2785 13.3756 10.0047 12.8654 9.693C13.3919 9.1935 14.1254 8.523 14.9759 7.8075Z" fill="#2E86A1"/>
</g>
</svg>
