<svg width="25" height="25" viewBox="0 0 25 25" fill="none" xmlns="http://www.w3.org/2000/svg">
<g id="fi_864685">
<g id="Group">
<g id="Group_2">
<path id="Vector" d="M24.5154 5.0242C24.5138 5.0242 24.5121 5.0242 24.5106 5.0242H22.8678V4.46207C22.8766 4.23958 22.7327 4.03963 22.5189 3.97748C21.3784 3.67861 20.204 3.52875 19.025 3.53166C17.0866 3.53166 14.4456 3.96779 12.4927 5.95461C10.5544 3.94841 7.89397 3.53166 5.96046 3.53166C4.78145 3.52875 3.60705 3.67861 2.46656 3.97748C2.25274 4.03963 2.10881 4.23958 2.11766 4.46207V5.01935H0.48459C0.216975 5.01935 0 5.23632 0 5.50394V20.9817C0 21.2494 0.216975 21.4663 0.48459 21.4663C0.567818 21.4661 0.649593 21.4444 0.722039 21.4033C0.770498 21.3791 5.6164 18.7284 12.3813 20.4342H12.454H12.4976C12.5362 20.4388 12.5752 20.4388 12.6139 20.4342C19.3981 18.7139 24.244 21.3597 24.2731 21.4033C24.423 21.4899 24.6078 21.4899 24.7577 21.4033C24.9067 21.3173 24.999 21.1587 25 20.9866V5.50879C25 5.24117 24.7831 5.0242 24.5154 5.0242ZM0.96918 20.2112V5.99338H2.12735V18.1469C2.12432 18.4145 2.33881 18.6339 2.60643 18.6369C2.6326 18.6372 2.65876 18.6354 2.68463 18.6315C3.68712 18.4784 4.69925 18.3974 5.71332 18.3892C7.11802 18.3648 8.51685 18.5761 9.85172 19.0143C6.83726 18.6498 3.77962 19.0618 0.96918 20.2112ZM5.71332 17.4249C4.83191 17.4269 3.95153 17.4835 3.07715 17.5945V4.8449C4.02064 4.63471 4.98413 4.52743 5.95077 4.52507C7.76313 4.52507 10.2636 4.94181 11.9984 6.89956L12.013 18.9707C11.005 18.3117 9.0376 17.4249 5.71332 17.4249ZM12.9822 6.89956C14.717 4.9612 17.2175 4.52507 19.0299 4.52507C19.9964 4.52791 20.9599 4.63513 21.9035 4.8449V17.5945C21.034 17.4825 20.1585 17.4242 19.2818 17.42C15.9769 17.42 14.0047 18.3068 12.9822 18.9659V6.89956ZM24.026 20.2112C21.2095 19.0587 18.1449 18.6466 15.1241 19.0143C16.4652 18.5745 17.8707 18.3632 19.2818 18.3892C20.3023 18.3949 21.3209 18.4742 22.3299 18.6266C22.5945 18.6668 22.8416 18.4848 22.8817 18.2202C22.8857 18.1944 22.8875 18.1682 22.8872 18.142V5.99338H24.0454L24.026 20.2112Z" fill="black"/>
</g>
</g>
</g>
</svg>
