<svg width="25" height="25" viewBox="0 0 25 25" fill="none" xmlns="http://www.w3.org/2000/svg">
<g id="fi_845022">
<g id="Group">
<g id="Group_2">
<path id="Vector" d="M24.8102 11.6674L20.1975 7.72832C20.2028 7.70138 20.2082 7.67443 20.2136 7.6421V2.49054C20.2082 2.18339 19.9657 1.93551 19.6586 1.92473H17.0828C16.7864 1.92473 16.5439 2.18878 16.5439 2.49054V4.62445L12.8527 1.47747C12.6533 1.30504 12.357 1.30504 12.1522 1.47747L0.194741 11.662C-0.0369714 11.8506 -0.0639147 12.1901 0.124688 12.4218C0.313292 12.6536 0.652777 12.6805 0.88449 12.4919C0.889879 12.4865 0.889879 12.4865 0.895267 12.4811L12.5024 2.59831L16.6571 6.13867L19.1413 8.25102L24.115 12.4865C24.3413 12.6805 24.6808 12.6536 24.8748 12.4272C25.0634 12.2009 25.0365 11.8614 24.8102 11.6674ZM19.1305 6.81764L17.6217 5.54591V3.00785H19.1305V6.81764Z" fill="black"/>
</g>
</g>
<g id="Group_3">
<g id="Group_4">
<path id="Vector_2" d="M22.4334 12.756L20.9191 11.4627L12.8523 4.57061C12.6529 4.39817 12.3566 4.39817 12.1518 4.57061L4.08496 11.4627L2.57075 12.756C2.34442 12.95 2.31748 13.2895 2.51147 13.5158C2.70007 13.7421 3.03417 13.7691 3.25511 13.5805L3.2605 13.5751L3.93408 12.9931V23.0968C3.93947 23.3986 4.18735 23.6465 4.48911 23.6519H20.5096C20.8114 23.6465 21.0592 23.404 21.0646 23.0968V12.9931L21.7382 13.5751C21.8352 13.6559 21.9538 13.7044 22.0831 13.7044C22.2394 13.7044 22.3902 13.6343 22.4926 13.5158C22.692 13.2841 22.6597 12.9446 22.4334 12.756ZM14.6575 22.5687H10.3466V16.749H14.6575V22.5687ZM15.7352 22.5687V16.2263C15.7352 15.9299 15.5143 15.6713 15.2179 15.6713H9.78617C9.48979 15.6713 9.26885 15.9299 9.26885 16.2263V22.5687H5.01181V12.0716L12.5021 5.69145L19.9923 12.0716V22.5687H15.7352Z" fill="black"/>
</g>
</g>
</g>
</svg>
