<svg width="25" height="25" viewBox="0 0 25 25" fill="none" xmlns="http://www.w3.org/2000/svg">
<g id="fi_11445333">
<g id="Group">
<path id="Vector" d="M12.5 16.1016C10.5156 16.1016 8.89844 14.4883 8.89844 12.5C8.89844 10.5156 10.5117 8.89844 12.5 8.89844C14.4883 8.89844 16.1016 10.5117 16.1016 12.5C16.1016 14.4844 14.4844 16.1016 12.5 16.1016ZM12.5 9.67969C10.9453 9.67969 9.67969 10.9453 9.67969 12.5C9.67969 14.0547 10.9453 15.3203 12.5 15.3203C14.0547 15.3203 15.3203 14.0547 15.3203 12.5C15.3203 10.9453 14.0547 9.67969 12.5 9.67969Z" fill="black"/>
</g>
<g id="Group_2">
<path id="Vector_2" d="M12.5 8.63672C12.2852 8.63672 12.1094 8.46094 12.1094 8.24609V5.1875C12.1094 4.97266 12.2852 4.79688 12.5 4.79688C12.7148 4.79688 12.8906 4.97266 12.8906 5.1875V8.24609C12.8906 8.46094 12.7148 8.63672 12.5 8.63672Z" fill="black"/>
</g>
<g id="Group_3">
<path id="Vector_3" d="M12.5 5.57812C11.082 5.57812 9.92969 4.42578 9.92969 3.00781C9.92969 1.58984 11.082 0.4375 12.5 0.4375C13.918 0.4375 15.0703 1.58984 15.0703 3.00781C15.0703 4.42578 13.918 5.57812 12.5 5.57812ZM12.5 1.21875C11.5117 1.21875 10.7109 2.01953 10.7109 3.00781C10.7109 3.99609 11.5156 4.79687 12.5 4.79687C13.4844 4.79687 14.2891 3.99219 14.2891 3.00781C14.2891 2.02344 13.4883 1.21875 12.5 1.21875Z" fill="black"/>
</g>
<g id="Group_4">
<path id="Vector_4" d="M12.5 20.2031C12.2852 20.2031 12.1094 20.0273 12.1094 19.8125V16.7539C12.1094 16.5391 12.2852 16.3633 12.5 16.3633C12.7148 16.3633 12.8906 16.5391 12.8906 16.7539V19.8125C12.8906 20.0273 12.7148 20.2031 12.5 20.2031Z" fill="black"/>
</g>
<g id="Group_5">
<path id="Vector_5" d="M12.5 24.5625C11.082 24.5625 9.92969 23.4102 9.92969 21.9922C9.92969 20.5742 11.082 19.4219 12.5 19.4219C13.918 19.4219 15.0703 20.5742 15.0703 21.9922C15.0703 23.4102 13.918 24.5625 12.5 24.5625ZM12.5 20.2031C11.5117 20.2031 10.7109 21.0039 10.7109 21.9922C10.7109 22.9805 11.5156 23.7812 12.5 23.7812C13.4844 23.7812 14.2891 22.9805 14.2891 21.9922C14.2891 21.0039 13.4883 20.2031 12.5 20.2031Z" fill="black"/>
</g>
<g id="Group_6">
<path id="Vector_6" d="M15.8941 10.3281C15.7769 10.3281 15.6597 10.2734 15.5816 10.1719C15.4527 10 15.4879 9.75391 15.6597 9.62501L18.1011 7.78516C18.273 7.65626 18.5191 7.68751 18.648 7.86329C18.7769 8.03516 18.7418 8.28126 18.5699 8.41016L16.1285 10.25C16.0582 10.3047 15.9761 10.3281 15.8941 10.3281Z" fill="black"/>
</g>
<g id="Group_7">
<path id="Vector_7" d="M20.0781 9.35156C19.2969 9.35156 18.5273 9 18.0234 8.33203C17.6094 7.78516 17.4336 7.10547 17.5312 6.42578C17.625 5.74609 17.9805 5.14453 18.5273 4.73047C19.6602 3.875 21.2734 4.10156 22.1289 5.23438C22.543 5.78125 22.7187 6.45703 22.6211 7.14063C22.5273 7.82031 22.1719 8.42188 21.625 8.83594C21.1602 9.18359 20.6172 9.35156 20.0781 9.35156ZM20.0742 4.99609C19.6992 4.99609 19.3203 5.11328 19 5.35547C18.6172 5.64453 18.3711 6.0625 18.3047 6.53516C18.2383 7.00781 18.3594 7.48047 18.6484 7.85938C19.2422 8.64844 20.3672 8.80469 21.1562 8.21094C21.5391 7.92188 21.7851 7.50391 21.8516 7.03125C21.918 6.55859 21.7969 6.08594 21.5078 5.70703C21.1523 5.23828 20.6172 4.99609 20.0742 4.99609Z" fill="black"/>
</g>
<g id="Group_8">
<path id="Vector_8" d="M6.66365 17.293C6.54646 17.293 6.42927 17.2383 6.35115 17.1367C6.22224 16.9649 6.25739 16.7188 6.42927 16.5899L8.87068 14.75C9.04255 14.6211 9.28865 14.6524 9.41755 14.8281C9.54646 15 9.5113 15.2461 9.33943 15.375L6.89802 17.2149C6.82771 17.2695 6.74568 17.293 6.66365 17.293Z" fill="black"/>
</g>
<g id="Group_9">
<path id="Vector_9" d="M4.92981 20.7891C4.80872 20.7891 4.68762 20.7813 4.56653 20.7657C3.88684 20.668 3.28528 20.3125 2.87122 19.7657C2.01575 18.6329 2.24231 17.0196 3.37512 16.1641C3.922 15.75 4.60169 15.5782 5.28137 15.6719C5.96106 15.7657 6.56262 16.1211 6.97669 16.668C7.39075 17.2149 7.56653 17.8907 7.46887 18.5743C7.37512 19.254 7.01965 19.8555 6.47278 20.2696C6.02356 20.6094 5.4845 20.7891 4.92981 20.7891ZM3.84778 16.7891C3.05872 17.3829 2.90247 18.5079 3.49622 19.2969C3.78528 19.6797 4.20325 19.9258 4.6759 19.9922C5.14856 20.0586 5.62122 19.9375 6.00012 19.6485C6.37903 19.3594 6.62903 18.9415 6.69543 18.4688C6.76184 17.9961 6.64075 17.5235 6.35169 17.1446C6.06262 16.7618 5.64465 16.5157 5.172 16.4493C4.69934 16.379 4.22669 16.5 3.84778 16.7891Z" fill="black"/>
</g>
<g id="Group_10">
<path id="Vector_10" d="M9.10505 10.3281C9.02302 10.3281 8.94099 10.3007 8.87068 10.2499L6.42927 8.41011C6.25739 8.2812 6.22224 8.0351 6.35115 7.86323C6.48005 7.69135 6.72615 7.6562 6.89802 7.78511L9.33943 9.62495C9.5113 9.75385 9.54646 9.99995 9.41755 10.1718C9.33943 10.2734 9.22224 10.3281 9.10505 10.3281Z" fill="black"/>
</g>
<g id="Group_11">
<path id="Vector_11" d="M4.92211 9.35156C4.38304 9.35156 3.84007 9.18359 3.37523 8.83203C2.82836 8.41797 2.47289 7.81641 2.37914 7.13672C2.28539 6.45703 2.46117 5.78125 2.87132 5.23047C3.72679 4.09766 5.34007 3.87109 6.47289 4.72656C7.01976 5.14063 7.37523 5.74219 7.46898 6.42188C7.56273 7.10156 7.38695 7.77734 6.97679 8.32812C6.47289 9 5.69945 9.35156 4.92211 9.35156ZM4.92601 4.99609C4.38304 4.99609 3.84789 5.24219 3.49632 5.70703C3.20726 6.08594 3.08617 6.55859 3.15257 7.03125C3.21898 7.50391 3.46507 7.92578 3.84789 8.21094C4.63695 8.80469 5.75804 8.64844 6.3557 7.85938C6.64476 7.47656 6.76586 7.00781 6.69945 6.53516C6.63304 6.0625 6.38695 5.64063 6.00414 5.35547C5.67992 5.11328 5.30101 4.99609 4.92601 4.99609Z" fill="black"/>
</g>
<g id="Group_12">
<path id="Vector_12" d="M18.3355 17.2929C18.2535 17.2929 18.1715 17.2656 18.1011 17.2148L15.6597 15.3749C15.4879 15.246 15.4527 14.9999 15.5816 14.8281C15.7105 14.6562 15.9566 14.621 16.1285 14.7499L18.5699 16.5898C18.7418 16.7187 18.7769 16.9648 18.648 17.1367C18.5699 17.2421 18.4527 17.2929 18.3355 17.2929Z" fill="black"/>
</g>
<g id="Group_13">
<path id="Vector_13" d="M20.0705 20.789C19.5159 20.789 18.9768 20.6094 18.5276 20.2695C17.9807 19.8555 17.6252 19.2539 17.5315 18.5742C17.4377 17.8945 17.6135 17.2187 18.0237 16.668C18.4377 16.1211 19.0393 15.7656 19.719 15.6719C20.3987 15.5781 21.0744 15.7539 21.6252 16.164C22.758 17.0195 22.9807 18.6328 22.1291 19.7656C21.7151 20.3125 21.1135 20.668 20.4338 20.7617C20.3127 20.7812 20.1916 20.789 20.0705 20.789ZM20.0784 16.4258C19.9963 16.4258 19.9104 16.4297 19.8284 16.4414C19.3557 16.5078 18.9338 16.7539 18.6487 17.1367C18.3596 17.5195 18.2385 17.9883 18.3049 18.4609C18.3713 18.9336 18.6174 19.3555 19.0002 19.6406C19.383 19.9297 19.8518 20.0508 20.3244 19.9844C20.7971 19.918 21.219 19.6719 21.5041 19.289C22.0979 18.5 21.9416 17.3789 21.1526 16.7812C20.8401 16.5508 20.4651 16.4258 20.0784 16.4258Z" fill="black"/>
</g>
</g>
</svg>
