<svg width="20" height="22" viewBox="0 0 20 22" fill="none" xmlns="http://www.w3.org/2000/svg">
<path d="M0.5 22H5.5C5.77613 22 6 21.7761 6 21.5V12.5C6 12.2239 5.77613 12 5.5 12H0.5C0.223875 12 0 12.2239 0 12.5V21.5C0 21.7761 0.223875 22 0.5 22ZM1 13H5V21H1V13Z" fill="black"/>
<path d="M14.5 22H19.5C19.7761 22 20 21.7761 20 21.5V6.5C20 6.22387 19.7761 6 19.5 6H14.5C14.2239 6 14 6.22387 14 6.5V21.5C14 21.7761 14.2239 22 14.5 22ZM15 7H19V21H15V7Z" fill="black"/>
<path d="M7.5 22H12.5C12.7761 22 13 21.7761 13 21.5V0.5C13 0.223875 12.7761 0 12.5 0H7.5C7.22387 0 7 0.223875 7 0.5V21.5C7 21.7761 7.22387 22 7.5 22ZM8 1H12V21H8V1Z" fill="black"/>
</svg>
