<svg width="25" height="25" viewBox="0 0 25 25" fill="none" xmlns="http://www.w3.org/2000/svg">
<g id="fi_813907" clip-path="url(#clip0_125_2269)">
<g id="Group">
<g id="Group_2">
<path id="Vector" d="M24.9195 3.24112C24.8447 3.06306 24.6705 2.9472 24.4774 2.9472L22.0767 2.95967L22.0661 0.477439C22.065 0.212651 21.8495 -0.00113422 21.5846 4.52819e-06C21.4575 0.000543935 21.3357 0.0515478 21.2462 0.141809L18.3799 3.02967C18.2914 3.11897 18.2414 3.2395 18.2409 3.3653V6.11556L17.6684 6.68997C17.6525 6.66288 17.6337 6.63764 17.6123 6.61469C13.2781 2.73108 6.61621 3.09644 2.7326 7.43063C-1.15101 11.7648 -0.78571 18.4267 3.54854 22.3103C7.8828 26.194 14.5446 25.8287 18.4283 21.4944C21.6858 17.8589 22.0199 12.4621 19.2358 8.45251C19.0844 8.23513 18.7853 8.18166 18.5679 8.33312C18.3505 8.48457 18.2971 8.78364 18.4485 9.00102C21.4713 13.3536 20.3933 19.3326 16.0407 22.3554C11.688 25.3781 5.70917 24.3002 2.68633 19.9476C-0.336504 15.595 0.74159 9.61601 5.09418 6.59323C8.74597 4.05712 13.6616 4.36189 16.9722 7.32964C16.9828 7.33923 16.9971 7.34259 17.0087 7.35122L14.958 9.40144C13.7434 8.33809 12.1836 7.75272 10.5693 7.75445C6.86206 7.75416 3.85648 10.7592 3.85624 14.4665C3.856 18.1738 6.8611 21.1794 10.5684 21.1796C14.2757 21.1799 17.2812 18.1748 17.2815 14.4675C17.2815 13.3945 17.0244 12.3371 16.5316 11.384C16.4096 11.1489 16.1201 11.0571 15.885 11.179C15.6499 11.301 15.5581 11.5905 15.68 11.8256C16.105 12.6411 16.3256 13.5475 16.323 14.467C16.331 17.6526 13.755 20.2415 10.5695 20.2495C7.38384 20.2575 4.79493 17.6815 4.78696 14.496C4.77899 11.3103 7.35496 8.72143 10.5405 8.71346C11.9096 8.71004 13.2353 9.19371 14.2805 10.0779L12.2336 12.1243C10.9383 11.2065 9.14423 11.5125 8.2264 12.8078C7.30857 14.1031 7.61459 15.8972 8.90989 16.815C10.2052 17.7328 11.9992 17.4268 12.9171 16.1315C13.2618 15.645 13.4467 15.0633 13.4462 14.467C13.4462 14.2022 13.2315 13.9875 12.9667 13.9875C12.7019 13.9875 12.4872 14.2022 12.4872 14.467C12.4872 15.5262 11.6286 16.3849 10.5693 16.3849C9.51013 16.3849 8.65145 15.5262 8.65145 14.467C8.65145 13.4078 9.51013 12.5491 10.5693 12.5491C10.9107 12.5507 11.2454 12.6444 11.5379 12.8205L10.2304 14.128C10.0399 14.312 10.0346 14.6155 10.2186 14.806C10.4025 14.9965 10.7061 15.0017 10.8966 14.8177C10.9006 14.8139 10.9045 14.81 10.9083 14.806L12.6023 13.112L18.9189 6.79545H21.613C21.7412 6.79491 21.8637 6.74313 21.9535 6.65161L24.8178 3.76231C24.9536 3.62494 24.9937 3.41948 24.9195 3.24112ZM19.1998 3.56428L21.1101 1.63728L21.1177 3.24112L19.1998 5.15901V3.56428ZM21.4131 5.8365H19.8788L21.7967 3.91861L23.3233 3.91094L21.4131 5.8365Z" fill="black"/>
</g>
</g>
</g>
<defs>
<clipPath id="clip0_125_2269">
<rect width="25" height="25" fill="white"/>
</clipPath>
</defs>
</svg>
