<svg width="45" height="45" viewBox="0 0 45 45" fill="none" xmlns="http://www.w3.org/2000/svg">
<g id="fi_8660446">
<g id="Group">
<path id="Vector" d="M21.1846 36.8308H22.5692V38.2154H21.1846V36.8308Z" fill="#4B8F8F"/>
<path id="Vector_2" d="M21.1846 40.0154H22.5692V41.4H21.1846V40.0154Z" fill="#4B8F8F"/>
<path id="Vector_3" d="M39.2541 21.1846C41.5387 19.3846 42.7849 16.7539 42.7849 13.8462C42.7849 8.58462 38.3541 4.36154 33.1618 4.56924C30.9464 4.63847 28.8003 5.53847 27.208 7.13077C25.8233 6.43847 24.0926 6.09231 22.1541 6.09231H22.0849C21.9464 6.16154 12.531 5.6077 13.1541 16.2C12.8772 18.7615 14.1926 22.5692 16.8926 25.0615V27.5539L14.6772 29.9077L8.1695 31.9154C5.6772 32.8846 3.87719 35.0308 3.39258 37.6615L2.28489 42.9923C2.14643 43.8231 2.7695 44.6539 3.6695 44.6539H40.2926C41.1233 44.6539 41.8157 43.8923 41.608 42.9923L40.5003 37.7308C40.0157 35.1 38.2157 32.9539 35.7233 31.9846L29.2849 29.9769L27.0003 27.5539V24.9923C27.7618 24.3 28.3849 23.4692 28.9387 22.5692C29.7695 24.1615 29.4233 25.3385 29.4926 27.0692C29.4926 27.8308 30.1157 28.4539 30.8772 28.4539H36.208C36.9695 28.4539 37.5926 27.8308 37.5926 27.0692C37.5233 24.7154 37.3157 22.7077 39.2541 21.1846ZM21.7387 7.47693C25.5464 7.47693 29.3541 8.72308 29.3541 12.5308V16.2C27.7618 15.3692 26.031 13.2231 25.3387 11.7692C25.131 11.3539 24.508 11.2154 24.231 11.5615C22.7772 13.1539 20.3541 13.5 18.4157 12.3231C18.0695 12.1154 17.5849 12.2539 17.3772 12.6692C17.031 13.5692 15.8541 15.7846 14.4695 16.4077C14.0541 10.4539 17.2387 7.47693 21.7387 7.47693ZM17.5157 28.8692L20.908 32.3308L18.4157 34.8231L15.8541 30.6692L17.5157 28.8692ZM39.1157 38.0077L40.2233 43.2692H34.6849V39.4615C34.6849 39.0462 34.408 38.7692 33.9926 38.7692C33.5772 38.7692 33.3003 39.0462 33.3003 39.4615V43.2692H10.5233V39.4615C10.5233 39.0462 10.2464 38.7692 9.83104 38.7692C9.41566 38.7692 9.13873 39.0462 9.13873 39.4615V43.2692H3.60027L4.70796 37.9385C5.12335 35.7923 6.57719 33.9923 8.58489 33.2308L14.6772 31.3615L17.7233 36.2077C17.931 36.5539 18.4849 36.6231 18.831 36.3462L21.9464 33.2308L25.0618 36.3462C25.408 36.6923 25.8926 36.6231 26.1695 36.2077L29.2157 31.3615L35.308 33.2308C37.2464 34.0615 38.7003 35.7923 39.1157 38.0077ZM25.408 34.7539L22.9157 32.2615L26.308 28.8L27.9695 30.6L25.408 34.7539ZM25.6157 27.5539L21.9464 31.2923L18.2772 27.5539V26.1692C19.4541 26.9308 20.7003 27.3462 21.9464 27.3462C23.2618 27.3462 24.508 26.8615 25.6157 26.1692V27.5539ZM21.8772 25.9615C18.208 25.9615 15.0233 21.5308 14.5387 17.8615C16.408 17.4462 17.7926 15.1615 18.3464 13.9154C20.3541 14.8154 22.7772 14.5385 24.508 13.2231C25.4772 14.8154 27.3464 17.0308 29.2157 17.7231C28.8003 21.6 25.5464 25.9615 21.8772 25.9615ZM30.7387 12.6C30.7387 10.6615 29.908 9.06924 28.3849 7.89231C29.7695 6.71539 31.431 6.02308 33.1618 5.95385C37.731 5.81539 41.4003 9.41539 41.4003 13.8462C41.4003 16.2692 40.2926 18.5539 38.4233 20.0769C37.1772 21.0462 36.4157 22.5 36.208 24.0923H34.2003V17.3769L34.8926 17.7923C35.5157 18.2077 36.0695 17.3769 37.3157 16.7539C37.6618 16.5462 37.731 16.1308 37.5233 15.7846C37.3157 15.4385 36.9003 15.3692 36.5541 15.5769L35.1695 16.4077L33.7849 15.5769C33.7849 15.5769 33.7849 15.5769 33.7157 15.5769C33.3003 15.3692 32.7464 15.6462 32.7464 16.1308V16.2V24.1615H30.7387C30.6003 23.1231 30.1849 22.0846 29.5618 21.2539C31.2926 17.6539 30.531 15.3 30.7387 12.6ZM36.1387 27.0692H30.808V25.4769H36.1387V27.0692Z" fill="#4B8F8F"/>
<path id="Vector_4" d="M34.2 2.49235V1.0385C34.2 0.623114 33.9231 0.346191 33.5077 0.346191C33.0924 0.346191 32.8154 0.623114 32.8154 1.0385V2.49235C32.8154 2.90773 33.0924 3.18465 33.5077 3.18465C33.9231 3.18465 34.2 2.90773 34.2 2.49235Z" fill="#4B8F8F"/>
<path id="Vector_5" d="M29.6314 4.0846C29.9776 3.94614 30.1853 3.53076 29.9776 3.1846L29.3545 1.73076C29.2853 1.3846 28.8699 1.24614 28.5237 1.3846C28.1776 1.52306 27.9699 1.93845 28.1776 2.2846L28.8007 3.73845C28.8699 4.0846 29.2853 4.29229 29.6314 4.0846Z" fill="#4B8F8F"/>
<path id="Vector_6" d="M38.2846 3.73845L38.9076 2.2846C39.0461 1.93845 38.9076 1.52306 38.5615 1.3846C38.2153 1.24614 37.8 1.3846 37.6615 1.73076L37.0384 3.1846C36.8999 3.53076 37.0384 3.94614 37.3846 4.0846C37.7307 4.29229 38.1461 4.0846 38.2846 3.73845Z" fill="#4B8F8F"/>
</g>
</g>
</svg>
