<svg width="30" height="30" viewBox="0 0 30 30" fill="none" xmlns="http://www.w3.org/2000/svg">
<g id="fi_8905275">
<g id="Group">
<path id="Vector" d="M7.5498 15C7.55208 16.9753 8.33779 18.869 9.73456 20.2657C11.1313 21.6624 13.0251 22.448 15.0004 22.4501C24.8848 22.041 24.8815 7.95695 15.0003 7.54944C13.025 7.55163 11.1312 8.33731 9.7344 9.73409C8.33763 11.1309 7.55198 13.0247 7.5498 15ZM21.4897 14.5313H20.6254C20.501 14.5313 20.3818 14.5806 20.2939 14.6686C20.206 14.7565 20.1566 14.8757 20.1566 15C20.1566 15.1243 20.206 15.2436 20.2939 15.3315C20.3818 15.4194 20.501 15.4688 20.6254 15.4688H21.4897C21.3755 17.0276 20.7045 18.4935 19.5992 19.5987C18.4939 20.7039 17.028 21.3748 15.4691 21.4889V20.6245C15.4668 20.5017 15.4165 20.3847 15.3288 20.2986C15.2411 20.2126 15.1232 20.1644 15.0003 20.1644C14.8775 20.1644 14.7596 20.2126 14.6719 20.2987C14.5842 20.3847 14.5339 20.5017 14.5316 20.6246V21.4889C12.9727 21.3748 11.5069 20.7039 10.4016 19.5987C9.29628 18.4935 8.62528 17.0276 8.51105 15.4688H9.37582C9.50014 15.4688 9.61937 15.4194 9.70728 15.3315C9.79519 15.2436 9.84457 15.1243 9.84457 15C9.84457 14.8757 9.79519 14.7565 9.70728 14.6686C9.61937 14.5806 9.50014 14.5313 9.37582 14.5313H8.51105C8.62527 12.9723 9.29625 11.5065 10.4015 10.4012C11.5068 9.2959 12.9727 8.62492 14.5316 8.5107V9.37501C14.5316 9.49933 14.581 9.61856 14.6689 9.70647C14.7568 9.79438 14.876 9.84376 15.0004 9.84376C15.1247 9.84376 15.2439 9.79438 15.3318 9.70647C15.4197 9.61856 15.4691 9.49933 15.4691 9.37501V8.5107C17.028 8.62491 18.4939 9.2959 19.5992 10.4012C20.7045 11.5065 21.3755 12.9723 21.4897 14.5313Z" fill="black"/>
<path id="Vector_2" d="M27.5625 11.581C27.5282 11.463 27.449 11.3632 27.3418 11.303C27.2347 11.2429 27.1083 11.2272 26.9897 11.2594C26.8711 11.2916 26.7699 11.369 26.7079 11.475C26.6458 11.5811 26.6279 11.7072 26.6579 11.8264C29.631 23.0583 16.6849 31.5687 7.57297 24.5221L9.85391 24.8016C9.91515 24.8103 9.9775 24.8065 10.0373 24.7905C10.097 24.7745 10.1529 24.7467 10.2017 24.7086C10.2504 24.6705 10.291 24.623 10.321 24.5689C10.351 24.5148 10.3697 24.4553 10.3762 24.3938C10.3838 24.3327 10.3792 24.2707 10.3628 24.2114C10.3464 24.152 10.3185 24.0965 10.2806 24.048C10.2427 23.9995 10.1956 23.9589 10.142 23.9286C10.0885 23.8983 10.0294 23.8789 9.96833 23.8714L6.18491 23.4077C6.11458 23.4005 6.0435 23.409 5.97687 23.4326C5.91023 23.4563 5.8497 23.4945 5.79968 23.5445C5.74965 23.5944 5.7114 23.6549 5.6877 23.7216C5.66399 23.7882 5.65543 23.8593 5.66263 23.9296L6.12586 27.713C6.14298 27.8346 6.20714 27.9446 6.30454 28.0194C6.40194 28.0942 6.5248 28.1277 6.64669 28.1128C6.76858 28.098 6.87976 28.0358 6.95631 27.9398C7.03286 27.8438 7.06867 27.7216 7.05603 27.5994L6.74616 25.0663C16.6116 33.0091 30.7529 23.8474 27.5625 11.581Z" fill="black"/>
<path id="Vector_3" d="M6.45905 6.4586C8.54488 4.37864 11.318 3.13133 14.2582 2.95074C17.1983 2.77015 20.1033 3.66869 22.428 5.47775L20.1471 5.19838C20.0249 5.18551 19.9025 5.22115 19.8064 5.29762C19.7102 5.3741 19.6479 5.48529 19.6329 5.60725C19.6179 5.72921 19.6514 5.85218 19.7262 5.94969C19.8009 6.04719 19.911 6.11142 20.0327 6.12855L23.8161 6.59227C23.8865 6.59975 23.9576 6.59139 24.0244 6.56782C24.0911 6.54424 24.1517 6.50604 24.2018 6.45601C24.2519 6.40599 24.2901 6.34539 24.3138 6.27867C24.3374 6.21195 24.3458 6.1408 24.3384 6.07041L23.8751 2.287C23.8685 2.22561 23.8495 2.16619 23.8195 2.11222C23.7895 2.05826 23.749 2.01085 23.7003 1.9728C23.6517 1.93474 23.5959 1.90681 23.5363 1.89064C23.4767 1.87448 23.4145 1.87041 23.3533 1.87867C23.2922 1.88606 23.2331 1.90543 23.1795 1.93566C23.1259 1.9659 23.0788 2.00642 23.0409 2.05489C23.0029 2.10337 22.975 2.15885 22.9585 2.21816C22.942 2.27746 22.9374 2.33944 22.945 2.40052L23.2551 4.93588C21.1808 3.23478 18.6316 2.21604 15.9563 2.01903C13.2809 1.82201 10.61 2.45634 8.3089 3.83524C6.00781 5.21414 4.1889 7.27027 3.10098 9.72238C2.01306 12.1745 1.70927 14.9028 2.23115 17.5342C2.25519 17.6562 2.32671 17.7637 2.42998 17.8329C2.53326 17.9022 2.65983 17.9276 2.78184 17.9036C2.90385 17.8796 3.01132 17.808 3.0806 17.7048C3.14988 17.6015 3.17529 17.4749 3.15125 17.3529C2.76384 15.405 2.86303 13.3916 3.44003 11.4913C4.01704 9.5909 5.05402 7.86225 6.45905 6.4586Z" fill="black"/>
<path id="Vector_4" d="M15.4688 14.8215V12.5084C15.4664 12.3857 15.4159 12.2688 15.3283 12.1828C15.2406 12.0968 15.1227 12.0487 15 12.0487C14.8772 12.0487 14.7594 12.0969 14.6717 12.1828C14.5841 12.2688 14.5336 12.3857 14.5313 12.5084V15C14.5312 15.1149 14.5734 15.2259 14.6498 15.3117L17.6871 18.7202C17.7705 18.8103 17.8859 18.864 18.0085 18.8699C18.1311 18.8758 18.2512 18.8333 18.3428 18.7517C18.4345 18.6701 18.4905 18.5558 18.4989 18.4333C18.5072 18.3109 18.4672 18.19 18.3874 18.0967L15.4688 14.8215Z" fill="black"/>
</g>
</g>
</svg>
