<svg width="25" height="16" viewBox="0 0 25 16" fill="none" xmlns="http://www.w3.org/2000/svg">
<path d="M0.624878 15.5455C0.784759 15.5455 0.94464 15.4845 1.06669 15.3624L9.70666 6.72215L14.1754 11.1909C14.4195 11.435 14.8149 11.435 15.059 11.1909L23.7502 2.49991V6.22908C23.7502 6.57447 24.03 6.85396 24.3751 6.85396C24.7202 6.85396 25 6.57447 25 6.22908V0.991455C25 0.910104 24.9834 0.829057 24.9518 0.752702C24.8885 0.599762 24.7667 0.478021 24.6138 0.414709C24.5374 0.38313 24.4564 0.366577 24.3751 0.366577H19.1372C18.7921 0.366577 18.5123 0.646064 18.5123 0.991455C18.5123 1.33685 18.7921 1.61633 19.1372 1.61633H22.8666L14.6172 9.86545L10.1485 5.39672C9.91414 5.16239 9.49918 5.16239 9.26485 5.39672L0.18307 14.4788C-0.0610232 14.7229 -0.0610232 15.1183 0.18307 15.3624C0.305116 15.4845 0.464997 15.5455 0.624878 15.5455Z" fill="black"/>
</svg>
