<svg width="64" height="64" viewBox="0 0 64 64" fill="none" xmlns="http://www.w3.org/2000/svg">
<circle cx="32" cy="32" r="32" fill="#2E86A1"/>
<path d="M18.5018 26.3954V26.3751C18.5018 24.375 19.0941 22.4197 20.2042 20.7559C21.3142 19.092 22.8921 17.7942 24.7389 17.0262C26.5857 16.2582 28.6186 16.0543 30.5811 16.4404C32.5436 16.8264 34.3478 17.7851 35.7661 19.1954C36.882 18.6446 38.1284 18.4131 39.3677 18.5263C40.6069 18.6395 41.7908 19.0931 42.7884 19.8369C43.786 20.5808 44.5586 21.586 45.0208 22.7414C45.483 23.8968 45.6167 25.1575 45.4073 26.3841C45.7152 26.4127 46.0139 26.5044 46.2847 26.6536C46.5556 26.8028 46.7928 27.0061 46.9815 27.251C47.1703 27.4959 47.3065 27.7771 47.3818 28.077C47.457 28.3769 47.4696 28.6891 47.4188 28.9941C46.4018 35.1119 43.8863 38.9841 39.8768 40.6131V42.1252C39.8768 43.0203 39.5212 43.8787 38.8883 44.5116C38.2554 45.1446 37.3969 45.5002 36.5018 45.5002H27.5018C26.6067 45.5002 25.7483 45.1446 25.1153 44.5116C24.4824 43.8787 24.1268 43.0203 24.1268 42.1252V40.6131C20.1173 38.9841 17.6018 35.1119 16.5848 28.9941C16.5357 28.6972 16.5467 28.3935 16.6171 28.1009C16.6875 27.8084 16.8158 27.5329 16.9946 27.2908C17.1733 27.0487 17.3988 26.8449 17.6577 26.6915C17.9166 26.5381 18.2036 26.4382 18.5018 26.3976V26.3954ZM20.7518 26.3751H23.0018C23.0018 24.8833 23.5944 23.4526 24.6493 22.3977C25.7042 21.3428 27.135 20.7501 28.6268 20.7501C30.1187 20.7501 31.5494 21.3428 32.6043 22.3977C33.6592 23.4526 34.2518 24.8833 34.2518 26.3751H36.5018C36.5018 24.2866 35.6721 22.2835 34.1953 20.8067C32.7184 19.3298 30.7154 18.5001 28.6268 18.5001C26.5382 18.5001 24.5352 19.3298 23.0584 20.8067C21.5815 22.2835 20.7518 24.2866 20.7518 26.3751ZM25.2518 26.3751H32.0018C32.0018 25.48 31.6462 24.6216 31.0133 23.9887C30.3804 23.3557 29.5219 23.0001 28.6268 23.0001C27.7317 23.0001 26.8733 23.3557 26.2403 23.9887C25.6074 24.6216 25.2518 25.48 25.2518 26.3751ZM40.7003 26.3751H43.1101C43.2799 25.7102 43.2958 25.0153 43.1564 24.3433C43.017 23.6713 42.726 23.04 42.3057 22.4975C41.8854 21.955 41.3467 21.5156 40.7309 21.2128C40.115 20.91 39.4381 20.7517 38.7518 20.7501C38.2118 20.7501 37.6988 20.8446 37.2218 21.0179C37.6201 21.6569 37.9486 22.3454 38.2006 23.0676C38.6291 22.9614 39.0794 22.9832 39.4957 23.1306C39.9119 23.2779 40.2757 23.5443 40.5419 23.8965C40.8081 24.2487 40.965 24.6714 40.9932 25.112C41.0214 25.5527 40.9195 25.9919 40.7003 26.3751ZM37.6268 41.0002H26.3768V42.1252C26.3768 42.4235 26.4953 42.7097 26.7063 42.9206C26.9173 43.1316 27.2034 43.2502 27.5018 43.2502H36.5018C36.8002 43.2502 37.0863 43.1316 37.2973 42.9206C37.5083 42.7097 37.6268 42.4235 37.6268 42.1252V41.0002ZM25.5848 38.7502H38.4188C41.9873 37.6026 44.2463 34.3581 45.2003 28.6251H18.8033C19.7573 34.3581 22.0163 37.6026 25.5848 38.7502Z" fill="white"/>
</svg>
