<svg width="64" height="64" viewBox="0 0 64 64" fill="none" xmlns="http://www.w3.org/2000/svg">
<circle cx="32" cy="32" r="32" fill="#207754"/>
<g clip-path="url(#clip0_134_29026)">
<path d="M47.5833 46.1667H22.0833C20.9562 46.1667 19.8752 45.7189 19.0781 44.9219C18.2811 44.1248 17.8333 43.0438 17.8333 41.9167V16.4167C17.8333 16.0409 17.6841 15.6806 17.4184 15.4149C17.1527 15.1493 16.7924 15 16.4167 15C16.0409 15 15.6806 15.1493 15.4149 15.4149C15.1493 15.6806 15 16.0409 15 16.4167V41.9167C15.0022 43.7946 15.7492 45.595 17.0771 46.9229C18.405 48.2508 20.2054 48.9977 22.0833 49H47.5833C47.9591 49 48.3194 48.8507 48.5851 48.5851C48.8507 48.3194 49 47.9591 49 47.5833C49 47.2076 48.8507 46.8473 48.5851 46.5816C48.3194 46.3159 47.9591 46.1667 47.5833 46.1667Z" fill="white"/>
<path d="M23.4987 43.7695C23.8744 43.7695 24.2348 43.5858 24.5004 43.2588C24.7661 42.9318 24.9154 42.4883 24.9154 42.0259V29.8207C24.9154 29.3583 24.7661 28.9148 24.5004 28.5878C24.2348 28.2608 23.8744 28.0771 23.4987 28.0771C23.123 28.0771 22.7626 28.2608 22.497 28.5878C22.2313 28.9148 22.082 29.3583 22.082 29.8207V42.0259C22.082 42.4883 22.2313 42.9318 22.497 43.2588C22.7626 43.5858 23.123 43.7695 23.4987 43.7695Z" fill="white"/>
<path d="M29.168 24.7483V41.8672C29.168 42.3716 29.3172 42.8554 29.5829 43.2122C29.8486 43.5689 30.2089 43.7693 30.5846 43.7693C30.9604 43.7693 31.3207 43.5689 31.5864 43.2122C31.8521 42.8554 32.0013 42.3716 32.0013 41.8672V24.7483C32.0013 24.2438 31.8521 23.76 31.5864 23.4033C31.3207 23.0466 30.9604 22.8462 30.5846 22.8462C30.2089 22.8462 29.8486 23.0466 29.5829 23.4033C29.3172 23.76 29.168 24.2438 29.168 24.7483Z" fill="white"/>
<path d="M36.25 30.0387V41.8079C36.25 42.3282 36.3993 42.8271 36.6649 43.1949C36.9306 43.5628 37.2909 43.7695 37.6667 43.7695C38.0424 43.7695 38.4027 43.5628 38.6684 43.1949C38.9341 42.8271 39.0833 42.3282 39.0833 41.8079V30.0387C39.0833 29.5185 38.9341 29.0195 38.6684 28.6517C38.4027 28.2838 38.0424 28.0771 37.6667 28.0771C37.2909 28.0771 36.9306 28.2838 36.6649 28.6517C36.3993 29.0195 36.25 29.5185 36.25 30.0387Z" fill="white"/>
<path d="M43.332 24.5898V42.0257C43.332 42.4881 43.4813 42.9316 43.747 43.2586C44.0126 43.5856 44.373 43.7693 44.7487 43.7693C45.1244 43.7693 45.4848 43.5856 45.7504 43.2586C46.0161 42.9316 46.1654 42.4881 46.1654 42.0257V24.5898C46.1654 24.1274 46.0161 23.6839 45.7504 23.3569C45.4848 23.0299 45.1244 22.8462 44.7487 22.8462C44.373 22.8462 44.0126 23.0299 43.747 23.3569C43.4813 23.6839 43.332 24.1274 43.332 24.5898Z" fill="white"/>
</g>
<defs>
<clipPath id="clip0_134_29026">
<rect width="34" height="34" fill="white" transform="translate(15 15)"/>
</clipPath>
</defs>
</svg>
