<svg width="24" height="24" viewBox="0 0 24 24" fill="none" xmlns="http://www.w3.org/2000/svg">
<path d="M2.5 2.75C2.5 2.55109 2.42098 2.36032 2.28033 2.21967C2.13968 2.07902 1.94891 2 1.75 2C1.55109 2 1.36032 2.07902 1.21967 2.21967C1.07902 2.36032 1 2.55109 1 2.75V21.25C1 21.664 1.336 22 1.75 22H20C20.1989 22 20.3897 21.921 20.5303 21.7803C20.671 21.6397 20.75 21.4489 20.75 21.25C20.75 21.0511 20.671 20.8603 20.5303 20.7197C20.3897 20.579 20.1989 20.5 20 20.5H2.5V2.75Z" fill="black"/>
<path d="M22.28 7.77997C22.4125 7.63779 22.4846 7.44975 22.4811 7.25545C22.4777 7.06114 22.399 6.87576 22.2616 6.73835C22.1242 6.60093 21.9388 6.52222 21.7445 6.51879C21.5502 6.51537 21.3621 6.58749 21.22 6.71997L15.5 12.44L11.78 8.71997C11.6393 8.57952 11.4487 8.50063 11.25 8.50063C11.0512 8.50063 10.8606 8.57952 10.72 8.71997L4.71997 14.72C4.64628 14.7886 4.58718 14.8714 4.54619 14.9634C4.5052 15.0554 4.48316 15.1547 4.48138 15.2554C4.4796 15.3561 4.49813 15.4562 4.53585 15.5496C4.57357 15.643 4.62971 15.7278 4.70093 15.799C4.77215 15.8702 4.85698 15.9264 4.95037 15.9641C5.04376 16.0018 5.14379 16.0203 5.24449 16.0186C5.3452 16.0168 5.44451 15.9947 5.53651 15.9537C5.62851 15.9128 5.71131 15.8537 5.77997 15.78L11.25 10.31L14.97 14.03C15.1106 14.1704 15.3012 14.2493 15.5 14.2493C15.6987 14.2493 15.8893 14.1704 16.03 14.03L22.28 7.77997Z" fill="black"/>
</svg>
