<svg width="24" height="24" viewBox="0 0 24 24" fill="none" xmlns="http://www.w3.org/2000/svg">
<path d="M7 10L9.293 12.293C9.48053 12.4805 9.73484 12.5858 10 12.5858C10.2652 12.5858 10.5195 12.4805 10.707 12.293L12.293 10.707C12.4805 10.5195 12.7348 10.4142 13 10.4142C13.2652 10.4142 13.5195 10.5195 13.707 10.707L17 14M17 14V11.5M17 14H14.5" stroke="black" stroke-width="1.5" stroke-linecap="round" stroke-linejoin="round"/>
<path d="M19 8C20.6569 8 22 6.65685 22 5C22 3.34315 20.6569 2 19 2C17.3431 2 16 3.34315 16 5C16 6.65685 17.3431 8 19 8Z" stroke="black" stroke-width="1.5"/>
<path d="M22 10.5V12C22 16.714 22 19.071 20.535 20.535C19.072 22 16.714 22 12 22C7.286 22 4.929 22 3.464 20.535C2 19.072 2 16.714 2 12C2 10.872 2 9.878 2.02 9M13.5 2H12C7.286 2 4.929 2 3.464 3.464C3.024 3.905 2.715 4.427 2.5 5.07" stroke="black" stroke-width="1.5" stroke-linecap="round"/>
</svg>
