<svg width="24" height="24" viewBox="0 0 24 24" fill="none" xmlns="http://www.w3.org/2000/svg">
<path d="M17.6252 4.68726C17.1598 4.68673 16.7041 4.82052 16.3127 5.07257V4.12476C16.3128 3.52323 16.0904 2.94292 15.6884 2.49546C15.2864 2.048 14.7331 1.765 14.135 1.7009C13.5369 1.63679 12.9362 1.79611 12.4485 2.14821C11.9608 2.50031 11.6205 3.02031 11.4931 3.6082C11.1266 3.35977 10.6994 3.21583 10.2574 3.19183C9.81531 3.16783 9.37506 3.26467 8.98388 3.47197C8.59271 3.67927 8.26537 3.98919 8.03702 4.36847C7.80866 4.74774 7.68792 5.18205 7.68774 5.62476V12.281L6.9818 11.1466C6.66018 10.5858 6.12896 10.1757 5.50499 10.0066C4.88102 9.83748 4.21542 9.92314 3.65461 10.2448C3.0938 10.5664 2.68373 11.0976 2.51459 11.7216C2.34546 12.3455 2.43112 13.0111 2.75274 13.5719C5.69649 19.781 7.36055 22.3123 12.0002 22.3123C14.1378 22.3098 16.1871 21.4595 17.6985 19.9481C19.21 18.4366 20.0603 16.3873 20.0627 14.2498V7.12476C20.0627 6.80466 19.9997 6.4877 19.8772 6.19197C19.7547 5.89624 19.5752 5.62753 19.3488 5.40118C19.1225 5.17484 18.8538 4.9953 18.558 4.8728C18.2623 4.75031 17.9453 4.68726 17.6252 4.68726ZM18.9377 14.2498C18.9355 16.089 18.2039 17.8523 16.9033 19.1528C15.6028 20.4534 13.8395 21.185 12.0002 21.1873C10.0315 21.1873 8.76493 20.7138 7.61743 19.5513C6.35743 18.281 5.20711 16.1248 3.75961 13.0713L3.73805 13.031C3.564 12.7295 3.51684 12.3713 3.60695 12.035C3.69705 11.6988 3.91704 11.4121 4.21852 11.238C4.52 11.064 4.87827 11.0168 5.21451 11.1069C5.55076 11.197 5.83744 11.417 6.01149 11.7185L6.02086 11.7344L7.77211 14.5469C7.83659 14.651 7.93324 14.7312 8.04741 14.7753C8.16157 14.8194 8.28701 14.8251 8.40471 14.7915C8.5224 14.7579 8.62592 14.6868 8.69955 14.589C8.77319 14.4913 8.81293 14.3722 8.81274 14.2498V5.62476C8.81274 5.27666 8.95102 4.94282 9.19716 4.69668C9.4433 4.45054 9.77714 4.31226 10.1252 4.31226C10.4733 4.31226 10.8072 4.45054 11.0533 4.69668C11.2995 4.94282 11.4377 5.27666 11.4377 5.62476V11.2498C11.4377 11.3989 11.497 11.542 11.6025 11.6475C11.708 11.753 11.8511 11.8123 12.0002 11.8123C12.1494 11.8123 12.2925 11.753 12.398 11.6475C12.5035 11.542 12.5627 11.3989 12.5627 11.2498V4.12476C12.5627 3.77666 12.701 3.44282 12.9472 3.19668C13.1933 2.95054 13.5271 2.81226 13.8752 2.81226C14.2233 2.81226 14.5572 2.95054 14.8033 3.19668C15.0495 3.44282 15.1877 3.77666 15.1877 4.12476V11.2498C15.1877 11.3989 15.247 11.542 15.3525 11.6475C15.458 11.753 15.6011 11.8123 15.7502 11.8123C15.8994 11.8123 16.0425 11.753 16.148 11.6475C16.2535 11.542 16.3127 11.3989 16.3127 11.2498V7.12476C16.3127 6.77666 16.451 6.44282 16.6972 6.19668C16.9433 5.95054 17.2771 5.81226 17.6252 5.81226C17.9733 5.81226 18.3072 5.95054 18.5533 6.19668C18.7995 6.44282 18.9377 6.77666 18.9377 7.12476V14.2498Z" fill="black"/>
</svg>
