<svg width="17" height="14" viewBox="0 0 17 14" fill="none" xmlns="http://www.w3.org/2000/svg">
    <path
        d="M8.50387 2.94737C10.6376 2.94737 12.3693 4.59789 12.3693 6.63158C12.3693 7.11053 12.2688 7.56 12.091 7.98L14.3483 10.1316C15.5157 9.20316 16.4357 8.0021 17 6.63158C15.6626 3.39684 12.3615 1.10526 8.49613 1.10526C7.41382 1.10526 6.3779 1.28947 5.41928 1.62105L7.08913 3.21263C7.52979 3.04316 8.00136 2.94737 8.50387 2.94737ZM0.773079 0.935789L2.5357 2.61579L2.89131 2.95474C1.608 3.90526 0.603001 5.17263 0 6.63158C1.33743 9.86632 4.63847 12.1579 8.50387 12.1579C9.70214 12.1579 10.8463 11.9368 11.8899 11.5389L12.2146 11.8484L14.4798 14L15.4616 13.0642L1.75489 0L0.773079 0.935789ZM5.0482 5.01053L6.24648 6.15263C6.20782 6.30737 6.18463 6.46947 6.18463 6.63158C6.18463 7.85474 7.22055 8.8421 8.50387 8.8421C8.67394 8.8421 8.84402 8.82 9.00637 8.78316L10.2046 9.92526C9.68668 10.1684 9.1146 10.3158 8.50387 10.3158C6.37017 10.3158 4.63847 8.66526 4.63847 6.63158C4.63847 6.04947 4.79309 5.50421 5.0482 5.01053ZM8.38017 4.43579L10.8154 6.75684L10.8308 6.63895C10.8308 5.41579 9.79491 4.42842 8.5116 4.42842L8.38017 4.43579Z"
        fill="#757575" />
</svg>
    