<svg width="64" height="64" viewBox="0 0 64 64" fill="none" xmlns="http://www.w3.org/2000/svg">
<circle cx="32" cy="32" r="32" fill="#2E86A1"/>
<path d="M15.5 42.5V20H18.5V35H30.5V23H42.5C44.15 23 45.5625 23.5875 46.7375 24.7625C47.9125 25.9375 48.5 27.35 48.5 29V42.5H45.5V38H18.5V42.5H15.5ZM24.5 33.5C23.25 33.5 22.1875 33.0625 21.3125 32.1875C20.4375 31.3125 20 30.25 20 29C20 27.75 20.4375 26.6875 21.3125 25.8125C22.1875 24.9375 23.25 24.5 24.5 24.5C25.75 24.5 26.8125 24.9375 27.6875 25.8125C28.5625 26.6875 29 27.75 29 29C29 30.25 28.5625 31.3125 27.6875 32.1875C26.8125 33.0625 25.75 33.5 24.5 33.5ZM33.5 35H45.5V29C45.5 28.175 45.206 27.4685 44.618 26.8805C44.03 26.2925 43.324 25.999 42.5 26H33.5V35ZM24.5 30.5C24.925 30.5 25.2815 30.356 25.5695 30.068C25.8575 29.78 26.001 29.424 26 29C26 28.575 25.856 28.2185 25.568 27.9305C25.28 27.6425 24.924 27.499 24.5 27.5C24.075 27.5 23.7185 27.644 23.4305 27.932C23.1425 28.22 22.999 28.576 23 29C23 29.425 23.144 29.7815 23.432 30.0695C23.72 30.3575 24.076 30.501 24.5 30.5Z" fill="white"/>
</svg>
