<svg width="32" height="32" viewBox="0 0 32 32" fill="none" xmlns="http://www.w3.org/2000/svg">
<path d="M16.0001 29.3337C23.3641 29.3337 29.3334 23.3643 29.3334 16.0003C29.3334 8.63633 23.3641 2.66699 16.0001 2.66699C8.63608 2.66699 2.66675 8.63633 2.66675 16.0003C2.66675 23.3643 8.63608 29.3337 16.0001 29.3337Z" stroke="black" stroke-opacity="0.5" stroke-width="1.5" stroke-linecap="round" stroke-linejoin="round"/>
<path d="M20 11.334C19.0867 10.4207 17.4787 9.78598 16 9.74598M16 9.74598C14.24 9.69798 12.6667 10.494 12.6667 12.6673C12.6667 16.6673 20 14.6673 20 18.6673C20 20.9487 18.048 21.9287 16 21.8553M16 9.74598V7.33398M12 20.0007C12.8587 21.1473 14.4573 21.8007 16 21.8553M16 21.8553V24.6673" stroke="black" stroke-opacity="0.5" stroke-width="1.5" stroke-linecap="round" stroke-linejoin="round"/>
</svg>
