<svg width="40" height="40" viewBox="0 0 40 40" fill="none" xmlns="http://www.w3.org/2000/svg">
<path d="M20 36.6667C29.205 36.6667 36.6667 29.205 36.6667 20C36.6667 10.795 29.205 3.33337 20 3.33337C10.795 3.33337 3.33334 10.795 3.33334 20C3.33334 29.205 10.795 36.6667 20 36.6667Z" stroke="white" stroke-opacity="0.5" stroke-width="1.5" stroke-linecap="round" stroke-linejoin="round"/>
<path d="M25 14.1667C23.8583 13.0251 21.8483 12.2317 20 12.1817M20 12.1817C17.8 12.1217 15.8333 13.1167 15.8333 15.8334C15.8333 20.8334 25 18.3334 25 23.3334C25 26.1851 22.56 27.4101 20 27.3184M20 12.1817V9.16675M15 25.0001C16.0733 26.4334 18.0717 27.2501 20 27.3184M20 27.3184V30.8334" stroke="white" stroke-opacity="0.5" stroke-width="1.5" stroke-linecap="round" stroke-linejoin="round"/>
</svg>
