<svg width="1920" height="379" viewBox="0 0 1920 379" fill="none" xmlns="http://www.w3.org/2000/svg">
<path d="M1529.82 0.00402102C1529.39 0.0134698 1528.97 0.0361433 1528.58 0.07957V0.0863752C1516.74 0.41561 1505.3 7.91012 1500.78 18.9461C1498.2 25.158 1498.07 32.1539 1499.1 38.7201C1501.31 52.0942 1513.87 62.4095 1527.21 63.198C1533.39 63.5419 1539.87 63.3488 1545.62 60.8398C1554.41 56.9607 1561.72 49.1507 1563.76 39.6092C1565.14 31.8083 1564.72 23.3011 1560.96 16.2032C1555.56 6.56291 1544.9 0.167967 1533.84 0.0800891C1532.55 0.0800891 1531.11 -0.0211506 1529.82 0.00402102ZM742.309 2.17311L742.335 2.19241C725.934 2.97564 708.972 5.79295 694.906 14.8223C682.048 22.839 673.407 36.5422 670.138 51.1924C667.651 61.2353 667.54 71.6605 667.609 81.9506C661.991 81.9506 655.573 81.0547 650.862 84.8511C646.713 87.9087 644.667 93.2055 645.162 98.2755C645.162 104.206 645.024 110.158 645.162 116.076C645.988 122.789 652.236 128.236 659.008 128.264C661.825 128.47 664.654 128.264 667.47 128.264V268.095C667.471 272.637 669.275 276.993 672.487 280.204C675.698 283.416 680.054 285.221 684.596 285.221H706.407C710.949 285.221 715.305 283.416 718.516 280.205C721.728 276.993 723.532 272.637 723.532 268.095V128.296C731.088 128.296 738.666 128.529 746.207 128.006C752.801 127.032 758.121 120.933 758.162 114.26C758.3 108.716 758.163 103.162 758.301 97.6137C758.575 92.3881 756.267 86.9403 751.693 84.1641C748.286 81.8919 744.092 81.5987 740.122 81.85H723.558C723.558 73.5201 723.011 64.4136 727.902 57.1703C731.611 52.0616 738.163 50.5318 744.07 49.7172C750.883 48.1431 756.581 41.675 756.1 34.4894C756.1 27.7143 756.375 20.9155 756.1 14.1542C755.14 7.56066 749.013 2.09085 742.309 2.17311ZM867.133 2.17311L867.159 2.19241C850.757 2.97564 833.795 5.79295 819.729 14.8223C806.872 22.839 798.231 36.5422 794.961 51.1924C792.475 61.2353 792.364 71.6605 792.433 81.9506C786.814 81.9506 780.403 81.0547 775.692 84.8511C771.543 87.9087 769.491 93.2055 769.985 98.2755C769.985 104.206 769.847 110.158 769.985 116.076C770.811 122.789 777.06 128.236 783.832 128.264C786.648 128.47 789.478 128.264 792.294 128.264V268.095C792.294 270.344 792.737 272.572 793.598 274.65C794.459 276.728 795.721 278.616 797.312 280.207C798.903 281.797 800.792 283.058 802.87 283.919C804.949 284.779 807.176 285.221 809.426 285.221H831.23C835.772 285.221 840.128 283.416 843.34 280.205C846.552 276.993 848.356 272.637 848.356 268.095V128.296C855.911 128.296 863.495 128.529 871.037 128.006C877.631 127.032 882.945 120.933 882.986 114.26C883.124 108.716 882.986 103.162 883.125 97.6137C883.399 92.3881 881.091 86.9403 876.517 84.1641C873.11 81.8919 868.922 81.5987 864.952 81.85H848.382C848.382 73.5201 847.836 64.4136 852.726 57.1703C856.435 52.0616 862.987 50.5318 868.893 49.7172C875.707 48.1431 881.405 41.675 880.924 34.4894C880.924 27.7143 881.199 20.9155 880.924 14.1542C879.962 7.56066 873.836 2.09085 867.133 2.17311ZM1684.39 2.17311L1684.43 2.19241C1668.03 2.97564 1651.06 5.79295 1636.99 14.8223C1624.13 22.839 1615.49 36.5422 1612.22 51.1924C1609.74 61.2353 1609.63 71.6605 1609.7 81.9506C1604.08 81.9506 1597.67 81.0547 1592.95 84.8511C1588.81 87.9087 1586.76 93.2055 1587.25 98.2755C1587.25 104.206 1587.12 110.158 1587.25 116.076C1588.08 122.789 1594.33 128.236 1601.1 128.264C1603.92 128.47 1606.75 128.264 1609.56 128.264V268.095C1609.56 272.637 1611.37 276.993 1614.58 280.204C1617.79 283.416 1622.15 285.221 1626.69 285.221H1648.49C1653.03 285.221 1657.39 283.416 1660.6 280.205C1663.81 276.993 1665.62 272.637 1665.62 268.095V128.296C1673.17 128.296 1680.76 128.529 1688.3 128.006C1694.89 127.032 1700.21 120.933 1700.25 114.26C1700.39 108.716 1700.25 103.162 1700.39 97.6137C1700.66 92.3881 1698.35 86.9403 1693.78 84.1641C1690.37 81.8919 1686.18 81.5987 1682.21 81.85H1665.65C1665.65 73.5201 1665.1 64.4136 1669.99 57.1703C1673.7 52.0616 1680.25 50.5318 1686.16 49.7172C1692.97 48.1431 1698.67 41.675 1698.19 34.4894C1698.19 27.7143 1698.47 20.9155 1698.19 14.1542C1697.23 7.56066 1691.1 2.09085 1684.39 2.17311ZM1441.86 15.3957C1440.97 15.3974 1440.08 15.4338 1439.2 15.5029L1439.27 15.44C1431.33 15.44 1423.37 15.3021 1415.45 15.5788C1414.48 15.7173 1413.43 15.881 1412.45 16.1967C1413.55 17.1184 1410.73 16.8532 1410.39 17.0038C1405.25 19.3322 1402.15 24.8969 1402.23 30.4534V104.814C1384.56 85.7915 1357.57 76.836 1331.97 79.1066C1311.61 80.7618 1291.78 89.4036 1277.15 103.761C1260.79 119.609 1251.07 141.474 1248.09 163.89C1245.41 183.054 1246.62 202.875 1252.31 221.403C1258.85 242.494 1272.08 261.819 1290.68 274.016C1307.75 285.362 1328.84 290.136 1349.17 288.09C1368.18 286.345 1386.94 278.256 1399.9 263.99C1400.72 263.138 1401.43 262.263 1402.16 261.373C1402.16 265.946 1401.75 270.641 1402.71 275.125C1404.46 280.813 1409.9 285.088 1415.87 285.246C1423.09 285.411 1430.3 285.246 1437.51 285.246C1442.3 285.108 1447.6 285.798 1451.71 282.761C1455.76 280.116 1458.16 275.376 1458.1 270.554C1458.23 262.912 1458.1 255.26 1458.1 247.615V28.732C1457.68 21.7373 1451.53 15.7201 1444.53 15.5031C1443.64 15.4272 1442.75 15.3941 1441.86 15.3957ZM498.923 78.684C498.048 78.6772 497.176 78.6807 496.3 78.6908L496.281 78.71C473.849 79.1494 451.501 88.1107 435.553 104.033C418.492 120.741 408.849 144.008 406.39 167.561C403.753 191.552 407.076 216.573 418.037 238.239C427.46 256.778 442.931 272.467 462.08 280.877C485.584 291.289 513.648 291.026 536.876 279.956C546.162 275.482 554.666 269.056 561.411 261.355C561.411 267.073 562.782 272.991 566.67 277.346C571.189 282.777 578.359 285.668 585.378 285.215C591.738 285.076 598.541 286.067 604.421 283.071C612.113 279.427 617.429 271.13 617.044 262.559V103.175C616.906 92.6501 608.056 83.0815 597.548 82.1337C592.808 81.6527 588.018 81.917 583.266 81.9319C575.202 81.9319 567.468 86.7895 563.883 93.9943C562.069 97.4312 561.271 101.352 561.436 105.224C547.645 89.6758 527.424 80.4882 506.805 79.0061C504.178 78.7895 501.551 78.6991 498.923 78.684ZM992.599 78.7097C991.561 78.7064 990.521 78.7129 989.484 78.7354C964.374 79.1612 939.043 87.8736 920.319 104.891C902.448 120.923 891.458 143.881 888.697 167.611C886.06 188.399 888.422 210.013 896.554 229.38C904.59 248.214 918.688 264.472 936.518 274.615C959.665 287.904 987.699 291.263 1013.72 286.293C1036.11 282.012 1057.32 270.61 1072.24 253.221C1086.43 236.786 1094.64 215.584 1096.23 194C1098.21 171.007 1093.97 147.095 1082.16 127.098C1072.02 109.902 1056.37 96.069 1038.07 88.099C1023.82 81.7566 1008.17 78.7717 992.599 78.7097ZM1224.53 79.9014C1223.85 79.9014 1223.16 80.0418 1222.54 80.0967L1222.59 80.0147C1204.63 82.494 1187.84 92.3662 1176.91 106.826C1176.91 102.055 1177.32 97.1995 1176.36 92.4933C1174.66 85.8559 1167.76 81.2359 1160.97 81.9189C1151.91 81.9189 1142.84 81.7098 1133.79 82.1775C1127.08 83.044 1121.62 89.2003 1121.58 95.974C1121.44 101.834 1121.58 107.703 1121.58 113.566V271.998C1121.99 278.942 1128.05 284.901 1134.98 285.221C1141.91 285.426 1148.83 285.221 1155.75 285.359C1160.7 285.221 1166.21 286.009 1170.46 282.875C1174.52 280.238 1176.91 275.49 1176.84 270.674V179.112C1177.39 167.894 1179.69 155.561 1188.03 147.282C1193.18 142.195 1200.23 139.46 1207.11 138.189C1213.42 136.843 1219.89 137.339 1226.26 136.676C1232.28 135.301 1237.08 129.829 1237.39 123.63C1237.8 118.407 1237.39 113.162 1237.39 107.929C1237.39 102.142 1237.66 96.3216 1237.25 90.5576C1236.29 85.7747 1232.58 81.6176 1227.86 80.3112C1228.27 79.72 1225.5 80.052 1224.53 79.9014ZM1753.41 81.8624C1752.91 81.8595 1752.41 81.8753 1751.91 81.9128C1741.06 81.9128 1730.21 81.7749 1719.37 82.0516C1713.44 82.6684 1708.86 89.0448 1710.52 94.858C1711.49 98.7829 1713.57 102.324 1714.91 106.132C1737.2 160.392 1759.58 214.615 1781.82 268.896C1784.29 275.665 1783.42 283.327 1780.16 289.679C1769.3 314.721 1758.35 339.731 1747.54 364.79C1745.63 369.363 1747.54 375.128 1751.93 377.489C1755.7 379.817 1760.29 378.685 1764.47 378.965C1772.9 378.965 1781.35 379.136 1789.77 378.643C1797.41 377.696 1803.96 371.912 1806.37 364.67C1844.05 275.05 1881.76 185.442 1919.37 95.7913C1921.86 89.5398 1916.59 81.6762 1909.76 81.9949C1900.97 81.8296 1892.17 82.0017 1883.37 81.8625H1881.27V81.8818C1877.31 81.8818 1873.28 82.4457 1869.87 84.5932C1865.23 87.2128 1862.05 91.8393 1860.57 96.8889C1846.48 134.367 1832.41 171.859 1818.41 209.373C1818.27 210.884 1816.51 213.053 1815.03 211.497C1813.79 209.452 1813.39 206.982 1812.37 204.801C1798.63 167.702 1784.99 130.566 1771.17 93.5028C1768.21 86.5604 1760.91 81.9056 1753.41 81.8624ZM1523.71 81.9002C1521.53 81.907 1519.36 81.9293 1517.19 81.9632C1510.5 82.2373 1504.42 87.6591 1503.67 94.3724C1503.12 99.566 1503.66 104.798 1503.53 110.01V271.967C1503.94 278.796 1509.84 284.775 1516.71 285.132C1522.15 285.435 1527.62 285.133 1533.07 285.271C1538.02 285.133 1543.05 285.626 1547.95 284.817C1554.08 283.349 1558.82 277.45 1558.75 271.109C1559.03 264.648 1558.75 258.168 1558.75 251.701V95.0283C1558.34 87.4785 1550.95 81.3206 1543.45 81.9633C1536.87 81.9633 1530.28 81.8805 1523.71 81.9002ZM991.477 127.609C1006.33 127.443 1021.34 134.539 1029.74 146.954C1037.56 158.06 1040.13 172.02 1039.95 185.298C1039.95 199.849 1035.38 215.221 1024.78 225.747C1014.34 236.605 998.237 241.223 983.608 239.046C974.693 237.795 965.748 233.701 959.237 227.21C950.13 218.301 945.554 205.515 944.318 193.23C943.219 182.484 943.91 171.438 946.973 161.179C950.544 149.288 958.468 138.436 969.691 132.773C976.381 129.297 983.949 127.635 991.477 127.609ZM511.478 127.949C523.552 127.811 535.912 132.455 544.909 140.926C554.772 150.131 560.063 163.621 561.121 177.006C562.357 191.405 559.691 207.056 551.051 219.127C543.921 229.323 532.368 236.493 519.977 238.453C511.433 239.949 501.794 239.085 493.62 235.697C485.516 232.428 478.113 226.612 472.907 219.366C465.462 209.322 462.187 196.624 461.967 184.371C461.693 170.534 465.141 156.16 474.111 145.34C483.04 134.164 497.26 127.896 511.478 127.949ZM1352.71 127.949C1364.5 127.797 1376.77 132.31 1385.69 140.529C1395.65 149.655 1400.95 162.717 1402.22 176.003C1403.62 190.188 1401.26 205.627 1393.17 217.79C1385.65 229.426 1372.75 237.192 1359.04 238.775C1352.63 239.601 1345.29 239.107 1338.8 237.104C1326.35 233.365 1315.9 224.181 1309.99 212.682C1303.88 200.889 1302.22 187.13 1303.7 174.036C1304.52 167.695 1305.87 161.928 1308.57 156.11C1314.05 144.007 1324.66 134.245 1337.42 130.326C1342.35 128.738 1347.53 127.96 1352.71 127.949Z" fill="black"/>
<path fill-rule="evenodd" clip-rule="evenodd" d="M152.081 19.7455L147.073 27.7397C134.863 48.7615 123.146 70.0621 110.771 90.9853C74.5236 153.06 38.4218 215.209 2.35643 277.387C-2.28774 286.588 0.290962 298.147 6.9588 305.676C11.836 311.451 19.278 314.808 26.8276 314.769C31.7744 314.801 36.7304 314.575 41.6804 314.779C89.8217 314.973 137.969 315.298 186.114 315.179C186.179 315.18 186.24 315.187 186.311 315.189C186.349 315.189 186.363 315.185 186.399 315.177C192.937 315.177 199.479 313.185 204.73 309.213C213.99 302.547 218.951 290.498 217.066 279.245C215.212 267.769 206.592 257.571 195.339 254.353C192.047 253.357 188.59 252.913 185.15 253.039C185.112 253.038 185.101 253.043 185.064 253.05L89.2994 253.046L99.8772 233.802L171.104 110.427C173.645 112.681 176.135 114.966 178.575 117.28C178.862 117.548 179.157 117.805 179.445 118.075C182.203 120.666 184.937 123.3 187.634 126C190.331 128.7 192.993 131.458 195.609 134.295C198.226 137.131 200.795 140.045 203.311 143.046C205.826 146.046 208.29 149.137 210.686 152.329C213.083 155.521 215.412 158.816 217.669 162.227C219.927 165.638 222.109 169.161 224.208 172.818C226.307 176.476 228.329 180.267 230.251 184.199C231.211 186.164 232.144 188.165 233.056 190.205C233.969 192.245 234.856 194.322 235.719 196.439C236.582 198.556 237.422 200.715 238.231 202.913C239.04 205.11 239.816 207.348 240.57 209.63C241.324 211.911 242.055 214.231 242.752 216.599C243.448 218.968 244.111 221.387 244.747 223.846C245.384 226.306 245.99 228.808 246.563 231.362C247.137 233.916 247.675 236.519 248.183 239.17C248.692 241.822 249.171 244.525 249.612 247.278C250.053 250.031 250.457 252.832 250.828 255.689C251.199 258.547 251.533 261.456 251.832 264.421C252.13 267.387 252.395 270.413 252.619 273.49C252.843 276.567 253.029 279.698 253.176 282.89C253.322 286.082 253.428 289.334 253.494 292.644C253.561 295.955 253.59 299.323 253.575 302.755C253.559 306.187 253.504 309.683 253.404 313.241L253.402 313.249C253.292 314.454 253.26 315.667 253.295 316.874C253.294 316.891 253.297 316.908 253.297 316.924L253.295 316.932C253.336 318.22 253.46 319.511 253.661 320.785C253.861 322.059 254.141 323.319 254.494 324.56C254.847 325.802 255.273 327.02 255.769 328.211C256.267 329.402 256.834 330.567 257.468 331.691C258.103 332.814 258.801 333.897 259.565 334.935C260.33 335.973 261.159 336.968 262.046 337.904C262.932 338.839 263.875 339.717 264.877 340.531C265.879 341.347 266.939 342.096 268.048 342.772C269.368 343.627 270.752 344.367 272.185 344.994C273.618 345.621 275.098 346.133 276.609 346.532C278.12 346.933 279.665 347.217 281.221 347.39C282.32 347.512 283.423 347.513 284.529 347.522C292.011 347.396 299.462 344.839 305.168 340.049C305.295 339.937 305.437 339.833 305.566 339.719C306.241 339.132 306.894 338.512 307.514 337.862C307.626 337.747 307.724 337.62 307.828 337.502C308.425 336.852 309.011 336.192 309.55 335.483C311.921 332.248 313.643 328.695 314.939 324.97C314.99 324.796 315.064 324.63 315.112 324.455C315.176 324.26 315.229 324.061 315.304 323.869C317.264 317.801 318.166 311.325 318.832 305.04C320.043 286.843 318.34 268.604 315.907 250.572C305.457 181.364 271.347 115.466 219.158 68.5212C210.49 60.7436 201.254 53.6475 192.038 46.5322C180.485 37.7346 168.539 29.4217 156.043 22.0399L152.081 19.7455ZM181.327 169.13C178.031 169.083 174.728 169.553 171.581 170.558L171.583 170.55C160.44 173.955 151.684 183.999 149.889 195.514C147.78 207.711 153.63 220.877 164.226 227.342C174.782 234.179 189.519 233.717 199.582 226.106C208.973 219.345 214 207.134 212.088 195.723C210.208 184.085 201.475 173.738 190.063 170.474C189.875 170.419 189.693 170.358 189.503 170.307C189.315 170.256 189.12 170.214 188.931 170.163C186.451 169.514 183.891 169.165 181.327 169.13Z" fill="black"/>
</svg>
