<svg width="15" height="11" viewBox="0 0 15 11" fill="none" xmlns="http://www.w3.org/2000/svg">
<path d="M14.5312 0.9375H0.46875C0.34443 0.9375 0.225201 0.888114 0.137294 0.800206C0.049386 0.712299 0 0.59307 0 0.46875C0 0.34443 0.049386 0.225201 0.137294 0.137294C0.225201 0.0493861 0.34443 0 0.46875 0H14.5312C14.6556 0 14.7748 0.0493861 14.8627 0.137294C14.9506 0.225201 15 0.34443 15 0.46875C15 0.59307 14.9506 0.712299 14.8627 0.800206C14.7748 0.888114 14.6556 0.9375 14.5312 0.9375Z" fill="black"/>
<path d="M14.5312 5.625H0.46875C0.34443 5.625 0.225201 5.57561 0.137294 5.48771C0.049386 5.3998 0 5.28057 0 5.15625C0 5.03193 0.049386 4.9127 0.137294 4.82479C0.225201 4.73689 0.34443 4.6875 0.46875 4.6875H14.5312C14.6556 4.6875 14.7748 4.73689 14.8627 4.82479C14.9506 4.9127 15 5.03193 15 5.15625C15 5.28057 14.9506 5.3998 14.8627 5.48771C14.7748 5.57561 14.6556 5.625 14.5312 5.625Z" fill="black"/>
<path d="M14.5312 10.3125H0.46875C0.34443 10.3125 0.225201 10.2631 0.137294 10.1752C0.049386 10.0873 0 9.96807 0 9.84375C0 9.71943 0.049386 9.6002 0.137294 9.51229C0.225201 9.42439 0.34443 9.375 0.46875 9.375H14.5312C14.6556 9.375 14.7748 9.42439 14.8627 9.51229C14.9506 9.6002 15 9.71943 15 9.84375C15 9.96807 14.9506 10.0873 14.8627 10.1752C14.7748 10.2631 14.6556 10.3125 14.5312 10.3125Z" fill="black"/>
</svg>
