<svg width="428" height="428" viewBox="0 0 428 428" fill="none" xmlns="http://www.w3.org/2000/svg">
<path fill-rule="evenodd" clip-rule="evenodd" d="M192.668 0.666504H86.0013C38.876 0.666504 0.667969 38.8745 0.667969 85.9998V342C0.667969 389.125 38.876 427.333 86.0013 427.333H342.001C389.127 427.333 427.335 389.125 427.335 342C427.335 293.552 427.335 235.333 427.335 235.333C427.335 223.557 417.777 214 406.001 214C394.225 214 384.668 223.557 384.668 235.333V342C384.668 365.552 365.553 384.667 342.001 384.667C270.961 384.667 157.02 384.667 86.0013 384.667C62.428 384.667 43.3346 365.552 43.3346 342C43.3346 270.96 43.3346 157.019 43.3346 85.9998C43.3346 62.4265 62.428 43.3332 86.0013 43.3332H192.668C204.444 43.3332 214.001 33.7758 214.001 21.9998C214.001 10.2238 204.444 0.666504 192.668 0.666504ZM354.503 43.3332H278.001C266.225 43.3332 256.668 33.7758 256.668 21.9998C256.668 10.2238 266.225 0.666504 278.001 0.666504H406.001C417.777 0.666504 427.335 10.2238 427.335 21.9998V150C427.335 161.776 417.777 171.333 406.001 171.333C394.225 171.333 384.668 161.776 384.668 150V73.4985L229.084 229.083C220.764 237.403 207.239 237.403 198.919 229.083C190.577 220.763 190.577 207.237 198.919 198.917L354.503 43.3332Z" fill="url(#paint0_linear_969_5706)"/>
<defs>
<linearGradient id="paint0_linear_969_5706" x1="416" y1="11" x2="4.00001" y2="417.5" gradientUnits="userSpaceOnUse">
<stop stop-color="#0F0F0F"/>
<stop offset="1" stop-color="#EFEFEF"/>
</linearGradient>
</defs>
</svg>
