<svg width="37" height="36" viewBox="0 0 37 36" fill="none" xmlns="http://www.w3.org/2000/svg">
<path d="M31.9392 17.3745C31.9797 17.7638 32 18.171 32 18.6008C32 21.519 30.983 23.481 29.9975 24.7095C29.5996 25.2084 29.1442 25.6585 28.6408 26.0505C28.4706 26.1816 28.2933 26.3033 28.1097 26.415L28.0895 26.4263C27.9111 26.5228 27.7622 26.6658 27.6584 26.8401C27.5546 27.0143 27.4999 27.2134 27.5 27.4163V30.375C27.5 30.6734 27.3815 30.9595 27.1705 31.1705C26.9595 31.3815 26.6734 31.5 26.375 31.5H25.25C25.25 30.9033 25.0129 30.331 24.591 29.909C24.169 29.4871 23.5967 29.25 23 29.25H18.5C17.9033 29.25 17.331 29.4871 16.909 29.909C16.4871 30.331 16.25 30.9033 16.25 31.5H15.125C14.8266 31.5 14.5405 31.3815 14.3295 31.1705C14.1185 30.9595 14 30.6734 14 30.375V29.0183C14.0003 28.7392 13.8968 28.4699 13.7097 28.2629C13.5226 28.0558 13.2652 27.9257 12.9875 27.8978C12.631 27.8204 12.2817 27.7127 11.9435 27.576C11.0463 27.214 10.2325 26.6727 9.55175 25.9853C8.555 24.9728 7.94525 23.6408 7.61675 22.716C7.295 21.7958 6.557 20.9633 5.50175 20.6663C5.35735 20.6252 5.23026 20.5382 5.13972 20.4184C5.04919 20.2986 5.00014 20.1526 5 20.0025V18.216C4.99988 18.0743 5.04592 17.9363 5.13117 17.823C5.21642 17.7098 5.33624 17.6274 5.4725 17.5883C6.56375 17.2755 7.29275 16.3935 7.601 15.462C7.853 14.697 8.2985 13.716 9.023 12.9803C9.853 12.1516 10.812 11.4632 11.8625 10.9418C11.9503 10.8968 12.02 10.8653 12.065 10.845L12.11 10.8225L12.119 10.8203C12.3215 10.7335 12.4941 10.5891 12.6152 10.4051C12.7364 10.2211 12.8009 10.0056 12.8007 9.78526V6.01876C13.3012 6.44562 13.8272 6.8416 14.3757 7.20451C15.089 7.67251 15.9215 8.11576 16.7923 8.35201C17.0487 7.61401 17.3997 6.91201 17.8363 6.26401H17.8228C17.195 6.19876 16.4278 5.85901 15.6065 5.32126C14.8539 4.81528 14.1463 4.24543 13.4915 3.61801C13.2468 3.3885 12.941 3.23456 12.6109 3.17469C12.2808 3.11481 11.9405 3.15156 11.6307 3.28051C11.3131 3.40641 11.0404 3.62459 10.8479 3.90693C10.6554 4.18926 10.5519 4.5228 10.5507 4.86451V9.08776C9.40356 9.70611 8.35045 10.485 7.42325 11.4008C6.35 12.4853 5.76725 13.8398 5.46575 14.7555C5.33975 15.1313 5.08775 15.3585 4.85375 15.4238C4.24767 15.5972 3.71455 15.9634 3.33499 16.4667C2.95544 16.9701 2.75009 17.5833 2.75 18.2138V20.0025C2.75 21.3188 3.62525 22.473 4.88975 22.8308C5.03364 22.8809 5.16367 22.9643 5.26923 23.0741C5.3748 23.184 5.45293 23.3172 5.49725 23.463C5.87075 24.525 6.61775 26.2148 7.94975 27.5648C9.01016 28.6366 10.3139 29.4363 11.75 29.8958V30.375C11.75 31.2701 12.1056 32.1286 12.7385 32.7615C13.3714 33.3944 14.2299 33.75 15.125 33.75H16.25C16.8467 33.75 17.419 33.513 17.841 33.091C18.2629 32.669 18.5 32.0968 18.5 31.5H23C23 32.0968 23.2371 32.669 23.659 33.091C24.081 33.513 24.6533 33.75 25.25 33.75H26.375C27.2701 33.75 28.1286 33.3944 28.7615 32.7615C29.3944 32.1286 29.75 31.2701 29.75 30.375V28.0283C30.5 27.4831 31.1735 26.8399 31.7525 26.1158C33.017 24.5408 34.25 22.0928 34.25 18.6008C34.25 17.1383 34.043 15.8288 33.6425 14.6588C33.2414 15.6584 32.6646 16.5782 31.9392 17.3745ZM31.5298 8.71876C32.0922 10.0761 32.1966 11.5798 31.8271 13.0018C31.4576 14.4238 30.6343 15.6865 29.4822 16.5983C28.544 17.3385 27.2593 17.2823 26.1567 16.8233L20.7792 14.598C19.6767 14.1413 18.7272 13.2728 18.5877 12.087C18.4009 10.4697 18.8047 8.8394 19.7248 7.49626C20.6448 6.15313 22.0192 5.18763 23.5947 4.77758C25.1703 4.36753 26.8409 4.54054 28.299 5.26475C29.7571 5.98896 30.9045 7.21559 31.5298 8.71876ZM28.0872 14.832C28.7031 14.3454 29.181 13.7062 29.4736 12.9779C29.7662 12.2496 29.8633 11.4575 29.7553 10.68C29.6473 9.90263 29.338 9.16695 28.8579 8.54597C28.3779 7.92499 27.7439 7.4403 27.0187 7.13995C26.2936 6.8396 25.5025 6.73404 24.724 6.83374C23.9455 6.93344 23.2065 7.23493 22.5805 7.70831C21.9544 8.1817 21.463 8.81052 21.1549 9.53242C20.8468 10.2543 20.7329 11.0442 20.8242 11.8238C20.8288 11.8688 20.8468 11.952 20.9727 12.0848C21.1634 12.2738 21.3908 12.4216 21.641 12.519L27.0185 14.7465C27.2641 14.8562 27.5303 14.9122 27.7993 14.9108C27.9792 14.9063 28.0535 14.859 28.0872 14.832ZM13.4375 16.875C13.8851 16.875 14.3143 16.6972 14.6307 16.3808C14.9472 16.0643 15.125 15.6351 15.125 15.1875C15.125 14.74 14.9472 14.3107 14.6307 13.9943C14.3143 13.6778 13.8851 13.5 13.4375 13.5C12.9899 13.5 12.5607 13.6778 12.2443 13.9943C11.9278 14.3107 11.75 14.74 11.75 15.1875C11.75 15.6351 11.9278 16.0643 12.2443 16.3808C12.5607 16.6972 12.9899 16.875 13.4375 16.875Z" fill="black"/>
</svg>
