<svg width="24" height="22" viewBox="0 0 24 22" fill="none" xmlns="http://www.w3.org/2000/svg">
<path d="M23.8362 10.496C22.3794 8.58747 20.6298 6.92143 18.6522 5.55979L22.0345 2.17754C22.375 1.84868 22.3844 1.30607 22.0556 0.965563C21.7267 0.625053 21.1841 0.615611 20.8436 0.94447C20.8365 0.95135 20.8294 0.958382 20.8225 0.965563L17.1274 4.65724C15.5546 3.7916 13.795 3.32096 12 3.2858C5.48577 3.2858 0.378115 10.2012 0.163814 10.496C-0.0546047 10.7965 -0.0546047 11.2035 0.163814 11.504C1.62058 13.4125 3.37019 15.0786 5.34776 16.4402L1.96551 19.8225C1.62499 20.1513 1.61555 20.6939 1.94441 21.0344C2.27327 21.3749 2.81588 21.3844 3.15639 21.0555C3.16352 21.0486 3.17055 21.0416 3.17748 21.0344L6.87257 17.3428C8.4454 18.2084 10.205 18.679 12 18.7142C18.5142 18.7142 23.6219 11.7988 23.8362 11.504C24.0546 11.2035 24.0546 10.7965 23.8362 10.496ZM6.59404 15.1965C4.84794 14.0336 3.2828 12.6196 1.94923 11C3.21093 9.47174 7.30288 5.00006 12 5.00006C13.3364 5.02708 14.6503 5.34906 15.8477 5.94289L14.3597 7.43089C12.3909 6.12384 9.73537 6.66022 8.42832 8.62895C7.4762 10.0631 7.4762 11.9281 8.42832 13.3622L6.59404 15.1965ZM14.3143 9.89858C14.482 10.2416 14.57 10.6182 14.5714 11C14.5714 12.4202 13.4202 13.5714 12 13.5714C11.6182 13.57 11.2416 13.482 10.8986 13.3143L14.3143 9.89858ZM9.68575 12.1014C9.518 11.7584 9.43006 11.3818 9.42861 11C9.42861 9.57982 10.5799 8.42856 12 8.42856C12.3819 8.43002 12.7584 8.51796 13.1014 8.6857L9.68575 12.1014ZM12 16.9999C10.6636 16.9729 9.34981 16.6509 8.15235 16.0571L9.64035 14.5691C11.6091 15.8761 14.2647 15.3398 15.5717 13.371C16.5238 11.9369 16.5238 10.0719 15.5717 8.63774L17.406 6.80346C19.1521 7.96641 20.7172 9.38049 22.0508 11C20.789 12.5283 16.6971 16.9999 12 16.9999Z" fill="black"/>
</svg>
