<svg width="24" height="24" viewBox="0 0 24 24" fill="none" xmlns="http://www.w3.org/2000/svg">
<path fill-rule="evenodd" clip-rule="evenodd" d="M7.85711 8.5033C7.49616 8.5033 7.16321 8.69782 6.98597 9.01226L3.83658 14.5996C1.65133 18.4764 4.59068 23.1775 9.19994 23.1775H14.77C19.3793 23.1775 22.3186 18.4765 20.1334 14.5996L16.984 9.01226C16.8067 8.69782 16.4738 8.5033 16.1128 8.5033H7.85711ZM15.0962 14.5199C15.3818 14.2199 15.3703 13.7452 15.0703 13.4595C14.7704 13.1739 14.2956 13.1854 14.01 13.4854L11.2882 16.3433C11.2819 16.3498 11.2781 16.3514 11.2776 16.3517C11.2766 16.3521 11.276 16.3521 11.2758 16.3521C11.2755 16.3521 11.2749 16.3521 11.2739 16.3517C11.2734 16.3514 11.2696 16.3498 11.2634 16.3433L9.98579 15.0018C9.70013 14.7019 9.2254 14.6903 8.92545 14.976C8.6255 15.2616 8.61392 15.7364 8.89959 16.0363L10.1772 17.3778C10.7795 18.0102 11.772 18.0102 12.3744 17.3778L15.0962 14.5199Z" fill="#45B386"/>
<path fill-rule="evenodd" clip-rule="evenodd" d="M14.0302 1.8972C15.2536 1.2855 16.6453 2.34849 16.3771 3.68974L15.8962 6.09403C15.7326 6.91202 15.0144 7.50083 14.1802 7.50083H9.78077C8.97776 7.50083 8.27779 6.95431 8.08303 6.17526L7.8021 5.05158C7.42485 3.54255 8.79173 2.17568 10.3007 2.55293C11.341 2.81299 12.4399 2.69235 13.3989 2.21284L14.0302 1.8972Z" fill="#45B386"/>
<path fill-rule="evenodd" clip-rule="evenodd" d="M14.0302 1.8972C15.2536 1.2855 16.6453 2.34849 16.3771 3.68974L15.8962 6.09403C15.7326 6.91202 15.0144 7.50083 14.1802 7.50083H9.78077C8.97776 7.50083 8.27779 6.95431 8.08303 6.17526L7.8021 5.05158C7.42485 3.54255 8.79173 2.17568 10.3007 2.55293C11.341 2.81299 12.4399 2.69235 13.3989 2.21284L14.0302 1.8972Z" fill="#45B386"/>
</svg>
