<svg width="40" height="40" viewBox="0 0 40 40" fill="none" xmlns="http://www.w3.org/2000/svg">
<path d="M20.221 13.3625C19.1359 12.6987 18.3301 11.7661 17.9189 10.698C17.5076 9.62985 17.5119 8.48074 17.931 7.41473C18.3501 6.34872 19.1627 5.42031 20.2527 4.76206C21.3427 4.10382 22.6544 3.74939 24.0005 3.74939C25.3466 3.74939 26.6583 4.10382 27.7483 4.76206C28.8384 5.42031 29.6509 6.34872 30.07 7.41473C30.4892 8.48074 30.4934 9.62985 30.0821 10.698C29.6709 11.7661 28.8651 12.6987 27.78 13.3625L32.31 15.8483C32.1973 16.6054 31.9379 17.3422 31.542 18.03H16.458C16.0621 17.3422 15.8027 16.6054 15.69 15.8483L20.22 13.3625M27.529 18.03C27.529 25.5908 36.917 26.6966 36.917 34.025C35.172 35.85 28.987 36.25 24 36.25C19.013 36.25 12.828 35.85 11.083 34.025C11.083 26.6966 20.471 25.5916 20.471 18.03" stroke="black" stroke-opacity="0.5" stroke-linecap="round" stroke-linejoin="round"/>
</svg>
