<svg width="32" height="32" viewBox="0 0 32 32" fill="none" xmlns="http://www.w3.org/2000/svg">
<path d="M13.4807 10.6905C12.7572 10.1594 12.2201 9.41339 11.9459 8.55888C11.6718 7.70437 11.6746 6.78508 11.954 5.93227C12.2334 5.07946 12.7751 4.33673 13.5018 3.81014C14.2284 3.28354 15.1029 3 16.0003 3C16.8978 3 17.7722 3.28354 18.4989 3.81014C19.2256 4.33673 19.7673 5.07946 20.0467 5.93227C20.3261 6.78508 20.3289 7.70437 20.0548 8.55888C19.7806 9.41339 19.2434 10.1594 18.52 10.6905L21.54 12.6791C21.4649 13.2848 21.292 13.8742 21.028 14.4245H10.972C10.708 13.8742 10.5351 13.2848 10.46 12.6791L13.48 10.6905M18.3527 14.4245C18.3527 20.4731 24.6113 21.3578 24.6113 27.2205C23.448 28.6805 19.3247 29.0005 16 29.0005C12.6753 29.0005 8.55201 28.6805 7.38867 27.2205C7.38867 21.3578 13.6473 20.4738 13.6473 14.4245" stroke="black" stroke-opacity="0.5" stroke-linecap="round" stroke-linejoin="round"/>
</svg>
