<svg width="40" height="40" viewBox="0 0 40 40" fill="none" xmlns="http://www.w3.org/2000/svg">
<path d="M31.25 8.125H20.625V2.5C20.625 2.33424 20.5592 2.17527 20.4419 2.05806C20.3247 1.94085 20.1658 1.875 20 1.875C19.8342 1.875 19.6753 1.94085 19.5581 2.05806C19.4408 2.17527 19.375 2.33424 19.375 2.5V8.125H8.75C7.58968 8.125 6.47688 8.58594 5.65641 9.40641C4.83594 10.2269 4.375 11.3397 4.375 12.5V30C4.375 31.1603 4.83594 32.2731 5.65641 33.0936C6.47688 33.9141 7.58968 34.375 8.75 34.375H31.25C32.4103 34.375 33.5231 33.9141 34.3436 33.0936C35.1641 32.2731 35.625 31.1603 35.625 30V12.5C35.625 11.3397 35.1641 10.2269 34.3436 9.40641C33.5231 8.58594 32.4103 8.125 31.25 8.125ZM34.375 30C34.375 30.8288 34.0458 31.6237 33.4597 32.2097C32.8737 32.7958 32.0788 33.125 31.25 33.125H8.75C7.9212 33.125 7.12634 32.7958 6.54029 32.2097C5.95424 31.6237 5.625 30.8288 5.625 30V12.5C5.625 11.6712 5.95424 10.8763 6.54029 10.2903C7.12634 9.70424 7.9212 9.375 8.75 9.375H31.25C32.0788 9.375 32.8737 9.70424 33.4597 10.2903C34.0458 10.8763 34.375 11.6712 34.375 12.5V30ZM25.625 21.875H14.375C13.3804 21.875 12.4266 22.2701 11.7233 22.9733C11.0201 23.6766 10.625 24.6304 10.625 25.625C10.625 26.6196 11.0201 27.5734 11.7233 28.2767C12.4266 28.9799 13.3804 29.375 14.375 29.375H25.625C26.6196 29.375 27.5734 28.9799 28.2767 28.2767C28.9799 27.5734 29.375 26.6196 29.375 25.625C29.375 24.6304 28.9799 23.6766 28.2767 22.9733C27.5734 22.2701 26.6196 21.875 25.625 21.875ZM21.875 23.125V28.125H18.125V23.125H21.875ZM11.875 25.625C11.875 24.962 12.1384 24.3261 12.6072 23.8572C13.0761 23.3884 13.712 23.125 14.375 23.125H16.875V28.125H14.375C13.712 28.125 13.0761 27.8616 12.6072 27.3928C12.1384 26.9239 11.875 26.288 11.875 25.625ZM25.625 28.125H23.125V23.125H25.625C26.288 23.125 26.9239 23.3884 27.3928 23.8572C27.8616 24.3261 28.125 24.962 28.125 25.625C28.125 26.288 27.8616 26.9239 27.3928 27.3928C26.9239 27.8616 26.288 28.125 25.625 28.125ZM11.875 16.875C11.875 16.6278 11.9483 16.3861 12.0857 16.1805C12.223 15.975 12.4182 15.8148 12.6466 15.7201C12.8751 15.6255 13.1264 15.6008 13.3689 15.649C13.6113 15.6972 13.8341 15.8163 14.0089 15.9911C14.1837 16.1659 14.3028 16.3887 14.351 16.6311C14.3992 16.8736 14.3745 17.1249 14.2799 17.3534C14.1852 17.5818 14.025 17.777 13.8195 17.9143C13.6139 18.0517 13.3722 18.125 13.125 18.125C12.7935 18.125 12.4755 17.9933 12.2411 17.7589C12.0067 17.5245 11.875 17.2065 11.875 16.875ZM25.625 16.875C25.625 16.6278 25.6983 16.3861 25.8357 16.1805C25.973 15.975 26.1682 15.8148 26.3966 15.7201C26.6251 15.6255 26.8764 15.6008 27.1189 15.649C27.3613 15.6972 27.5841 15.8163 27.7589 15.9911C27.9337 16.1659 28.0527 16.3887 28.101 16.6311C28.1492 16.8736 28.1245 17.1249 28.0299 17.3534C27.9352 17.5818 27.775 17.777 27.5695 17.9143C27.3639 18.0517 27.1222 18.125 26.875 18.125C26.5435 18.125 26.2255 17.9933 25.9911 17.7589C25.7567 17.5245 25.625 17.2065 25.625 16.875Z" fill="black" fill-opacity="0.5"/>
</svg>
