<svg width="18" height="22" viewBox="0 0 18 22" fill="none" xmlns="http://www.w3.org/2000/svg">
<path d="M9.00762 21.6L8.6706 21.4477C5.69546 20.103 3.14392 18.109 1.08731 15.5205C0.386079 14.6383 0 13.5287 0 12.3963V0L1.18104 0.503877C2.62088 1.11823 3.78668 1.40432 4.84932 1.40432C6.70971 1.40432 8.55499 0.279492 8.57342 0.268154L9.00762 0.000527344L9.44952 0.256553C9.46768 0.266968 11.3818 1.36292 13.2351 1.36292C14.5745 1.36292 15.8583 0.902021 16.827 0.500449L18 0.014502V12.5153C18 13.5842 17.668 14.6064 17.0401 15.472C15.1223 18.1141 12.5346 20.1281 9.34902 21.4575L9.00762 21.6ZM1.694 2.5095V12.3963C1.694 13.1513 1.95055 13.89 2.41657 14.4762C4.22618 16.7536 6.45144 18.5289 9.0348 19.7577C11.7724 18.5512 14.0021 16.7789 15.6663 14.486C16.0846 13.9095 16.3059 13.2279 16.3059 12.5153V2.49842C15.3994 2.80138 14.3521 3.04739 13.2351 3.04739C11.4959 3.04739 9.80908 2.3269 9.03321 1.94273C8.26927 2.34299 6.60961 3.08892 4.84932 3.08892C3.69904 3.08905 2.60484 2.82063 1.694 2.5095ZM14.2576 7.76962L13.0597 6.57848L8.07889 11.5316L5.32131 8.7895L4.1233 9.98064L8.07889 13.9138L14.2576 7.76962Z" fill="black"/>
</svg>
