<svg width="20" height="20" viewBox="0 0 20 20" fill="none" xmlns="http://www.w3.org/2000/svg">
<path d="M17.0793 4.68913C17.4458 4.8179 17.7631 5.05727 17.9877 5.37419C18.2122 5.6911 18.3327 6.06991 18.3327 6.45829V14.7916C18.3327 15.7309 17.9595 16.6318 17.2954 17.296C16.6312 17.9602 15.7303 18.3333 14.791 18.3333H6.45768C6.0693 18.3333 5.69049 18.2128 5.37357 17.9883C5.05666 17.7638 4.81729 17.4464 4.68852 17.08L6.43602 17.0833H14.791C15.3988 17.0833 15.9817 16.8418 16.4115 16.4121C16.8412 15.9823 17.0827 15.3994 17.0827 14.7916V6.45829L17.0793 6.41579V4.68913ZM14.371 1.66663C14.8683 1.66663 15.3452 1.86417 15.6968 2.2158C16.0485 2.56743 16.246 3.04435 16.246 3.54163V14.3725C16.246 14.8697 16.0485 15.3467 15.6968 15.6983C15.3452 16.0499 14.8683 16.2475 14.371 16.2475H3.54102C3.04373 16.2475 2.56682 16.0499 2.21519 15.6983C1.86356 15.3467 1.66602 14.8697 1.66602 14.3725V3.54163C1.66602 3.04435 1.86356 2.56743 2.21519 2.2158C2.56682 1.86417 3.04373 1.66663 3.54102 1.66663H14.371ZM14.371 2.91663H3.54102C3.37526 2.91663 3.21628 2.98247 3.09907 3.09968C2.98186 3.21689 2.91602 3.37587 2.91602 3.54163V14.3725C2.91602 14.7175 3.19602 14.9975 3.54102 14.9975H14.3718C14.5376 14.9975 14.6966 14.9316 14.8138 14.8144C14.931 14.6972 14.9968 14.5382 14.9968 14.3725V3.54163C14.9968 3.37587 14.931 3.21689 14.8138 3.09968C14.6966 2.98247 14.5368 2.91663 14.371 2.91663ZM8.95768 5.62496C9.12344 5.62496 9.28241 5.69081 9.39962 5.80802C9.51683 5.92523 9.58268 6.0842 9.58268 6.24996V8.33329H11.666C11.8318 8.33329 11.9907 8.39914 12.108 8.51635C12.2252 8.63356 12.291 8.79253 12.291 8.95829C12.291 9.12405 12.2252 9.28302 12.108 9.40023C11.9907 9.51744 11.8318 9.58329 11.666 9.58329H9.58268V11.6666C9.58268 11.8324 9.51683 11.9914 9.39962 12.1086C9.28241 12.2258 9.12344 12.2916 8.95768 12.2916C8.79192 12.2916 8.63295 12.2258 8.51574 12.1086C8.39853 11.9914 8.33268 11.8324 8.33268 11.6666V9.58329H6.24935C6.08359 9.58329 5.92462 9.51744 5.80741 9.40023C5.6902 9.28302 5.62435 9.12405 5.62435 8.95829C5.62435 8.79253 5.6902 8.63356 5.80741 8.51635C5.92462 8.39914 6.08359 8.33329 6.24935 8.33329H8.33268V6.24996C8.33268 6.0842 8.39853 5.92523 8.51574 5.80802C8.63295 5.69081 8.79192 5.62496 8.95768 5.62496Z" fill="black"/>
</svg>
