<svg width="16" height="20" viewBox="0 0 16 20" fill="none" xmlns="http://www.w3.org/2000/svg">
<path d="M3 4.99993V2.99993C3.00001 2.42081 3.16765 1.85407 3.48266 1.36812C3.79768 0.882177 4.24662 0.497794 4.77529 0.261375C5.30395 0.0249557 5.88975 -0.0533941 6.46196 0.0357832C7.03418 0.124961 7.56835 0.377853 8 0.763934C8.43165 0.377853 8.96582 0.124961 9.53804 0.0357832C10.1103 -0.0533941 10.696 0.0249557 11.2247 0.261375C11.7534 0.497794 12.2023 0.882177 12.5173 1.36812C12.8324 1.85407 13 2.42081 13 2.99993V4.99993H14.5C14.8978 4.99993 15.2794 5.15797 15.5607 5.43927C15.842 5.72058 16 6.10211 16 6.49993V16.5049C16 17.4319 15.6318 18.3208 14.9763 18.9763C14.3209 19.6317 13.4319 19.9999 12.505 19.9999H4C2.93913 19.9999 1.92172 19.5785 1.17157 18.8284C0.421427 18.0782 0 17.0608 0 15.9999V6.49993C0 6.10211 0.158035 5.72058 0.43934 5.43927C0.720644 5.15797 1.10218 4.99993 1.5 4.99993H3ZM9.635 18.4999C9.22706 17.9147 9.00887 17.2183 9.01 16.5049V6.49993H1.5V15.9999C1.5 16.3282 1.56466 16.6533 1.6903 16.9566C1.81594 17.26 2.00009 17.5356 2.23223 17.7677C2.46438 17.9998 2.73998 18.184 3.04329 18.3096C3.34661 18.4353 3.67169 18.4999 4 18.4999H9.635ZM7.5 4.99993V2.99993C7.5 2.60211 7.34196 2.22058 7.06066 1.93927C6.77936 1.65797 6.39782 1.49993 6 1.49993C5.60217 1.49993 5.22064 1.65797 4.93934 1.93927C4.65803 2.22058 4.5 2.60211 4.5 2.99993V4.99993H7.5ZM9 4.99993H11.5V2.99993C11.5 2.69117 11.4048 2.38992 11.2272 2.1373C11.0497 1.88468 10.7985 1.693 10.508 1.58843C10.2175 1.48386 9.90177 1.4715 9.60396 1.55302C9.30615 1.63454 9.04076 1.80598 8.844 2.04393C8.945 2.34393 9 2.66593 9 2.99993V4.99993ZM10.51 16.5049C10.51 17.034 10.7202 17.5415 11.0943 17.9156C11.4685 18.2897 11.9759 18.4999 12.505 18.4999C13.0341 18.4999 13.5415 18.2897 13.9157 17.9156C14.2898 17.5415 14.5 17.034 14.5 16.5049V6.49993H10.51V16.5049Z" fill="#FF4F5B"/>
</svg>
