<svg width="22" height="14" viewBox="0 0 22 14" fill="none" xmlns="http://www.w3.org/2000/svg">
<path d="M21.4288 7.31875C19.3663 11.7062 17.5476 13.75 15.6913 13.75C13.3382 13.75 11.8729 10.6262 10.3213 7.31875C9.09693 4.70875 7.70943 1.75 6.31255 1.75C4.77505 1.75 2.90849 5.23844 1.93255 7.31875C1.84572 7.495 1.69319 7.63014 1.50776 7.69511C1.32233 7.76008 1.11881 7.74969 0.94096 7.66617C0.763112 7.58265 0.625142 7.43267 0.556716 7.24849C0.48829 7.06431 0.494874 6.86063 0.575051 6.68125C2.62911 2.29375 4.45255 0.25 6.31255 0.25C8.66568 0.25 10.131 3.37375 11.6826 6.68125C12.9032 9.29125 14.2907 12.25 15.6876 12.25C17.2251 12.25 19.0916 8.76156 20.0676 6.68125C20.1544 6.505 20.3069 6.36986 20.4923 6.30489C20.6778 6.23992 20.8813 6.25031 21.0591 6.33383C21.237 6.41735 21.375 6.56733 21.4434 6.75151C21.5118 6.93569 21.5052 7.13937 21.4251 7.31875H21.4288Z" fill="black"/>
</svg>
