<svg width="18" height="20" viewBox="0 0 18 20" fill="none" xmlns="http://www.w3.org/2000/svg">
<path d="M5.25 0.25V3.25H6.75V0.25H5.25ZM8.25 1V3.25H9.75V1H8.25ZM0.65625 4L0.75 4.8205L2.10975 17.734C2.22975 18.874 3.21375 19.75 4.35975 19.75H11.3903C12.5363 19.75 13.5203 18.874 13.6403 17.734L13.9928 14.5H15.75C16.9837 14.5 18 13.4838 18 12.25V10C18 8.76625 16.9837 7.75 15.75 7.75H14.6955L15 4.8205L15.0938 4H0.65625ZM2.34375 5.5H13.4062L12.1403 17.5705C12.1226 17.757 12.0359 17.9301 11.8971 18.0558C11.7583 18.1816 11.5775 18.2508 11.3903 18.25H4.35975C3.9705 18.25 3.651 17.9597 3.60975 17.5705L2.34375 5.5ZM14.5312 9.25H15.75C16.1745 9.25 16.5 9.5755 16.5 10V12.25C16.5 12.6745 16.1745 13 15.75 13H14.133L14.5312 9.25Z" fill="black"/>
</svg>
