<svg width="40" height="40" viewBox="0 0 40 40" fill="none" xmlns="http://www.w3.org/2000/svg">
<path d="M33.75 6.875H6.25C5.75272 6.875 5.27581 7.07254 4.92417 7.42417C4.57254 7.77581 4.375 8.25272 4.375 8.75V31.25C4.375 31.7473 4.57254 32.2242 4.92417 32.5758C5.27581 32.9275 5.75272 33.125 6.25 33.125H33.75C34.2473 33.125 34.7242 32.9275 35.0758 32.5758C35.4275 32.2242 35.625 31.7473 35.625 31.25V8.75C35.625 8.25272 35.4275 7.77581 35.0758 7.42417C34.7242 7.07254 34.2473 6.875 33.75 6.875ZM34.375 31.25C34.375 31.4158 34.3092 31.5747 34.1919 31.6919C34.0747 31.8092 33.9158 31.875 33.75 31.875H6.25C6.08424 31.875 5.92527 31.8092 5.80806 31.6919C5.69085 31.5747 5.625 31.4158 5.625 31.25V8.75C5.625 8.58424 5.69085 8.42527 5.80806 8.30806C5.92527 8.19085 6.08424 8.125 6.25 8.125H33.75C33.9158 8.125 34.0747 8.19085 34.1919 8.30806C34.3092 8.42527 34.375 8.58424 34.375 8.75V31.25ZM26.875 13.75C26.875 15.5734 26.1507 17.322 24.8614 18.6114C23.572 19.9007 21.8234 20.625 20 20.625C18.1766 20.625 16.428 19.9007 15.1386 18.6114C13.8493 17.322 13.125 15.5734 13.125 13.75C13.125 13.5842 13.1908 13.4253 13.3081 13.3081C13.4253 13.1908 13.5842 13.125 13.75 13.125C13.9158 13.125 14.0747 13.1908 14.1919 13.3081C14.3092 13.4253 14.375 13.5842 14.375 13.75C14.375 15.2418 14.9676 16.6726 16.0225 17.7275C17.0774 18.7824 18.5082 19.375 20 19.375C21.4918 19.375 22.9226 18.7824 23.9775 17.7275C25.0324 16.6726 25.625 15.2418 25.625 13.75C25.625 13.5842 25.6908 13.4253 25.8081 13.3081C25.9253 13.1908 26.0842 13.125 26.25 13.125C26.4158 13.125 26.5747 13.1908 26.6919 13.3081C26.8092 13.4253 26.875 13.5842 26.875 13.75Z" fill="white" fill-opacity="0.5"/>
</svg>
