<svg width="24" height="24" viewBox="0 0 24 24" fill="none" xmlns="http://www.w3.org/2000/svg">
<path fill-rule="evenodd" clip-rule="evenodd" d="M11.2369 2.79885C10.6229 2.87985 9.86485 3.05385 8.78685 3.30285L7.55785 3.58685C6.64785 3.79685 6.01985 3.94285 5.54085 4.10685C5.07785 4.26585 4.81585 4.42185 4.61885 4.61985C4.42085 4.81685 4.26485 5.07885 4.10585 5.54185C3.94185 6.02085 3.79585 6.64785 3.58585 7.55885L3.30185 8.78685C3.05285 9.86585 2.87885 10.6239 2.79785 11.2379C2.71785 11.8359 2.73685 12.2409 2.84285 12.6089C2.94785 12.9769 3.14685 13.3299 3.53085 13.7949C3.92585 14.2729 4.47485 14.8239 5.25785 15.6069L7.08785 17.4369C8.44685 18.7959 9.41385 19.7609 10.2459 20.3949C11.0599 21.0169 11.6559 21.2499 12.2609 21.2499C12.8669 21.2499 13.4619 21.0169 14.2769 20.3949C15.1079 19.7609 16.0759 18.7949 17.4349 17.4359C18.7949 16.0759 19.7599 15.1089 20.3949 14.2779C21.0149 13.4629 21.2489 12.8679 21.2489 12.2619C21.2489 11.6569 21.0159 11.0619 20.3939 10.2469C19.7599 9.41485 18.7939 8.44685 17.4349 7.08785L15.6049 5.25785C14.8229 4.47585 14.2719 3.92685 13.7949 3.53185C13.3289 3.14785 12.9759 2.94885 12.6079 2.84385C12.2399 2.73785 11.8349 2.71985 11.2379 2.79885H11.2369ZM11.0409 1.31185C11.7579 1.21685 12.3869 1.21985 13.0209 1.40185C13.6559 1.58385 14.1909 1.91485 14.7489 2.37485C15.2889 2.82085 15.8889 3.42085 16.6399 4.17185L18.5359 6.06785C19.8459 7.37785 20.8839 8.41585 21.5859 9.33785C22.3099 10.2849 22.7489 11.1969 22.7489 12.2619C22.7489 13.3279 22.3099 14.2399 21.5869 15.1869C20.8839 16.1089 19.8469 17.1469 18.5359 18.4569L18.4559 18.5369C17.1459 19.8469 16.1079 20.8849 15.1859 21.5869C14.2389 22.3109 13.3259 22.7499 12.2609 22.7499C11.1959 22.7499 10.2839 22.3109 9.33585 21.5879C8.41485 20.8849 7.37685 19.8479 6.06585 18.5369L4.17185 16.6399C3.42185 15.8899 2.82085 15.2889 2.37485 14.7499C1.91485 14.1909 1.58385 13.6559 1.40185 13.0219C1.21985 12.3869 1.21685 11.7579 1.31185 11.0409C1.40285 10.3469 1.59485 9.51885 1.83285 8.48485L2.13285 7.18185C2.33285 6.31885 2.49485 5.61485 2.68785 5.05385C2.88985 4.46685 3.14285 3.97385 3.55885 3.55785C3.97485 3.14185 4.46885 2.88785 5.05485 2.68785C5.61585 2.49385 6.31985 2.33185 7.18285 2.13285L8.48585 1.83285C9.51985 1.59285 10.3479 1.40285 11.0419 1.31085L11.0409 1.31185ZM9.48885 7.99485C9.2544 7.7604 8.93642 7.62869 8.60485 7.62869C8.27329 7.62869 7.9553 7.7604 7.72085 7.99485C7.4864 8.2293 7.35469 8.54729 7.35469 8.87885C7.35469 9.21042 7.4864 9.5284 7.72085 9.76285C7.83694 9.87894 7.97476 9.97103 8.12643 10.0339C8.27811 10.0967 8.44068 10.129 8.60485 10.129C8.76903 10.129 8.93159 10.0967 9.08327 10.0339C9.23495 9.97103 9.37276 9.87894 9.48885 9.76285C9.60494 9.64676 9.69703 9.50895 9.75985 9.35727C9.82268 9.20559 9.85502 9.04303 9.85502 8.87885C9.85502 8.71468 9.82268 8.55211 9.75985 8.40043C9.69703 8.24876 9.60494 8.11094 9.48885 7.99485ZM6.65985 6.93485C7.17556 6.41901 7.87508 6.12915 8.6045 6.12906C9.33392 6.12897 10.0335 6.41864 10.5494 6.93435C11.0652 7.45007 11.3551 8.14958 11.3551 8.879C11.3552 9.60842 11.0656 10.308 10.5499 10.8239C10.034 11.3397 9.33437 11.6295 8.60485 11.6295C7.87534 11.6295 7.1757 11.3397 6.65985 10.8239C6.14401 10.308 5.85421 9.60837 5.85421 8.87885C5.85421 8.14934 6.14401 7.4507 6.65985 6.93485ZM12.9899 12.1069C12.7587 12.1157 12.5402 12.2152 12.3819 12.3839C11.9939 12.7719 12.0959 13.1589 12.2049 13.2679C12.3149 13.3769 12.7019 13.4779 13.0889 13.0909C13.8729 12.3069 15.2269 12.0469 16.0939 12.9139C16.7669 13.5869 16.7619 14.5529 16.3589 15.3179C16.458 15.462 16.5036 15.6362 16.4879 15.8105C16.4721 15.9847 16.3959 16.1479 16.2725 16.2719C16.1491 16.3959 15.9862 16.4729 15.8121 16.4895C15.6379 16.5061 15.4635 16.4613 15.3189 16.3629C14.8701 16.6089 14.3496 16.6909 13.8469 16.5949C13.7503 16.575 13.6587 16.5364 13.5771 16.4811C13.4955 16.4259 13.4256 16.3551 13.3714 16.2728C13.3171 16.1905 13.2796 16.0984 13.261 16.0016C13.2424 15.9049 13.243 15.8054 13.2629 15.7089C13.2827 15.6123 13.3213 15.5207 13.3766 15.4391C13.4318 15.3575 13.5026 15.2876 13.5849 15.2334C13.6672 15.1791 13.7593 15.1416 13.8561 15.123C13.9528 15.1044 14.0523 15.105 14.1489 15.1249C14.3259 15.1619 14.6119 15.1049 14.8569 14.8589C15.2439 14.4709 15.1429 14.0839 15.0339 13.9749C14.9239 13.8659 14.5369 13.7649 14.1499 14.1519C13.3659 14.9359 12.0119 15.1959 11.1449 14.3289C10.4719 13.6559 10.4769 12.6899 10.8799 11.9249C10.7807 11.7807 10.7351 11.6065 10.7508 11.4322C10.7666 11.258 10.8428 11.0948 10.9662 10.9708C11.0896 10.8468 11.2525 10.7698 11.4266 10.7532C11.6008 10.7366 11.7752 10.7814 11.9199 10.8799C12.2599 10.6989 12.6329 10.6029 13.0049 10.6069C13.2038 10.6087 13.3938 10.6895 13.5331 10.8315C13.6725 10.9734 13.7497 11.1649 13.7479 11.3639C13.746 11.5628 13.6652 11.7528 13.5232 11.8921C13.3813 12.0315 13.1888 12.1087 12.9899 12.1069Z" fill="black"/>
</svg>
