<svg width="24" height="24" viewBox="0 0 24 24" fill="none" xmlns="http://www.w3.org/2000/svg">
<path d="M2.87998 10.71L11.29 2.29002C11.3834 2.19734 11.4942 2.12401 11.6161 2.07425C11.7379 2.02448 11.8684 1.99926 12 2.00002H21C21.2652 2.00002 21.5196 2.10537 21.7071 2.29291C21.8946 2.48045 22 2.7348 22 3.00002V12C22.0007 12.1316 21.9755 12.2621 21.9258 12.3839C21.876 12.5058 21.8027 12.6166 21.71 12.71L13.29 21.12C12.7275 21.6818 11.965 21.9974 11.17 21.9974C10.375 21.9974 9.61248 21.6818 9.04998 21.12L2.87998 15C2.31818 14.4375 2.00262 13.675 2.00262 12.88C2.00262 12.085 2.31818 11.3225 2.87998 10.76V10.71ZM4.28998 13.53L10.47 19.7C10.6573 19.8863 10.9108 19.9908 11.175 19.9908C11.4392 19.9908 11.6926 19.8863 11.88 19.7L20 11.59V4.00002H12.41L4.28998 12.12C4.1973 12.2135 4.12398 12.3243 4.07421 12.4461C4.02445 12.5679 3.99922 12.6984 3.99998 12.83C4.00109 13.0924 4.10524 13.3438 4.28998 13.53Z" fill="#534F59"/>
<circle cx="1.61538" cy="1.61538" r="1.61538" transform="matrix(-1 0 0 1 18.4619 5.53809)" fill="#FF4F5B"/>
</svg>
