<svg width="24" height="24" viewBox="0 0 24 24" fill="none" xmlns="http://www.w3.org/2000/svg">
<g clip-path="url(#clip0_134_23223)">
<path d="M23.9998 -1.5L-0.232422 -0.732194C-0.895463 -0.732194 -1.53135 -0.468802 -2.00019 3.86238e-05C-2.46903 0.46888 -2.73242 1.10476 -2.73242 1.76781V24L25.7676 25.313L26.4998 1C26.4998 0.336959 26.2364 -0.298926 25.7676 -0.767767C25.2987 -1.23661 24.6628 -1.5 23.9998 -1.5ZM10.9565 16.4442C10.8017 16.599 10.618 16.7218 10.4157 16.8056C10.2134 16.8894 9.99666 16.9326 9.77773 16.9326C9.55881 16.9326 9.34203 16.8894 9.13977 16.8056C8.93752 16.7218 8.75376 16.599 8.59899 16.4442L4.74398 12.5892L5.92232 11.4108L9.77732 15.2658L18.0773 6.96668L19.2557 8.14501L10.9565 16.4442Z" fill="black"/>
</g>
<defs>
<clipPath id="clip0_134_23223">
<rect width="24" height="24" rx="12" fill="white"/>
</clipPath>
</defs>
</svg>
