<svg width="32" height="32" viewBox="0 0 32 32" fill="none" xmlns="http://www.w3.org/2000/svg">
<g clip-path="url(#clip0_225_5993)">
<path d="M31.3743 28.1617L23.2189 20.0064C22.9406 19.7269 22.5887 19.5509 22.2159 19.4652C23.6264 17.473 24.4635 15.0475 24.4635 12.4251C24.4635 5.68027 18.9772 0.193359 12.2318 0.193359C5.48692 0.193282 0 5.67965 0 12.425C0 19.1692 5.48692 24.6562 12.2318 24.6562C15.0314 24.6562 17.6051 23.6973 19.668 22.107C19.7639 22.4425 19.9348 22.7611 20.1985 23.0254L28.3551 31.1814C28.7588 31.5851 29.2943 31.8065 29.8653 31.8065C30.4362 31.8065 30.9718 31.5845 31.3749 31.1814C31.7786 30.7777 32.0007 30.2414 32 29.6699C31.9994 29.0997 31.7773 28.5642 31.3743 28.1617ZM1.26102 12.4244C1.26102 6.37539 6.18211 1.45431 12.2311 1.45431C18.2795 1.45431 23.2006 6.37539 23.2006 12.4244C23.2006 15.3256 22.0594 17.9599 20.2143 19.9244C20.2054 19.932 20.1966 19.9351 20.1871 19.942C20.1744 19.9553 20.1713 19.9723 20.1587 19.9843C18.1602 22.0793 15.3487 23.3927 12.2323 23.3927C6.18273 23.3939 1.26102 18.4722 1.26102 12.4244ZM30.4823 30.2888C30.1524 30.6193 29.5771 30.6187 29.2471 30.2888L21.0905 22.1335C20.7505 21.7929 20.7505 21.2384 21.0905 20.8977C21.2558 20.7324 21.4753 20.6416 21.7087 20.6416C21.9422 20.6416 22.161 20.7331 22.3263 20.8977L30.4829 29.055C30.6476 29.2196 30.7377 29.4379 30.7377 29.6713C30.7384 29.9041 30.6476 30.1242 30.4823 30.2888Z" fill="white"/>
<g clip-path="url(#clip1_225_5993)">
<path d="M19.16 11.3037H18.3225L16.5207 7.24934C16.4616 7.11639 16.3652 7.00348 16.2431 6.92436C16.1211 6.84523 15.9786 6.80332 15.8332 6.80371H8.48503C8.33957 6.80332 8.19713 6.84523 8.07506 6.92436C7.95299 7.00348 7.85657 7.11639 7.79753 7.24934L5.99753 11.3037H5.16003C5.09373 11.3037 5.03014 11.3301 4.98326 11.3769C4.93637 11.4238 4.91003 11.4874 4.91003 11.5537C4.91003 11.62 4.93637 11.6836 4.98326 11.7305C5.03014 11.7774 5.09373 11.8037 5.16003 11.8037H5.91003V17.0537C5.91003 17.2526 5.98905 17.4434 6.1297 17.584C6.27036 17.7247 6.46112 17.8037 6.66003 17.8037H8.16003C8.35895 17.8037 8.54971 17.7247 8.69036 17.584C8.83102 17.4434 8.91003 17.2526 8.91003 17.0537V15.8037H15.41V17.0537C15.41 17.2526 15.4891 17.4434 15.6297 17.584C15.7704 17.7247 15.9611 17.8037 16.16 17.8037H17.66C17.8589 17.8037 18.0497 17.7247 18.1904 17.584C18.331 17.4434 18.41 17.2526 18.41 17.0537V11.8037H19.16C19.2263 11.8037 19.2899 11.7774 19.3368 11.7305C19.3837 11.6836 19.41 11.62 19.41 11.5537C19.41 11.4874 19.3837 11.4238 19.3368 11.3769C19.2899 11.3301 19.2263 11.3037 19.16 11.3037ZM8.25628 7.45246C8.2759 7.40817 8.30797 7.37054 8.34858 7.34413C8.38919 7.31772 8.43659 7.30368 8.48503 7.30371H15.835C15.8835 7.30368 15.9309 7.31772 15.9715 7.34413C16.0121 7.37054 16.0442 7.40817 16.0638 7.45246L17.775 11.3037H6.54503L8.25628 7.45246ZM8.41003 17.0537C8.41003 17.12 8.3837 17.1836 8.33681 17.2305C8.28993 17.2774 8.22634 17.3037 8.16003 17.3037H6.66003C6.59373 17.3037 6.53014 17.2774 6.48326 17.2305C6.43637 17.1836 6.41003 17.12 6.41003 17.0537V15.8037H8.41003V17.0537ZM17.66 17.3037H16.16C16.0937 17.3037 16.0301 17.2774 15.9833 17.2305C15.9364 17.1836 15.91 17.12 15.91 17.0537V15.8037H17.91V17.0537C17.91 17.12 17.8837 17.1836 17.8368 17.2305C17.7899 17.2774 17.7263 17.3037 17.66 17.3037ZM17.91 15.3037H6.41003V11.8037H17.91V15.3037ZM7.91003 13.5537C7.91003 13.4874 7.93637 13.4238 7.98326 13.3769C8.03014 13.3301 8.09373 13.3037 8.16003 13.3037H9.16003C9.22634 13.3037 9.28993 13.3301 9.33681 13.3769C9.3837 13.4238 9.41003 13.4874 9.41003 13.5537C9.41003 13.62 9.3837 13.6836 9.33681 13.7305C9.28993 13.7774 9.22634 13.8037 9.16003 13.8037H8.16003C8.09373 13.8037 8.03014 13.7774 7.98326 13.7305C7.93637 13.6836 7.91003 13.62 7.91003 13.5537ZM14.91 13.5537C14.91 13.4874 14.9364 13.4238 14.9833 13.3769C15.0301 13.3301 15.0937 13.3037 15.16 13.3037H16.16C16.2263 13.3037 16.2899 13.3301 16.3368 13.3769C16.3837 13.4238 16.41 13.4874 16.41 13.5537C16.41 13.62 16.3837 13.6836 16.3368 13.7305C16.2899 13.7774 16.2263 13.8037 16.16 13.8037H15.16C15.0937 13.8037 15.0301 13.7774 14.9833 13.7305C14.9364 13.6836 14.91 13.62 14.91 13.5537Z" fill="white"/>
</g>
</g>
<defs>
<clipPath id="clip0_225_5993">
<rect width="32" height="32" fill="white"/>
</clipPath>
<clipPath id="clip1_225_5993">
<rect width="16" height="16" fill="white" transform="translate(4.16003 4.05371)"/>
</clipPath>
</defs>
</svg>
