<svg width="24" height="24" viewBox="0 0 24 24" fill="none" xmlns="http://www.w3.org/2000/svg">
<path fill-rule="evenodd" clip-rule="evenodd" d="M7 6.16892C6.76057 6.16892 6.53379 6.18724 6.31883 6.2227C6.3111 6.22397 6.30336 6.22513 6.2956 6.22617C4.20321 6.50767 2.75 8.16596 2.75 10.8198V16.1802C2.75 17.6517 3.20645 18.8134 3.93738 19.597C4.66082 20.3726 5.7009 20.8311 7 20.8311H17C18.2991 20.8311 19.3392 20.3726 20.0626 19.597C20.7935 18.8134 21.25 17.6517 21.25 16.1802V10.8198C21.25 8.14805 19.7714 6.48064 17.652 6.21643C17.6382 6.21471 17.6245 6.21263 17.6108 6.21018C17.4384 6.17938 17.2424 6.16892 17 6.16892H7ZM6.07284 4.82296C6.3742 4.77393 6.68351 4.75 7 4.75H17C17.2713 4.75 17.5676 4.76046 17.868 4.8122C20.8967 5.19938 22.75 7.62367 22.75 10.8198V16.1802C22.75 17.9249 22.2065 19.4433 21.1874 20.5358C20.1608 21.6364 18.7009 22.25 17 22.25H7C5.2991 22.25 3.83918 21.6364 2.81262 20.5358C1.79355 19.4433 1.25 17.9249 1.25 16.1802V10.8198C1.25 7.64568 3.07211 5.23221 6.07284 4.82296Z" fill="#534F59"/>
<path fill-rule="evenodd" clip-rule="evenodd" d="M6 16.75C5.58579 16.75 5.25 16.4142 5.25 16L5.25 11C5.25 10.5858 5.58579 10.25 6 10.25C6.41421 10.25 6.75 10.5858 6.75 11L6.75 16C6.75 16.4142 6.41421 16.75 6 16.75Z" fill="#4B8F8F"/>
<path fill-rule="evenodd" clip-rule="evenodd" d="M2.61104 7.06296C2.37328 4.91701 3.81986 2.91654 5.9464 2.68093L15.7909 1.59023C17.9175 1.35462 19.7669 2.98993 20.0046 5.13588L20.0938 5.94048L18.6029 6.10565L18.5137 5.30105C18.3576 3.89205 17.1754 2.94601 15.9561 3.0811L6.11158 4.17181C4.89228 4.3069 3.94581 5.48878 4.10192 6.89778L2.61104 7.06296Z" fill="#534F59"/>
<path fill-rule="evenodd" clip-rule="evenodd" d="M15.25 13.5C15.25 11.9812 16.4812 10.75 18 10.75H21.1429C22.0305 10.75 22.75 11.4695 22.75 12.3571V14.6429C22.75 15.5305 22.0305 16.25 21.1429 16.25H18C16.4812 16.25 15.25 15.0188 15.25 13.5ZM16.75 13.5C16.75 14.1904 17.3096 14.75 18 14.75H21.1429C21.202 14.75 21.25 14.702 21.25 14.6429V12.3571C21.25 12.298 21.202 12.25 21.1429 12.25H18C17.3096 12.25 16.75 12.8096 16.75 13.5Z" fill="#4B8F8F"/>
</svg>
