<svg width="27" height="20" viewBox="0 0 27 20" fill="none" xmlns="http://www.w3.org/2000/svg">
<path fill-rule="evenodd" clip-rule="evenodd" d="M7.12571 4.74135C6.829 4.74135 6.54796 4.75874 6.28157 4.79238C6.272 4.79359 6.2624 4.79469 6.25279 4.79568C3.65978 5.06278 1.85888 6.63624 1.85888 9.15434V14.2405C1.85888 15.6367 2.42454 16.7391 3.33035 17.4826C4.22687 18.2185 5.51579 18.6535 7.12571 18.6535H19.5183C21.1282 18.6535 22.4171 18.2185 23.3136 17.4826C24.2194 16.7391 24.7851 15.6367 24.7851 14.2405V9.15434C24.7851 6.61924 22.9528 5.03713 20.3263 4.78643C20.3092 4.7848 20.2921 4.78283 20.2752 4.78051C20.0616 4.75128 19.8186 4.74135 19.5183 4.74135H7.12571ZM5.97673 3.46424C6.35018 3.41773 6.73351 3.39502 7.12571 3.39502H19.5183C19.8544 3.39502 20.2217 3.40494 20.594 3.45404C24.3473 3.82141 26.644 6.12169 26.644 9.15434V14.2405C26.644 15.8959 25.9704 17.3367 24.7075 18.3733C23.4353 19.4176 21.6261 19.9998 19.5183 19.9998H7.12571C5.01787 19.9998 3.20866 19.4176 1.93649 18.3733C0.673595 17.3367 0 15.8959 0 14.2405V9.15434C0 6.14258 2.25806 3.85256 5.97673 3.46424Z" fill="#7A7A7A"/>
<path fill-rule="evenodd" clip-rule="evenodd" d="M5.88647 14.7812C5.37316 14.7812 4.95703 14.4626 4.95703 14.0696L4.95703 9.32539C4.95703 8.93236 5.37316 8.61375 5.88647 8.61375C6.39979 8.61375 6.81591 8.93236 6.81591 9.32539L6.81591 14.0696C6.81591 14.4626 6.39979 14.7812 5.88647 14.7812Z" fill="#7A7A7A"/>
<path fill-rule="evenodd" clip-rule="evenodd" d="M1.68877 5.58969C1.39413 3.55351 3.1868 1.65537 5.82213 1.43181L18.022 0.396904C20.6573 0.17335 22.9492 1.725 23.2438 3.76118L23.3543 4.52462L21.5067 4.68135L21.3963 3.91791C21.2028 2.58098 19.7377 1.68334 18.2267 1.81152L6.02682 2.84643C4.51581 2.97461 3.34289 4.09603 3.53635 5.43296L1.68877 5.58969Z" fill="#7A7A7A"/>
<path fill-rule="evenodd" clip-rule="evenodd" d="M17.3516 11.6977C17.3516 10.2566 18.8774 9.08838 20.7595 9.08838H24.6543C25.7543 9.08838 26.646 9.77111 26.646 10.6133V12.7821C26.646 13.6243 25.7543 14.307 24.6543 14.307H20.7595C18.8774 14.307 17.3516 13.1388 17.3516 11.6977ZM19.2104 11.6977C19.2104 12.3527 19.904 12.8838 20.7595 12.8838H24.6543C24.7276 12.8838 24.7871 12.8382 24.7871 12.7821V10.6133C24.7871 10.5572 24.7276 10.5116 24.6543 10.5116H20.7595C19.904 10.5116 19.2104 11.0427 19.2104 11.6977Z" fill="#7A7A7A"/>
</svg>
