<svg width="64" height="64" viewBox="0 0 64 64" fill="none" xmlns="http://www.w3.org/2000/svg">
<circle cx="32" cy="32" r="32" fill="#207754"/>
<path fill-rule="evenodd" clip-rule="evenodd" d="M23.6693 22.2814C23.2702 22.2814 22.8923 22.3119 22.534 22.371C22.5211 22.3731 22.5082 22.3751 22.4953 22.3768C19.008 22.846 16.5859 25.6098 16.5859 30.0329V38.9668C16.5859 41.4193 17.3467 43.3556 18.5649 44.6616C19.7706 45.9542 21.5041 46.7183 23.6693 46.7183H40.3359C42.5011 46.7183 44.2346 45.9542 45.4403 44.6616C46.6585 43.3556 47.4193 41.4193 47.4193 38.9668V30.0329C47.4193 25.5799 44.955 22.8009 41.4226 22.3606C41.3996 22.3577 41.3767 22.3542 41.3539 22.3501C41.0666 22.2988 40.7399 22.2814 40.3359 22.2814H23.6693ZM22.124 20.0381C22.6263 19.9564 23.1418 19.9165 23.6693 19.9165H40.3359C40.788 19.9165 41.282 19.9339 41.7826 20.0202C46.8305 20.6655 49.9193 24.706 49.9193 30.0329V38.9668C49.9193 41.8746 49.0134 44.4054 47.3149 46.2262C45.604 48.0605 43.1708 49.0832 40.3359 49.0832H23.6693C20.8344 49.0832 18.4012 48.0605 16.6903 46.2262C14.9919 44.4054 14.0859 41.8746 14.0859 38.9668V30.0329C14.0859 24.7426 17.1228 20.7202 22.124 20.0381Z" fill="white"/>
<path fill-rule="evenodd" clip-rule="evenodd" d="M22 39.9165C21.3096 39.9165 20.75 39.3569 20.75 38.6665L20.75 30.3332C20.75 29.6428 21.3096 29.0832 22 29.0832C22.6904 29.0832 23.25 29.6428 23.25 30.3332L23.25 38.6665C23.25 39.3569 22.6904 39.9165 22 39.9165Z" fill="white"/>
<path fill-rule="evenodd" clip-rule="evenodd" d="M16.353 23.7714C15.9568 20.1949 18.3677 16.8607 21.912 16.4681L38.3195 14.6502C41.8637 14.2575 44.9461 16.983 45.3423 20.5596L45.4909 21.9006L43.0061 22.1759L42.8575 20.8349C42.5973 18.4866 40.627 16.9099 38.5948 17.135L22.1873 18.9529C20.1551 19.178 18.5777 21.1478 18.8378 23.4961L16.353 23.7714Z" fill="white"/>
<path fill-rule="evenodd" clip-rule="evenodd" d="M37.418 34.4998C37.418 31.9685 39.47 29.9165 42.0013 29.9165H47.2394C48.7187 29.9165 49.918 31.1157 49.918 32.5951V36.4046C49.918 37.8839 48.7187 39.0832 47.2394 39.0832H42.0013C39.47 39.0832 37.418 37.0311 37.418 34.4998ZM39.918 34.4998C39.918 35.6504 40.8507 36.5832 42.0013 36.5832H47.2394C47.338 36.5832 47.418 36.5032 47.418 36.4046V32.5951C47.418 32.4965 47.338 32.4165 47.2394 32.4165H42.0013C40.8507 32.4165 39.918 33.3492 39.918 34.4998Z" fill="white"/>
</svg>
