<svg width="33" height="32" viewBox="0 0 33 32" fill="none" xmlns="http://www.w3.org/2000/svg">
<path fill-rule="evenodd" clip-rule="evenodd" d="M9.83342 8.22514C9.51418 8.22514 9.2118 8.24957 8.92518 8.29685C8.91489 8.29854 8.90457 8.30009 8.89422 8.30148C6.10437 8.67681 4.16675 10.8879 4.16675 14.4263V21.5735C4.16675 23.5355 4.77535 25.0845 5.74992 26.1293C6.7145 27.1634 8.10128 27.7747 9.83342 27.7747H23.1667C24.8989 27.7747 26.2857 27.1634 27.2502 26.1293C28.2248 25.0845 28.8334 23.5355 28.8334 21.5735V14.4263C28.8334 10.864 26.862 8.64077 24.0361 8.28849C24.0177 8.2862 23.9994 8.28342 23.9811 8.28016C23.7513 8.23909 23.4899 8.22514 23.1667 8.22514H9.83342ZM8.5972 6.43053C8.99901 6.36516 9.41143 6.33325 9.83342 6.33325H23.1667C23.5284 6.33325 23.9236 6.34719 24.3241 6.41619C28.3624 6.93243 30.8334 10.1648 30.8334 14.4263V21.5735C30.8334 23.8997 30.1087 25.9243 28.7499 27.381C27.3812 28.8484 25.4346 29.6666 23.1667 29.6666H9.83342C7.56556 29.6666 5.61899 28.8484 4.25024 27.381C2.89148 25.9243 2.16675 23.8997 2.16675 21.5735V14.4263C2.16675 10.1942 4.59623 6.9762 8.5972 6.43053Z" fill="black"/>
<path fill-rule="evenodd" clip-rule="evenodd" d="M8.5 22.3333C7.94772 22.3333 7.5 21.8855 7.5 21.3333L7.5 14.6666C7.5 14.1143 7.94771 13.6666 8.5 13.6666C9.05228 13.6666 9.5 14.1143 9.5 14.6666L9.5 21.3333C9.5 21.8855 9.05228 22.3333 8.5 22.3333Z" fill="black"/>
<path fill-rule="evenodd" clip-rule="evenodd" d="M3.98155 9.41696C3.66454 6.55569 5.59331 3.88839 8.42869 3.57425L21.5547 2.11997C24.3901 1.80583 26.856 3.98624 27.173 6.84751L27.2918 7.92031L25.304 8.14055L25.1851 7.06775C24.977 5.18908 23.4007 3.92769 21.775 4.10781L8.64893 5.56208C7.02321 5.7422 5.76124 7.31805 5.96939 9.19672L3.98155 9.41696Z" fill="black"/>
<path fill-rule="evenodd" clip-rule="evenodd" d="M20.8334 17.9999C20.8334 15.9749 22.475 14.3333 24.5 14.3333H28.6905C29.874 14.3333 30.8334 15.2926 30.8334 16.4761V19.5237C30.8334 20.7072 29.874 21.6666 28.6905 21.6666H24.5C22.475 21.6666 20.8334 20.025 20.8334 17.9999ZM22.8334 17.9999C22.8334 18.9204 23.5796 19.6666 24.5 19.6666H28.6905C28.7694 19.6666 28.8334 19.6026 28.8334 19.5237V16.4761C28.8334 16.3972 28.7694 16.3333 28.6905 16.3333H24.5C23.5796 16.3333 22.8334 17.0794 22.8334 17.9999Z" fill="black"/>
</svg>
