<svg width="1920" height="379" viewBox="0 0 1920 379" fill="none" xmlns="http://www.w3.org/2000/svg">
<path d="M1529.82 0.00351969C1529.39 0.0129685 1528.97 0.0356419 1528.58 0.0790687V0.0858739C1516.74 0.415109 1505.3 7.90962 1500.78 18.9456C1498.19 25.1575 1498.07 32.1534 1499.1 38.7196C1501.31 52.0937 1513.87 62.409 1527.21 63.1975C1533.39 63.5414 1539.87 63.3483 1545.61 60.8393C1554.41 56.9602 1561.72 49.1502 1563.76 39.6087C1565.14 31.8078 1564.72 23.3006 1560.96 16.2027C1555.56 6.56241 1544.9 0.167466 1533.84 0.0795878C1532.54 0.0795878 1531.11 -0.021652 1529.82 0.00351969ZM742.308 2.17261L742.334 2.1919C725.933 2.97514 708.971 5.79245 694.904 14.8218C682.047 22.8385 673.406 36.5417 670.136 51.1918C667.65 61.2348 667.539 71.66 667.608 81.9501C661.989 81.9501 655.572 81.0542 650.861 84.8506C646.712 87.9082 644.666 93.205 645.16 98.275C645.16 104.205 645.023 110.158 645.16 116.075C645.987 122.789 652.235 128.235 659.007 128.264C661.823 128.47 664.653 128.264 667.469 128.264V268.094C667.469 272.636 669.274 276.992 672.485 280.204C675.697 283.416 680.053 285.22 684.595 285.22H706.406C710.948 285.22 715.304 283.416 718.515 280.204C721.727 276.992 723.531 272.636 723.531 268.094V128.296C731.086 128.296 738.665 128.528 746.206 128.006C752.8 127.031 758.12 120.933 758.161 114.26C758.299 108.715 758.162 103.161 758.3 97.6132C758.574 92.3875 756.266 86.9398 751.692 84.1636C748.285 81.8914 744.091 81.5982 740.121 81.8495H723.557C723.557 73.5196 723.01 64.4131 727.901 57.1698C731.61 52.0611 738.162 50.5313 744.068 49.7167C750.882 48.1426 756.58 41.6745 756.099 34.4889C756.099 27.7138 756.374 20.915 756.099 14.1537C755.139 7.56016 749.012 2.09035 742.308 2.17261ZM867.131 2.17261L867.158 2.1919C850.756 2.97514 833.794 5.79245 819.728 14.8218C806.87 22.8385 798.23 36.5417 794.96 51.1918C792.474 61.2348 792.363 71.66 792.431 81.9501C786.813 81.9501 780.402 81.0542 775.69 84.8506C771.542 87.9082 769.49 93.205 769.984 98.275C769.984 104.205 769.846 110.158 769.984 116.075C770.81 122.789 777.058 128.235 783.831 128.264C786.647 128.47 789.477 128.264 792.293 128.264V268.094C792.293 270.344 792.736 272.571 793.597 274.65C794.458 276.728 795.72 278.616 797.311 280.206C798.902 281.797 800.791 283.058 802.869 283.918C804.948 284.779 807.175 285.221 809.425 285.22H831.229C835.771 285.22 840.127 283.416 843.339 280.204C846.55 276.992 848.355 272.636 848.355 268.094V128.296C855.91 128.296 863.494 128.528 871.036 128.006C877.629 127.031 882.944 120.933 882.985 114.26C883.123 108.715 882.985 103.161 883.124 97.6132C883.398 92.3875 881.09 86.9398 876.516 84.1636C873.109 81.8914 868.921 81.5982 864.951 81.8495H848.38C848.38 73.5196 847.835 64.4131 852.725 57.1698C856.434 52.0611 862.985 50.5313 868.892 49.7167C875.705 48.1426 881.404 41.6745 880.923 34.4889C880.923 27.7138 881.197 20.915 880.923 14.1537C879.961 7.56016 873.835 2.09035 867.131 2.17261ZM1684.39 2.17261L1684.43 2.1919C1668.02 2.97514 1651.06 5.79245 1636.99 14.8218C1624.13 22.8385 1615.49 36.5417 1612.22 51.1918C1609.74 61.2348 1609.63 71.66 1609.7 81.9501C1604.08 81.9501 1597.66 81.0542 1592.95 84.8506C1588.8 87.9082 1586.76 93.205 1587.25 98.275C1587.25 104.205 1587.12 110.158 1587.25 116.075C1588.08 122.789 1594.33 128.235 1601.1 128.264C1603.92 128.47 1606.75 128.264 1609.56 128.264V268.094C1609.56 272.636 1611.37 276.992 1614.58 280.204C1617.79 283.416 1622.14 285.22 1626.69 285.22H1648.49C1653.03 285.22 1657.39 283.416 1660.6 280.204C1663.81 276.992 1665.62 272.636 1665.62 268.094V128.296C1673.17 128.296 1680.76 128.528 1688.3 128.006C1694.89 127.031 1700.21 120.933 1700.25 114.26C1700.38 108.715 1700.25 103.161 1700.39 97.6132C1700.66 92.3875 1698.35 86.9398 1693.78 84.1636C1690.37 81.8914 1686.18 81.5982 1682.21 81.8495H1665.65C1665.65 73.5196 1665.1 64.4131 1669.99 57.1698C1673.7 52.0611 1680.25 50.5313 1686.15 49.7167C1692.97 48.1426 1698.67 41.6745 1698.19 34.4889C1698.19 27.7138 1698.47 20.915 1698.19 14.1537C1697.23 7.56016 1691.1 2.09035 1684.39 2.17261ZM1441.86 15.3952C1440.97 15.3969 1440.08 15.4333 1439.2 15.5024L1439.27 15.4395C1431.33 15.4395 1423.37 15.3016 1415.44 15.5783C1414.48 15.7168 1413.42 15.8805 1412.45 16.1962C1413.55 17.1179 1410.73 16.8527 1410.39 17.0033C1405.25 19.3316 1402.15 24.8964 1402.23 30.4529V104.814C1384.56 85.791 1357.57 76.8355 1331.97 79.1061C1311.61 80.7613 1291.78 89.4031 1277.15 103.761C1260.79 119.609 1251.07 141.473 1248.09 163.89C1245.41 183.054 1246.62 202.874 1252.31 221.402C1258.85 242.493 1272.08 261.819 1290.68 274.015C1307.75 285.362 1328.84 290.136 1349.17 288.089C1368.18 286.345 1386.94 278.255 1399.9 263.989C1400.72 263.138 1401.43 262.263 1402.16 261.373C1402.16 265.946 1401.75 270.64 1402.71 275.125C1404.46 280.812 1409.9 285.087 1415.87 285.245C1423.08 285.411 1430.3 285.245 1437.51 285.245C1442.3 285.107 1447.6 285.798 1451.71 282.761C1455.76 280.115 1458.16 275.375 1458.09 270.553C1458.23 262.912 1458.09 255.26 1458.09 247.614V28.7315C1457.68 21.7368 1451.53 15.7196 1444.53 15.5026C1443.64 15.4267 1442.75 15.3936 1441.86 15.3952ZM498.922 78.6835C498.046 78.6767 497.175 78.6802 496.299 78.6903L496.28 78.7095C473.848 79.1489 451.5 88.1102 435.552 104.032C418.491 120.74 408.848 144.007 406.389 167.56C403.752 191.551 407.075 216.573 418.035 238.238C427.459 256.778 442.93 272.466 462.079 280.876C485.583 291.288 513.646 291.026 536.875 279.956C546.161 275.481 554.665 269.055 561.41 261.354C561.41 267.073 562.78 272.991 566.668 277.345C571.187 282.776 578.357 285.668 585.377 285.214C591.737 285.076 598.54 286.067 604.419 283.071C612.112 279.426 617.428 271.129 617.043 262.559V103.175C616.905 92.6496 608.055 83.0809 597.546 82.1332C592.807 81.6522 588.017 81.9165 583.264 81.9314C575.201 81.9314 567.467 86.789 563.881 93.9938C562.068 97.4307 561.27 101.351 561.435 105.224C547.643 89.6753 527.423 80.4877 506.804 79.0056C504.177 78.789 501.549 78.6986 498.922 78.6835ZM992.598 78.7092C991.56 78.7059 990.52 78.7124 989.483 78.7349C964.373 79.1607 939.041 87.8731 920.318 104.89C902.447 120.922 891.457 143.881 888.696 167.611C886.059 188.399 888.421 210.012 896.553 229.379C904.589 248.214 918.687 264.472 936.517 274.615C959.663 287.904 987.698 291.263 1013.72 286.293C1036.11 282.011 1057.32 270.61 1072.24 253.22C1086.43 236.786 1094.64 215.584 1096.23 193.999C1098.21 171.007 1093.97 147.094 1082.15 127.098C1072.02 109.901 1056.37 96.0685 1038.07 88.0985C1023.82 81.7561 1008.17 78.7712 992.598 78.7092ZM1224.53 79.9009C1223.85 79.9009 1223.16 80.0413 1222.54 80.0962L1222.58 80.0142C1204.63 82.4935 1187.84 92.3657 1176.91 106.825C1176.91 102.054 1177.32 97.199 1176.36 92.4928C1174.66 85.8554 1167.76 81.2354 1160.97 81.9184C1151.91 81.9184 1142.84 81.7093 1133.78 82.177C1127.08 83.0435 1121.62 89.1998 1121.58 95.9735C1121.44 101.833 1121.58 107.703 1121.58 113.566V271.998C1121.99 278.942 1128.05 284.9 1134.98 285.22C1141.91 285.426 1148.83 285.221 1155.75 285.359C1160.7 285.221 1166.21 286.008 1170.46 282.875C1174.52 280.237 1176.91 275.49 1176.84 270.673V247.223V179.111C1177.39 167.894 1179.69 155.56 1188.03 147.281C1193.18 142.195 1200.23 139.459 1207.11 138.189C1213.42 136.843 1219.89 137.339 1226.26 136.676C1232.28 135.3 1237.07 129.829 1237.39 123.629C1237.8 118.407 1237.39 113.161 1237.39 107.929C1237.39 102.141 1237.66 96.3211 1237.25 90.5571C1236.29 85.7742 1232.58 81.6171 1227.86 80.3107C1228.27 79.7195 1225.49 80.0515 1224.53 79.9009ZM1753.41 81.8619C1752.91 81.859 1752.41 81.8748 1751.91 81.9122C1741.06 81.9122 1730.21 81.7744 1719.37 82.0511C1713.43 82.6679 1708.86 89.0443 1710.52 94.8575C1711.48 98.7824 1713.57 102.324 1714.9 106.132C1737.2 160.391 1759.58 214.615 1781.82 268.895C1784.29 275.665 1783.42 283.326 1780.15 289.678C1769.3 314.72 1758.35 339.731 1747.54 364.789C1745.63 369.362 1747.54 375.127 1751.92 377.489C1755.7 379.817 1760.29 378.684 1764.47 378.964C1772.9 378.964 1781.35 379.136 1789.77 378.643C1797.41 377.695 1803.96 371.911 1806.37 364.67C1844.05 275.05 1881.76 185.442 1919.37 95.7908C1921.86 89.5393 1916.58 81.6757 1909.76 81.9944C1900.97 81.8291 1892.17 82.0012 1883.37 81.862H1881.27V81.8813C1877.31 81.8813 1873.28 82.4452 1869.87 84.5927C1865.23 87.2123 1862.05 91.8388 1860.57 96.8884C1846.47 134.366 1832.41 171.858 1818.41 209.372C1818.27 210.883 1816.51 213.052 1815.03 211.497C1813.79 209.452 1813.39 206.982 1812.37 204.801C1798.63 167.702 1784.99 130.565 1771.17 93.5023C1768.21 86.5599 1760.91 81.9051 1753.41 81.8619ZM1523.71 81.8997C1521.53 81.9065 1519.36 81.9288 1517.19 81.9627C1510.5 82.2368 1504.42 87.6586 1503.66 94.3719C1503.11 99.5655 1503.66 104.798 1503.53 110.009V271.966C1503.94 278.796 1509.84 284.775 1516.71 285.132C1522.15 285.434 1527.62 285.132 1533.07 285.271C1538.02 285.133 1543.04 285.626 1547.95 284.817C1554.07 283.348 1558.82 277.45 1558.75 271.109C1559.02 264.647 1558.75 258.168 1558.75 251.7V95.0277C1558.34 87.478 1550.95 81.3201 1543.45 81.9628C1536.87 81.9628 1530.28 81.88 1523.71 81.8997ZM991.476 127.608C1006.32 127.443 1021.34 134.538 1029.74 146.953C1037.56 158.059 1040.13 172.019 1039.95 185.297C1039.95 199.849 1035.38 215.22 1024.77 225.747C1014.34 236.604 998.236 241.222 983.606 239.045C974.691 237.795 965.747 233.7 959.236 227.21C950.128 218.3 945.553 205.514 944.317 193.229C943.218 182.483 943.909 171.437 946.971 161.179C950.543 149.288 958.467 138.436 969.69 132.772C976.38 129.297 983.948 127.634 991.476 127.608ZM511.476 127.949C523.551 127.811 535.911 132.454 544.908 140.925C554.771 150.131 560.062 163.62 561.119 177.005C562.356 191.404 559.69 207.056 551.05 219.126C543.92 229.323 532.367 236.492 519.976 238.452C511.432 239.948 501.793 239.084 493.619 235.697C485.514 232.428 478.112 226.612 472.906 219.366C465.46 209.321 462.185 196.624 461.966 184.37C461.691 170.533 465.14 156.16 474.11 145.339C483.039 134.163 497.259 127.895 511.476 127.949ZM1352.71 127.949C1364.5 127.797 1376.77 132.31 1385.69 140.528C1395.65 149.655 1400.95 162.717 1402.22 176.003C1403.62 190.188 1401.26 205.627 1393.17 217.789C1385.65 229.426 1372.75 237.191 1359.04 238.774C1352.63 239.6 1345.29 239.107 1338.79 237.103C1326.35 233.364 1315.9 224.181 1309.99 212.682C1303.88 200.889 1302.21 187.129 1303.7 174.036C1304.52 167.695 1305.87 161.928 1308.57 156.109C1314.05 144.007 1324.66 134.245 1337.42 130.326C1342.35 128.738 1347.53 127.96 1352.71 127.949Z" fill="white"/>
<path fill-rule="evenodd" clip-rule="evenodd" d="M152.081 19.7451L147.073 27.7394C134.863 48.7612 123.146 70.0618 110.771 90.9849C74.5236 153.06 38.4218 215.208 2.35643 277.387C-2.28774 286.587 0.290962 298.146 6.9588 305.675C11.836 311.451 19.278 314.808 26.8276 314.769C31.7744 314.801 36.7304 314.574 41.6804 314.779C89.8217 314.973 137.969 315.298 186.114 315.179C186.179 315.179 186.24 315.187 186.311 315.189C186.349 315.189 186.363 315.185 186.399 315.177C192.937 315.176 199.479 313.185 204.73 309.213C213.99 302.546 218.951 290.497 217.066 279.245C215.212 267.769 206.592 257.571 195.339 254.352C192.047 253.357 188.59 252.913 185.15 253.039C185.112 253.038 185.101 253.042 185.064 253.05L89.2994 253.046L99.8772 233.802L171.104 110.427C173.645 112.681 176.135 114.966 178.575 117.279C178.862 117.548 179.157 117.805 179.445 118.074C182.203 120.665 184.937 123.3 187.634 126C190.331 128.7 192.993 131.458 195.609 134.295C198.226 137.131 200.795 140.045 203.311 143.045C205.826 146.046 208.29 149.137 210.686 152.329C213.083 155.521 215.412 158.816 217.669 162.227C219.927 165.638 222.109 169.16 224.208 172.818C226.307 176.476 228.329 180.267 230.251 184.198C231.211 186.164 232.144 188.165 233.056 190.205C233.969 192.244 234.856 194.322 235.719 196.439C236.582 198.556 237.422 200.715 238.231 202.912C239.04 205.11 239.816 207.348 240.57 209.629C241.324 211.91 242.055 214.23 242.752 216.599C243.448 218.968 244.111 221.387 244.747 223.846C245.384 226.306 245.99 228.808 246.563 231.362C247.137 233.916 247.675 236.518 248.183 239.17C248.692 241.822 249.171 244.524 249.612 247.277C250.053 250.03 250.457 252.832 250.828 255.689C251.199 258.547 251.533 261.455 251.832 264.421C252.13 267.386 252.395 270.412 252.619 273.49C252.843 276.567 253.029 279.697 253.176 282.89C253.322 286.082 253.428 289.334 253.494 292.644C253.561 295.955 253.59 299.322 253.575 302.755C253.559 306.187 253.504 309.683 253.404 313.241L253.402 313.248C253.292 314.454 253.26 315.667 253.295 316.874C253.294 316.891 253.297 316.908 253.297 316.924L253.295 316.931C253.336 318.22 253.46 319.511 253.661 320.785C253.861 322.059 254.141 323.318 254.494 324.56C254.847 325.801 255.273 327.019 255.769 328.21C256.267 329.402 256.834 330.567 257.468 331.69C258.103 332.814 258.801 333.896 259.565 334.935C260.33 335.973 261.159 336.968 262.046 337.903C262.932 338.839 263.875 339.716 264.877 340.531C265.879 341.346 266.939 342.095 268.048 342.772C269.368 343.627 270.752 344.367 272.185 344.994C273.618 345.62 275.098 346.132 276.609 346.532C278.12 346.932 279.665 347.217 281.221 347.39C282.32 347.512 283.423 347.512 284.529 347.522C292.011 347.395 299.462 344.839 305.168 340.048C305.295 339.937 305.437 339.833 305.566 339.719C306.241 339.132 306.894 338.512 307.514 337.861C307.626 337.747 307.724 337.62 307.828 337.501C308.425 336.852 309.011 336.192 309.55 335.483C311.921 332.247 313.643 328.695 314.939 324.97C314.99 324.796 315.064 324.63 315.112 324.454C315.176 324.26 315.229 324.06 315.304 323.868C317.264 317.8 318.166 311.325 318.832 305.04C320.043 286.843 318.34 268.604 315.907 250.572C305.457 181.363 271.347 115.465 219.158 68.5209C210.49 60.7433 201.254 53.6471 192.038 46.5318C180.485 37.7342 168.539 29.4214 156.043 22.0396L152.081 19.7451ZM181.327 169.129C178.031 169.083 174.728 169.553 171.581 170.558L171.583 170.55C160.44 173.954 151.684 183.999 149.889 195.514C147.78 207.711 153.63 220.876 164.226 227.341C174.782 234.179 189.519 233.717 199.582 226.106C208.973 219.345 214 207.134 212.088 195.722C210.208 184.084 201.475 173.737 190.063 170.473C189.875 170.419 189.693 170.358 189.503 170.307C189.315 170.255 189.12 170.214 188.931 170.163C186.451 169.514 183.891 169.165 181.327 169.129Z" fill="white"/>
</svg>
